<?xml version="1.0" standalone="no"?>
<!DOCTYPE svg PUBLIC "-//W3C//DTD SVG 1.1//EN" "http://www.w3.org/Graphics/SVG/1.1/DTD/svg11.dtd" >
<svg xmlns="http://www.w3.org/2000/svg" xmlns:xlink="http://www.w3.org/1999/xlink" version="1.1">
<metadata>
Created by FontForge 20170731 at Mon Apr 17 22:03:02 2017
 By Aleksey,,,
Copyright (c) 2017 by Catfonts, Peter Wiegel. All rights reserved.
</metadata>
<defs>
<font id="EuroScript" horiz-adv-x="629" >
  <font-face 
    font-family="EuroScript"
    font-weight="400"
    font-stretch="normal"
    units-per-em="1000"
    panose-1="0 0 0 0 0 0 0 0 0 0"
    ascent="800"
    descent="-200"
    x-height="421"
    cap-height="804"
    bbox="-360 -514 1351 1101"
    underline-thickness="20"
    underline-position="-163"
    unicode-range="U+0020-F8FF"
  />
<missing-glyph horiz-adv-x="677" 
d="M83 397l362 362l363 -362l-363 -363zM441 314l6 3h-8q-8 13 -8 28q0 20 18.5 38.5t40.5 41.5t40.5 54.5t18.5 78.5q0 24 -6 45t-18.5 37t-31.5 25.5t-45 9.5q-20 0 -38.5 -7.5t-32.5 -20t-22.5 -30.5t-8.5 -39q0 -11 5.5 -21.5t18.5 -10.5q12 0 15.5 13.5t8 30t15.5 30
t40 13.5q30 0 43 -22.5t13 -48.5q0 -41 -18.5 -68t-40 -48.5t-40 -44t-18.5 -54.5q0 -12 4 -25.5t11.5 -25t18.5 -18.5t25 -7q21 0 38 16.5t17 37.5q0 8 -6 15.5t-15 7.5q-13 0 -19.5 -11.5t-14.5 -19.5h4zM443 100q11 0 19.5 6.5t14 16.5t8 21.5t2.5 20.5q0 14 -9 29.5
t-26 15.5q-11 0 -19 -6t-13 -15.5t-8 -20t-3 -19.5q0 -15 8 -32t26 -17z" />
    <glyph glyph-name="percent" unicode="&#x30;&#x2f;&#x30;" horiz-adv-x="444" 
d="M142 619q0 19 13 42.5t32.5 43.5t42 34t42.5 14q13 0 21 -5q20 -5 33 -19q5 -1 10.5 -1.5t10.5 -0.5q28 0 56 5.5t55 12.5t54.5 12.5t56.5 5.5q13 0 24 -9t11 -23q0 -11 -5.5 -17.5t-13.5 -13.5q-29 -24 -52 -51t-42.5 -55.5t-38 -58.5t-37.5 -62q-52 -85 -102.5 -170
t-93.5 -175q-9 -18 -15.5 -37.5t-13.5 -39t-15 -38t-19 -34.5q-5 -8 -12.5 -14t-18.5 -6q-13 0 -21.5 10t-8.5 22q0 23 23 76.5t59 122.5t80 145.5t86 145.5t77.5 122.5t53.5 76.5q-27 -5 -54 -9t-54 -6q5 -18 5 -33q0 -24 -9 -46t-25 -39.5t-37.5 -28t-45.5 -10.5
q-22 0 -42.5 9t-36 24.5t-24.5 35.5t-9 42zM270 84q0 26 10.5 52t28.5 47t42.5 34t51.5 13q22 0 41 -9.5t32 -25.5t20.5 -36.5t7.5 -41.5q0 -27 -10.5 -54.5t-28.5 -49.5t-43 -36t-54 -14q-24 0 -42.5 11t-30.5 28t-18.5 39t-6.5 43zM402 166q-14 0 -26.5 -9.5t-21.5 -23
t-14 -29t-5 -27.5q0 -17 7.5 -32.5t27.5 -15.5q14 0 26.5 8t21.5 20t14.5 26t5.5 27q0 8 -2 17.5t-6 18t-11 14.5t-17 6zM290 671l-10 6t-10 8q-9 -6 -20 -13t-20.5 -15.5t-15.5 -18.5t-6 -23q0 -18 14.5 -30t31.5 -12q20 0 35.5 16.5t15.5 35.5q0 26 -15 46z" />
    <glyph glyph-name="copyright" unicode="&#x28;c&#x29;" horiz-adv-x="719" 
d="M458 597q50 0 86 -19.5t58.5 -52t33 -74.5t10.5 -86q0 -66 -27.5 -131t-74.5 -116.5t-109 -83t-131 -31.5q-45 0 -87 17t-74 46.5t-51 69.5t-19 87q0 20 5 45q16 78 46.5 139.5t77 103.5t110 64t146.5 22zM446 541q-68 0 -123.5 -22.5t-95.5 -63t-61.5 -97t-21.5 -124.5
q0 -78 43 -125.5t123 -47.5q51 0 99 27t85.5 69.5t60 94t22.5 100.5q0 28 -7.5 61.5t-23 61.5t-40.5 47t-60 19zM401 459q16 0 36.5 -4.5t38.5 -13.5t30.5 -23t12.5 -33q0 -11 -10.5 -16.5t-19.5 -5.5q-12 0 -20 7t-17 16t-20.5 16t-29.5 7q-28 0 -52.5 -14t-43 -36.5
t-29 -50t-10.5 -53.5t14.5 -46.5t42.5 -20.5q23 0 42 11t35.5 24.5t31 25t28.5 11.5q10 0 17.5 -6t7.5 -17q0 -22 -17.5 -40.5t-42 -32t-51 -21t-44.5 -7.5q-26 0 -49.5 7t-41 20.5t-27.5 34.5t-10 49q0 41 15 79.5t41.5 68t63 47t78.5 17.5z" />
    <glyph glyph-name="ordfeminine" unicode="&#x2a;a" horiz-adv-x="381" 
d="M378 808q13 0 26 -2.5t23 -12.5q5 5 12.5 9t15.5 4q11 0 17.5 -8t6.5 -19q0 -26 -8.5 -56.5t-19 -63t-19 -65.5t-8.5 -63q0 -5 1 -15.5t9 -10.5q7 2 14.5 6.5t15.5 4.5q20 0 20 -22q0 -9 -9 -17t-22 -14.5t-26 -10t-20 -3.5q-13 0 -20.5 5.5t-12 14t-6 19t-2.5 20.5
q-8 -10 -19.5 -21t-25 -20t-28 -15t-27.5 -6q-103 0 -103 102q0 40 17.5 85.5t47 84.5t68.5 64.5t82 25.5zM219 568q0 -8 1 -19.5t4.5 -22.5t9.5 -19t17 -8q40 0 67 24.5t44.5 60t28.5 75t20 68.5l-17 14v-1q-4 5 -9 8.5t-11 3.5q-29 0 -57 -18.5t-49.5 -46.5t-35 -60
t-13.5 -59z" />
    <glyph glyph-name="registered" unicode="&#x28;r&#x29;" horiz-adv-x="475" 
d="M375 705q39 0 73 -7t60 -24t41 -46t15 -73q0 -60 -22.5 -115t-62 -96.5t-93 -66.5t-114.5 -25q-42 0 -63.5 11.5t-34.5 30t-23 41.5t-28 45q-5 25 -5 47q0 54 19 104.5t53 89t81.5 61.5t103.5 23zM181 443q0 -23 6 -47.5t18 -45t31 -34t46 -13.5q43 0 83 20.5t71 54
t49 75t18 83.5q0 51 -26 84t-80 33q-47 0 -86.5 -15t-68.5 -42t-45 -66t-16 -87zM309 592q14 0 35.5 -2t41.5 -8t34.5 -18t14.5 -31q0 -28 -15 -44t-40 -24q13 -17 25.5 -35t13.5 -41l-10 -13q-10 -4 -20 -5t-21 -1q-21 17 -31.5 41.5t-24.5 46.5h-14l-22 -81l-12 -11
q-8 -2 -17 -2t-17 -3l-10 4l-2 3l-1 9q0 13 5.5 41t12.5 58.5t14.5 58.5t12.5 43q2 4 6.5 6.5t8.5 4.5l16 2t16 1zM315 550h1q-8 -25 -12 -49h18q6 0 14.5 0.5t16 3t13 7t5.5 13.5q0 8 -6.5 12.5t-15.5 7.5t-18 4t-15 1l1 1z" />
    <glyph glyph-name="ordmasculine" unicode="&#x2a;o" horiz-adv-x="331" 
d="M361 810q9 0 18.5 -1.5t17.5 -6.5q4 1 7.5 2t7.5 1q17 0 27.5 -15.5t16 -36.5t7.5 -42.5t2 -33.5q0 -32 -13 -70.5t-35.5 -72t-53.5 -56t-67 -22.5q-57 0 -92.5 34t-35.5 91q0 39 14.5 79.5t40 73.5t61 54.5t77.5 21.5zM231 607q0 -15 3.5 -32.5t11 -32.5t20 -25
t30.5 -10q26 0 47 19.5t36 47.5t23 58.5t8 51.5q0 18 -5 29t-11 19l-10.5 14t-3.5 14l-21 1q-27 0 -50.5 -15t-41 -37.5t-27 -49.5t-9.5 -52z" />
    <glyph glyph-name="onequarter" unicode="&#x31;&#x2f;&#x34;" horiz-adv-x="745" 
d="M614 829q11 0 24 -4.5t13 -19.5q0 -16 -17 -51t-45.5 -81.5t-65.5 -102.5t-77.5 -115t-81.5 -117t-77 -109.5t-64 -93.5t-43 -68q-11 -19 -20 -41.5t-24 -39.5q-4 -5 -10 -9t-13 -4q-16 0 -26 7.5t-10 25.5q0 10 15 38.5t40 69t58 90.5t68 102t70.5 103t66 95t53.5 77.5
t34 49.5t26 42.5t31 54t29.5 51t21.5 33.5q3 4 10.5 10.5t13.5 6.5zM591 268q11 0 22.5 -11.5t10.5 -22.5l-11 -76h11q9 0 19 -1t19 -5t14.5 -10.5t5.5 -18.5q0 -15 -8.5 -22t-20.5 -9.5t-25.5 -2t-23.5 0.5q-2 -12 -3.5 -32.5t-6 -40.5t-13.5 -34.5t-25 -14.5
q-15 0 -24 11.5t-9 25.5q0 22 4.5 43t6.5 43l-137 -1q-11 0 -20.5 11t-9.5 22q0 5 11.5 32.5t29 67.5t39 86t41 87.5t34.5 72t20 39.5q5 8 13.5 12.5t16.5 4.5q14 0 23.5 -10t9.5 -24q0 -3 -10 -26.5t-26 -57.5t-34.5 -74t-35.5 -76t-30.5 -63.5t-17.5 -36.5l94 1
q1 10 2 28.5t5 36.5t12.5 31.5t26.5 13.5zM158 693q-5 -3 -14 -10.5t-19 -14.5t-19.5 -12.5t-14.5 -5.5q-14 0 -24 10t-10 24q0 6 9 17.5t23 25.5t31.5 28.5t33.5 26.5t29.5 19.5t19.5 7.5q17 0 26.5 -11.5t9.5 -28.5q0 -6 -5 -44.5t-13 -92t-17 -115t-17.5 -114.5
t-14.5 -88.5t-7 -38.5q-4 -10 -13 -19.5t-21 -9.5q-14 0 -24.5 11.5t-10.5 25.5q0 36 8.5 71.5t13.5 70.5z" />
    <glyph glyph-name="onehalf" unicode="&#x31;&#x2f;&#x32;" horiz-adv-x="818" 
d="M618 463q-16 0 -29 -7.5t-22.5 -19t-16 -26t-8.5 -28.5q-2 -16 -8.5 -32t-26.5 -16q-14 0 -25.5 11t-11.5 25q0 34 11 63.5t31 50.5t48.5 33t63.5 12q33 0 61.5 -12.5t49 -33.5t32.5 -49.5t12 -61.5q0 -36 -13.5 -64t-34.5 -50.5t-48 -41.5t-54 -36h1q-30 -20 -60.5 -41
t-51.5 -51q10 -4 27.5 -14t36 -20.5t34.5 -18.5t23 -8q12 0 18.5 12t13 26.5t15 26.5t23.5 12q17 0 26 -12t9 -27q0 -18 -9 -37t-23.5 -34t-33 -25t-36.5 -10q-23 0 -41.5 8.5t-36 20l-35 23t-38.5 16.5q-6 -10 -8.5 -21.5t-8.5 -22.5v1q-9 -16 -28 -16q-15 0 -25 11.5
t-10 25.5q0 25 12.5 54.5t31 56.5t41 50t43.5 37q16 10 44.5 30t57 43t49.5 47.5t21 44.5q0 44 -24 69.5t-69 25.5zM614 829q11 0 24 -4.5t13 -19.5q0 -16 -17 -51t-45.5 -81.5t-65.5 -102.5t-77.5 -115t-81.5 -117t-77 -109.5t-64 -93.5t-43 -68q-11 -19 -20 -41.5
t-24 -39.5q-4 -5 -10 -9t-13 -4q-16 0 -26 7.5t-10 25.5q0 10 15 38.5t40 69t58 90.5t68 102t70.5 103t66 95t53.5 77.5t34 49.5t26 42.5t31 54t29.5 51t21.5 33.5q3 4 10.5 10.5t13.5 6.5zM166 698q-5 -3 -14 -10.5t-19 -14.5t-19.5 -12.5t-14.5 -5.5q-14 0 -24 10t-10 24
q0 6 9 17.5t23 25.5t31.5 28.5t33.5 26.5t29.5 19.5t19.5 7.5q17 0 26.5 -11.5t9.5 -28.5q0 -6 -5 -44.5t-13 -92t-17 -115t-17.5 -114.5t-14.5 -88.5t-7 -38.5q-4 -10 -13 -19.5t-21 -9.5q-14 0 -24.5 11.5t-10.5 25.5q0 36 8.5 71.5t13.5 70.5z" />
    <glyph glyph-name="threequarters" unicode="&#x33;&#x2f;&#x34;" horiz-adv-x="853" 
d="M694 815q1 1 2 3.5t3 2.5q5 5 12.5 9.5t15.5 4.5q16 0 27 -10t11 -27q0 -12 -17 -44.5t-46 -79.5t-67 -104t-78.5 -117t-82 -120t-77 -112t-63.5 -93t-42 -64v1l-15 -29h1q-4 -9 -9.5 -20.5t-13 -22.5t-17 -18.5t-20.5 -7.5q-17 0 -27.5 10.5t-10.5 28.5q0 4 2 12
q2 9 14.5 31.5t32 54.5t44.5 70.5t52 78.5t53.5 79.5t49.5 72.5t40.5 58t25.5 37q44 63 87.5 126t81.5 129q8 14 15 31.5t17 29.5zM193 565q0 5 14 26t31.5 46t34 49t22.5 36l-113 3q-2 -10 -6 -23t-10.5 -24.5t-16 -19.5t-21.5 -8q-11 0 -20.5 8t-9.5 19q0 19 7 43.5
t16 41.5q1 10 10 20t20 10l195 -3q15 0 25 -10t10 -25q0 -7 -14.5 -30.5t-33 -50.5t-35.5 -51t-23 -31q45 -13 69 -50t24 -82q0 -43 -17.5 -83t-46.5 -71t-68.5 -49.5t-82.5 -18.5q-35 0 -59 13t-38 34.5t-20 49.5t-6 59q0 14 11.5 25t25.5 11q15 0 21 -9.5t8.5 -23t3.5 -30
t6.5 -30t17.5 -23t36 -9.5q31 0 56.5 13t43.5 34.5t28 49t10 56.5q0 36 -16.5 50t-36 20t-36 12t-16.5 26zM699 273q14 0 26 -13t12 -27q0 -16 -4.5 -35t-6.5 -35h10q10 0 20.5 -1.5t19 -6t14 -12t5.5 -20.5q0 -15 -8.5 -23.5t-20.5 -12t-25.5 -3.5t-23.5 1q-2 -12 -4 -33
t-7 -40.5t-14.5 -34t-27.5 -14.5q-17 0 -27.5 12.5t-10.5 29.5t2.5 33t5.5 32v-1l1 4l2 13l-64 -1h-68q-14 0 -24.5 12.5t-10.5 25.5q0 4 11.5 32.5t29.5 69t39.5 87t41 88t34.5 72t20 38.5t15 14t19 6q16 0 27 -11.5t11 -27.5q0 -3 -10 -26.5t-25.5 -57t-34 -73t-35.5 -75
t-30 -62t-17 -35.5h39l43 1q2 12 3 30.5t5.5 36t14 30.5t28.5 13z" />
    <glyph glyph-name="ellipsis" unicode="&#x2e;&#x2e;&#x2e;" horiz-adv-x="743" 
d="M295 53q0 15 5 32.5t15 32.5t23.5 25t30.5 10q12 0 21 -6t14.5 -15.5t8 -21t2.5 -21.5q0 -15 -5 -32.5t-14.5 -33t-23 -26t-30.5 -10.5q-13 0 -22 6.5t-14.5 16t-8 21t-2.5 22.5zM495 53q0 15 5 32.5t15 32.5t23.5 25t30.5 10q12 0 21 -6t14.5 -15.5t8 -21t2.5 -21.5
q0 -15 -5 -33t-14 -33t-22.5 -25.5t-31.5 -10.5q-13 0 -22 6.5t-14.5 16t-8 21t-2.5 22.5zM696 53q0 15 5 32.5t15 32.5t23.5 25t30.5 10q12 0 21 -6t14.5 -15.5t8 -21t2.5 -21.5q0 -15 -5 -33t-14 -33t-22.5 -25.5t-31.5 -10.5q-13 0 -22 6.5t-14.5 16t-8 21t-2.5 22.5z
" />
    <glyph glyph-name="perthousand" unicode="&#x30;&#x2f;&#x30;&#x30;" horiz-adv-x="797" 
d="M142 619q0 19 13 42.5t32.5 43.5t42 34t42.5 14q13 0 21 -5q20 -5 33 -19q5 -1 10.5 -1.5t10.5 -0.5q28 0 56 5.5t55 12.5t54.5 12.5t56.5 5.5q13 0 24 -9t11 -23q0 -11 -5.5 -17.5t-13.5 -13.5q-29 -24 -52 -51t-42.5 -55.5t-38 -58.5t-37.5 -62q-52 -85 -102.5 -170
t-93.5 -175q-9 -18 -15.5 -37.5t-13.5 -39t-15 -38t-19 -34.5q-5 -8 -12.5 -14t-18.5 -6q-13 0 -21.5 10t-8.5 22q0 23 23 76.5t59 122.5t80 145.5t86 145.5t77.5 122.5t53.5 76.5q-27 -5 -54 -9t-54 -6q5 -18 5 -33q0 -24 -9 -46t-25 -39.5t-37.5 -28t-45.5 -10.5
q-22 0 -42.5 9t-36 24.5t-24.5 35.5t-9 42zM525 84q0 26 10.5 52t28.5 47t42.5 34t51.5 13q22 0 41 -9.5t32 -25.5t20.5 -36.5t7.5 -41.5q0 -27 -10.5 -54.5t-28.5 -49.5t-43 -36t-54 -14q-24 0 -42.5 11t-30.5 28t-18.5 39t-6.5 43zM657 166q-14 0 -26.5 -9.5t-21.5 -23
t-14 -29t-5 -27.5q0 -17 7.5 -32.5t27.5 -15.5q14 0 26.5 8t21.5 20t14.5 26t5.5 27q0 8 -2 17.5t-6 18t-11 14.5t-17 6zM290 671l-10 6t-10 8q-9 -6 -20 -13t-20.5 -15.5t-15.5 -18.5t-6 -23q0 -18 14.5 -30t31.5 -12q20 0 35.5 16.5t15.5 35.5q0 26 -15 46zM270 84
q0 26 10.5 52t28.5 47t42.5 34t51.5 13q22 0 41 -9.5t32 -25.5t20.5 -36.5t7.5 -41.5q0 -27 -10.5 -54.5t-28.5 -49.5t-43 -36t-54 -14q-24 0 -42.5 11t-30.5 28t-18.5 39t-6.5 43zM402 166q-14 0 -26.5 -9.5t-21.5 -23t-14 -29t-5 -27.5q0 -17 7.5 -32.5t27.5 -15.5
q14 0 26.5 8t21.5 20t14.5 26t5.5 27q0 8 -2 17.5t-6 18t-11 14.5t-17 6z" />
    <glyph glyph-name="uni20BD" unicode="Rubel&#x23;" horiz-adv-x="760" 
d="M365 203q-11 -31 -28 -71.5t-41 -76.5t-55 -61t-71 -25q-33 0 -55.5 6.5t-40 19.5t-32.5 32.5t-32 44.5q-4 5 -7 11t-3 13q0 14 9 23t23 9q19 0 32.5 -14.5t26 -31.5t27.5 -31.5t36 -14.5q25 0 47 19t39.5 45.5t30 55t20.5 48.5q-11 0 -28.5 -1.5t-34 0t-29 9t-12.5 25.5
q0 17 16 25t38 10.5t43 2t32 -0.5l22 74q-10 0 -24 -0.5t-26.5 2t-21 9.5t-8.5 22q0 16 11.5 24t27.5 11t32.5 3h27.5q6 25 14.5 69t17.5 91.5t19 88.5t19 60q-16 -4 -43 -17.5t-57.5 -31.5t-61.5 -37.5t-56.5 -36t-41.5 -27.5t-17 -11q-13 0 -22 9t-9 22q0 8 2.5 13.5
t7.5 10.5q29 35 71 67.5t90.5 57t99 39t96.5 14.5q51 0 101.5 -14t90.5 -42.5t65 -71t25 -100.5q0 -49 -16 -85t-42.5 -61.5t-62.5 -41t-75.5 -24t-81 -11t-80.5 -0.5q-5 -19 -10.5 -37t-11.5 -37l263 -1q13 0 23.5 -9.5t10.5 -23.5q0 -16 -20 -24.5t-51.5 -13t-69.5 -5
t-73.5 0.5t-64.5 2.5t-41 1.5zM488 717q0 -76 -18.5 -149t-37.5 -146q27 2 58 2.5t61 3.5t57.5 10.5t48.5 23t33.5 41t12.5 65.5q0 44 -20 75.5t-52 52t-71 30t-77 9.5q1 -3 3 -9.5t2 -8.5z" />
    <glyph glyph-name="twothirds" unicode="&#x32;&#x2f;&#x33;" horiz-adv-x="818" 
d="M573 295q0 5 14 26t31.5 46t34 49t22.5 36l-113 3q-2 -10 -6 -23t-10.5 -24.5t-16 -19.5t-21.5 -8q-11 0 -20.5 8t-9.5 19q0 19 7 43.5t16 41.5q1 10 10 20t20 10l195 -3q15 0 25 -10t10 -25q0 -7 -14.5 -30.5t-33 -50.5t-35.5 -51t-23 -31q45 -13 69 -50t24 -82
q0 -43 -17.5 -83t-46.5 -71t-68.5 -49.5t-82.5 -18.5q-35 0 -59 13t-38 34.5t-20 49.5t-6 59q0 14 11.5 25t25.5 11q15 0 21 -9.5t8.5 -23t3.5 -30t6.5 -30t17.5 -23t36 -9.5q31 0 56.5 13t43.5 34.5t28 49t10 56.5q0 36 -16.5 50t-36 20t-36 12t-16.5 26zM614 829
q11 0 24 -4.5t13 -19.5q0 -16 -17 -51t-45.5 -81.5t-65.5 -102.5t-77.5 -115t-81.5 -117t-77 -109.5t-64 -93.5t-43 -68q-11 -19 -20 -41.5t-24 -39.5q-4 -5 -10 -9t-13 -4q-16 0 -26 7.5t-10 25.5q0 10 15 38.5t40 69t58 90.5t68 102t70.5 103t66 95t53.5 77.5t34 49.5
t26 42.5t31 54t29.5 51t21.5 33.5q3 4 10.5 10.5t13.5 6.5zM166 698q-5 -3 -14 -10.5t-19 -14.5t-19.5 -12.5t-14.5 -5.5q-14 0 -24 10t-10 24q0 6 9 17.5t23 25.5t31.5 28.5t33.5 26.5t29.5 19.5t19.5 7.5q17 0 26.5 -11.5t9.5 -28.5q0 -6 -5 -44.5t-13 -92t-17 -115
t-17.5 -114.5t-14.5 -88.5t-7 -38.5q-4 -10 -13 -19.5t-21 -9.5q-14 0 -24.5 11.5t-10.5 25.5q0 36 8.5 71.5t13.5 70.5z" />
    <glyph glyph-name="oneeighth" unicode="&#x31;&#x2f;&#x38;" horiz-adv-x="818" 
d="M763 395q0 -33 -14 -63.5t-37 -54.5q23 -18 37.5 -48.5t14.5 -59.5q0 -44 -12.5 -81t-36.5 -64t-59.5 -42t-81.5 -15q-31 0 -59.5 12t-50 33t-34.5 48.5t-13 58.5q0 115 100 166q-27 31 -27 73q0 33 10 64t29.5 54t47 37t63.5 14q28 0 51 -10.5t39 -28.5t24.5 -42
t8.5 -51zM614 829q11 0 24 -4.5t13 -19.5q0 -16 -17 -51t-45.5 -81.5t-65.5 -102.5t-77.5 -115t-81.5 -117t-77 -109.5t-64 -93.5t-43 -68q-11 -19 -20 -41.5t-24 -39.5q-4 -5 -10 -9t-13 -4q-16 0 -26 7.5t-10 25.5q0 10 15 38.5t40 69t58 90.5t68 102t70.5 103t66 95
t53.5 77.5t34 49.5t26 42.5t31 54t29.5 51t21.5 33.5q3 4 10.5 10.5t13.5 6.5zM166 698q-5 -3 -14 -10.5t-19 -14.5t-19.5 -12.5t-14.5 -5.5q-14 0 -24 10t-10 24q0 6 9 17.5t23 25.5t31.5 28.5t33.5 26.5t29.5 19.5t19.5 7.5q17 0 26.5 -11.5t9.5 -28.5q0 -6 -5 -44.5
t-13 -92t-17 -115t-17.5 -114.5t-14.5 -88.5t-7 -38.5q-4 -10 -13 -19.5t-21 -9.5q-14 0 -24.5 11.5t-10.5 25.5q0 36 8.5 71.5t13.5 70.5zM575 34q10 0 20.5 2t20.5 3q35 17 58.5 45t23.5 70q0 12 -3.5 23.5t-6.5 22.5l-15 19q-9 2 -14 6t-10.5 7.5t-14 6t-24.5 2.5
q-60 0 -92.5 -35.5t-32.5 -93.5q0 -15 8.5 -29.5t22 -25t29.5 -17t30 -6.5zM628 309q14 0 26.5 8t21.5 20.5t14 27.5t5 28q0 27 -16 53q-4 2 -7 4t-6 5l-24 6q-34 -5 -59.5 -27.5t-25.5 -59.5q0 -29 14 -50l13 -8q11 -2 22 -4.5t22 -2.5z" />
    <glyph glyph-name="threeeighths" unicode="&#x33;&#x2f;&#x38;" horiz-adv-x="908" 
d="M869 395q0 -33 -14 -63.5t-37 -54.5q23 -18 37.5 -48.5t14.5 -59.5q0 -44 -12.5 -81t-36.5 -64t-59.5 -42t-81.5 -15q-31 0 -59.5 12t-50 33t-34.5 48.5t-13 58.5q0 115 100 166q-27 31 -27 73q0 33 10 64t29.5 54t47 37t63.5 14q28 0 51 -10.5t39 -28.5t24.5 -42
t8.5 -51zM694 815q1 1 2 3.5t3 2.5q5 5 12.5 9.5t15.5 4.5q16 0 27 -10t11 -27q0 -12 -17 -44.5t-46 -79.5t-67 -104t-78.5 -117t-82 -120t-77 -112t-63.5 -93t-42 -64v1l-15 -29h1q-4 -9 -9.5 -20.5t-13 -22.5t-17 -18.5t-20.5 -7.5q-17 0 -27.5 10.5t-10.5 28.5q0 4 2 12
q2 9 14.5 31.5t32 54.5t44.5 70.5t52 78.5t53.5 79.5t49.5 72.5t40.5 58t25.5 37q44 63 87.5 126t81.5 129q8 14 15 31.5t17 29.5zM186 569q0 5 14 26t31.5 46t34 49t22.5 36l-113 3q-2 -10 -6 -23t-10.5 -24.5t-16 -19.5t-21.5 -8q-11 0 -20.5 8t-9.5 19q0 19 7 43.5
t16 41.5q1 10 10 20t20 10l195 -3q15 0 25 -10t10 -25q0 -7 -14.5 -30.5t-33 -50.5t-35.5 -51t-23 -31q45 -13 69 -50t24 -82q0 -43 -17.5 -83t-46.5 -71t-68.5 -49.5t-82.5 -18.5q-35 0 -59 13t-38 34.5t-20 49.5t-6 59q0 14 11.5 25t25.5 11q15 0 21 -9.5t8.5 -23t3.5 -30
t6.5 -30t17.5 -23t36 -9.5q31 0 56.5 13t43.5 34.5t28 49t10 56.5q0 36 -16.5 50t-36 20t-36 12t-16.5 26zM681 34q10 0 20.5 2t20.5 3q35 17 58.5 45t23.5 70q0 12 -3.5 23.5t-6.5 22.5l-15 19q-9 2 -14 6t-10.5 7.5t-14 6t-24.5 2.5q-60 0 -92.5 -35.5t-32.5 -93.5
q0 -15 8.5 -29.5t22 -25t29.5 -17t30 -6.5zM734 309q14 0 26.5 8t21.5 20.5t14 27.5t5 28q0 27 -16 53q-4 2 -7 4t-6 5l-24 6q-34 -5 -59.5 -27.5t-25.5 -59.5q0 -29 14 -50l13 -8q11 -2 22 -4.5t22 -2.5z" />
    <glyph glyph-name="fiveeighths" unicode="&#x35;&#x2f;&#x38;" horiz-adv-x="908" 
d="M869 395q0 -33 -14 -63.5t-37 -54.5q23 -18 37.5 -48.5t14.5 -59.5q0 -44 -12.5 -81t-36.5 -64t-59.5 -42t-81.5 -15q-31 0 -59.5 12t-50 33t-34.5 48.5t-13 58.5q0 115 100 166q-27 31 -27 73q0 33 10 64t29.5 54t47 37t63.5 14q28 0 51 -10.5t39 -28.5t24.5 -42
t8.5 -51zM694 815q1 1 2 3.5t3 2.5q5 5 12.5 9.5t15.5 4.5q16 0 27 -10t11 -27q0 -12 -17 -44.5t-46 -79.5t-67 -104t-78.5 -117t-82 -120t-77 -112t-63.5 -93t-42 -64v1l-15 -29h1q-4 -9 -9.5 -20.5t-13 -22.5t-17 -18.5t-20.5 -7.5q-17 0 -27.5 10.5t-10.5 28.5q0 4 2 12
q2 9 14.5 31.5t32 54.5t44.5 70.5t52 78.5t53.5 79.5t49.5 72.5t40.5 58t25.5 37q44 63 87.5 126t81.5 129q8 14 15 31.5t17 29.5zM263 777q13 0 25 4.5t22.5 10.5t19.5 10.5t16 4.5q14 0 23.5 -9t9.5 -23t-14 -25.5t-32.5 -20t-38 -13.5t-30.5 -5q-31 0 -59 14l-30 -113
q14 5 29 8.5t31 3.5q34 0 57.5 -12.5t38 -33.5t21 -48.5t6.5 -57.5q0 -39 -13.5 -78.5t-38.5 -72t-60 -52.5t-78 -20q-17 0 -38 9.5t-39 24.5t-30.5 33.5t-12.5 36.5q0 14 9.5 23t23.5 9q15 0 24.5 -11.5t16.5 -22.5v1q8 -11 18 -22.5t26 -11.5q30 0 53.5 13.5t40 34.5
t25 48t8.5 54q0 42 -21 77q-16 10 -37 10q-17 0 -33 -6.5t-30.5 -14t-27 -13.5t-22.5 -6q-16 0 -24 10.5t-8 25.5q0 2 1.5 9t4 14.5t4.5 14.5t3 10h-1q11 45 22 92t26 91q4 11 12.5 18t20.5 7q10 0 20 -5q3 -5 11 -9t17 -8t18 -6t14 -2zM681 34q10 0 20.5 2t20.5 3
q35 17 58.5 45t23.5 70q0 12 -3.5 23.5t-6.5 22.5l-15 19q-9 2 -14 6t-10.5 7.5t-14 6t-24.5 2.5q-60 0 -92.5 -35.5t-32.5 -93.5q0 -15 8.5 -29.5t22 -25t29.5 -17t30 -6.5zM734 309q14 0 26.5 8t21.5 20.5t14 27.5t5 28q0 27 -16 53q-4 2 -7 4t-6 5l-24 6
q-34 -5 -59.5 -27.5t-25.5 -59.5q0 -29 14 -50l13 -8q11 -2 22 -4.5t22 -2.5z" />
    <glyph glyph-name="seveneighths" unicode="&#x37;&#x2f;&#x38;" horiz-adv-x="908" 
d="M869 395q0 -33 -14 -63.5t-37 -54.5q23 -18 37.5 -48.5t14.5 -59.5q0 -44 -12.5 -81t-36.5 -64t-59.5 -42t-81.5 -15q-31 0 -59.5 12t-50 33t-34.5 48.5t-13 58.5q0 115 100 166q-27 31 -27 73q0 33 10 64t29.5 54t47 37t63.5 14q28 0 51 -10.5t39 -28.5t24.5 -42
t8.5 -51zM694 815q1 1 2 3.5t3 2.5q5 5 12.5 9.5t15.5 4.5q16 0 27 -10t11 -27q0 -12 -17 -44.5t-46 -79.5t-67 -104t-78.5 -117t-82 -120t-77 -112t-63.5 -93t-42 -64v1l-15 -29h1q-4 -9 -9.5 -20.5t-13 -22.5t-17 -18.5t-20.5 -7.5q-17 0 -27.5 10.5t-10.5 28.5q0 4 2 12
q2 9 14.5 31.5t32 54.5t44.5 70.5t52 78.5t53.5 79.5t49.5 72.5t40.5 58t25.5 37q44 63 87.5 126t81.5 129q8 14 15 31.5t17 29.5zM116 665q-11 0 -20.5 8t-9.5 19q0 19 7 43.5t16 41.5q1 10 10 20t20 10h223q15 0 25 -10t10 -25q0 -4 -6.5 -19t-16 -37t-21.5 -46.5
t-22.5 -47.5t-19 -40.5t-11.5 -23.5q17 -1 33 -6.5t16 -27.5q0 -14 -9 -22t-22 -11.5t-27 -4t-24 -0.5q-24 -54 -48 -110t-53 -108q-10 -20 -31 -20q-14 0 -23.5 9.5t-9.5 23.5q0 4 6 19t15 36t20 45t21 45.5t18 38t11 23.5q-9 0 -19.5 1t-18.5 4.5t-13.5 11t-5.5 19.5
q0 15 10 23t24 11.5t30 3t27 -1.5q20 45 41.5 90t42.5 90h-141q-2 -10 -6 -23t-10.5 -24.5t-16 -19.5t-21.5 -8zM681 34q10 0 20.5 2t20.5 3q35 17 58.5 45t23.5 70q0 12 -3.5 23.5t-6.5 22.5l-15 19q-9 2 -14 6t-10.5 7.5t-14 6t-24.5 2.5q-60 0 -92.5 -35.5t-32.5 -93.5
q0 -15 8.5 -29.5t22 -25t29.5 -17t30 -6.5zM734 309q14 0 26.5 8t21.5 20.5t14 27.5t5 28q0 27 -16 53q-4 2 -7 4t-6 5l-24 6q-34 -5 -59.5 -27.5t-25.5 -59.5q0 -29 14 -50l13 -8q11 -2 22 -4.5t22 -2.5z" />
    <glyph glyph-name="uni2160" unicode="I&#x23;" horiz-adv-x="255" 
d="M329 743q-2 -19 -9.5 -57t-17.5 -88t-22.5 -108t-24.5 -117t-23.5 -114.5t-20 -101t-13 -76.5t-3.5 -40q12 0 35 1t46.5 -1t40.5 -9.5t17 -24.5q0 -15 -12.5 -22.5t-30 -11.5t-35 -4.5t-27.5 -0.5q-57 0 -114.5 3t-115.5 3q-12 0 -20.5 11t-8.5 22q0 19 19.5 27t45.5 10
t51.5 0.5t37.5 -1.5q14 108 38 213t47 211q15 69 25.5 139t24.5 139q-13 1 -36.5 0t-47 1.5t-41 10t-17.5 25.5q0 13 9 20.5t21.5 11.5t26.5 4.5t23 0.5q63 0 125.5 -2.5t125.5 -2.5q13 0 23 -9.5t10 -22.5q0 -18 -19.5 -26.5t-45 -11.5t-50.5 -2t-37 1z" />
    <glyph glyph-name="uni2164" unicode="V&#x23;" horiz-adv-x="412" 
d="M-42 7q0 17 6 27t25 10q34 0 68 -1.5t68 -1.5q13 0 25 1.5t25 0.5q-11 87 -15.5 175.5t-7.5 177t-7 176.5t-14 176q-10 0 -24 -0.5t-26.5 2t-21 10t-8.5 22.5q0 12 8.5 19t20 10t24 3.5t20.5 0.5q83 0 165.5 -1t165.5 -1q28 0 58.5 2t57.5 -1q13 -2 23 -10t10 -22
q0 -12 -8 -19.5t-19.5 -11.5t-23.5 -5.5t-21 -2.5q-27 -91 -64 -178t-77 -173t-77.5 -173t-64.5 -177l84 -2t84 -1q13 0 23 -9.5t10 -22.5q0 -15 -12.5 -22.5t-30 -11.5t-35 -4.5t-27.5 -0.5q-90 0 -178.5 1t-179.5 5q-12 1 -20.5 11.5t-8.5 21.5zM203 745q16 -135 19 -271
t11 -272q27 67 57 134.5t60 134.5t58 135t50 137z" />
    <glyph glyph-name="uni2169" unicode="X&#x23;" horiz-adv-x="502" 
d="M64 -27q-12 0 -34 -1t-44.5 0.5t-39 9t-16.5 25.5q0 15 11.5 23t27 11t32 2.5t26.5 -0.5q52 92 110.5 179.5t118.5 175.5q-34 89 -71.5 175t-70.5 175q-11 0 -26.5 -0.5t-29.5 1.5t-24.5 9t-10.5 24q0 12 8 19t19 10t23 4t21 1q133 0 264.5 -1t264.5 -1q13 0 23 -9.5
t10 -22.5t-10 -20.5t-23.5 -11.5t-28 -5.5t-23.5 -1.5q-54 -93 -115 -180t-123 -175q34 -89 68.5 -176t74.5 -173q10 0 24.5 1t28.5 -1t24 -9t10 -23q0 -15 -12.5 -22.5t-30 -11.5t-35 -4.5t-27.5 -0.5q-97 0 -194 2t-195 3l-1 -2zM185 747q34 -68 62.5 -138t55.5 -141
q47 69 94 136.5t92 138.5q-76 0 -152 1.5t-152 2.5zM399 40q-34 68 -61 138t-53 141q-48 -67 -91 -136.5t-85 -139.5z" />
    <glyph glyph-name="uni216C" unicode="L&#x23;" horiz-adv-x="576" 
d="M335 738q-10 -79 -26.5 -157t-34.5 -156t-36.5 -156t-31.5 -156q58 3 116.5 0t116.5 -4q2 10 5.5 30.5t8.5 41.5t13.5 36.5t21.5 15.5q23 0 29 -16.5t6 -35.5q0 -25 -5 -49.5t-10 -48.5l1 -6q0 -11 -6 -17.5t-15 -11t-19 -6.5t-18 -3q12 0 38.5 2.5t53.5 1t47 -9
t20 -26.5q0 -15 -12.5 -22.5t-30 -11.5t-35 -4.5t-27.5 -0.5h-308q-50 0 -99 3t-99 3q-12 0 -20.5 11t-8.5 22q0 19 19.5 27t45.5 10t51.5 0.5t37.5 -1.5q11 87 28 174.5t36.5 174.5t39.5 174t37 174q-13 1 -36.5 0t-47 1.5t-41 10t-17.5 25.5q0 13 9 20.5t21.5 11.5
t26.5 4.5t23 0.5q132 0 263 -2.5t264 -2.5q13 0 23 -9.5t10 -22.5q0 -18 -17.5 -26t-40.5 -11t-45.5 -2.5t-33.5 0.5h-291z" />
    <glyph glyph-name="uni216D" unicode="C&#x23;" horiz-adv-x="555" 
d="M408 -32q-114 0 -226 3t-226 3q-12 0 -20.5 11t-8.5 22q0 13 9 20.5t21.5 11.5t26.5 4.5t23 0.5h66t67 -1q-37 42 -52.5 101.5t-15.5 125.5q0 54 10 119.5t31.5 130.5t54.5 123.5t80 99.5q-35 1 -71 1.5t-72 0.5q-12 0 -20.5 11t-8.5 22q0 13 9 20.5t21.5 11.5t26.5 4.5
t23 0.5l573 1q13 0 23 -9.5t10 -22.5q0 -12 -12.5 -20t-31.5 -13t-43 -7.5t-46.5 -3.5t-42 -1h-29.5q18 -19 29 -41.5t11 -45.5q0 -13 -7 -23t-21 -10q-18 0 -28 19t-23 41.5t-34 41.5t-59 19q-52 0 -94 -24t-74 -63t-54.5 -89t-37 -103t-21.5 -104t-7 -92q0 -39 7 -78.5
t24.5 -71.5t48 -52t77.5 -20q31 0 53.5 10.5t38.5 23t28 23t22 10.5q15 0 29 -10.5t14 -26.5t-15 -33h109q13 0 23 -9.5t10 -22.5q0 -18 -26 -26.5t-60 -11.5t-66.5 -2.5t-45.5 0.5z" />
    <glyph glyph-name="uni216E" unicode="D&#x23;" horiz-adv-x="511" 
d="M-44 7q0 18 15.5 25.5t36.5 10t42 1.5t32 -1q11 88 29 176t38 175t39 174.5t32 175.5q-11 0 -30.5 -1.5t-38 0.5t-32.5 9.5t-14 25.5q0 13 9 20.5t21.5 11.5t26.5 4.5t23 0.5q127 0 252.5 -2.5t252.5 -2.5q13 0 23 -9.5t10 -22.5t-12 -21t-30.5 -12.5t-41.5 -6
t-44.5 -1.5t-39.5 1t-26 1q37 -38 59.5 -87.5t22.5 -103.5q0 -68 -10.5 -140.5t-34.5 -140.5t-64 -127t-99 -100q12 0 40 1.5t57.5 0t51.5 -9t22 -25.5q0 -15 -12.5 -23t-30 -11.5t-35 -4t-27.5 -0.5q-121 0 -241.5 3t-242.5 3q-12 0 -20.5 11t-8.5 22zM153 42h55l1 1
q54 3 100 27.5t83.5 63t66 88t47.5 102.5t29 106.5t10 99.5q0 57 -17 97.5t-48.5 66t-75.5 37.5t-97 12h-16q-12 -89 -30.5 -176t-38 -174.5t-38 -175t-31.5 -175.5z" />
    <glyph glyph-name="uni216F" unicode="M&#x23;" horiz-adv-x="622" 
d="M359 281q-12 0 -20.5 10t-12.5 20q-15 37 -24.5 77t-18 81t-17.5 81.5t-23 78.5q-3 -17 -13.5 -64.5t-24 -110t-28 -132t-27 -129.5t-20 -102t-6.5 -50q12 0 35 1t46.5 -1t40.5 -9.5t17 -24.5q0 -15 -12.5 -22.5t-30 -11.5t-35 -4.5t-27.5 -0.5q-57 0 -114.5 3t-115.5 3
q-12 0 -20.5 11t-8.5 22q0 19 19.5 27t45.5 10t51.5 0.5t37.5 -1.5q11 88 28.5 174.5t37 173.5t38.5 173.5t33 174.5q-12 1 -35 0t-45 1.5t-38.5 10t-16.5 25.5q0 13 9 20.5t21.5 11.5t26.5 4.5t23 0.5q63 0 126 -0.5t125 -4.5q13 -1 23 -9.5t10 -22.5q0 -21 -16 -29.5
t-38.5 -11t-46 -0.5t-37.5 2q29 -81 47.5 -164t42.5 -165q57 82 111 165t102 171q-12 0 -33.5 -0.5t-42.5 1.5t-36.5 10t-15.5 25q0 13 9 20.5t21.5 11.5t26.5 4.5t23 0.5q63 0 125.5 -2.5t125.5 -2.5q13 0 23 -9.5t10 -22.5q0 -21 -18.5 -30t-43.5 -11t-51 0t-41 2
q-3 -25 -15 -83t-28 -131.5t-33.5 -154t-31.5 -150t-23 -119t-7 -62.5q12 0 35 1t46.5 -1t40.5 -9.5t17 -24.5q0 -15 -12.5 -22.5t-30 -11.5t-35 -4.5t-27.5 -0.5q-57 0 -114.5 3t-115.5 3q-12 0 -20.5 11t-8.5 22q0 19 19.5 27t45.5 10t51.5 0.5t37.5 -1.5q8 66 20.5 131
t27.5 129.5l30 129t27 129.5q-40 -67 -85 -132t-89 -130q-5 -7 -12.5 -13t-16.5 -6z" />
    <glyph glyph-name="S_t" unicode="St" horiz-adv-x="994" 
d="M952 396q-15 -1 -29.5 -2t-29.5 -1q-9 0 -21 1t-22.5 4.5t-18 10.5t-7.5 19q0 20 20.5 27.5t47 9t53 -1t38.5 -2.5q6 13 14 44t17.5 68.5t20 78t22.5 74t24.5 55t25.5 21.5t22.5 -9t9.5 -22q0 -9 -5 -32t-13 -53t-18 -64.5t-19 -65.5t-17 -56.5t-12 -38.5l26 2t26 1
q9 0 21 -1t23 -4.5t18.5 -10.5t7.5 -20q0 -19 -18 -26.5t-41.5 -9t-47 0.5t-35.5 3q-10 -34 -25.5 -78.5t-30.5 -91t-26 -90t-11 -76.5q0 -8 2 -14t12 -6q18 0 43 16.5t49.5 36.5t44 36.5t25.5 16.5q28 0 28 -28q0 -12 -12 -26.5t-31 -30.5t-42.5 -31t-46 -26.5t-41.5 -19
t-30 -7.5q-19 0 -31 7t-19.5 18t-10.5 26t-3 31q0 36 9 70t20 68q-13 -26 -51 -53t-90 -52t-112.5 -47.5t-118 -39.5t-106.5 -26.5t-77 -9.5q-13 0 -27.5 1.5t-25.5 7.5q-5 -1 -11 -1.5t-11 -0.5q-24 0 -53.5 9t-55 25t-42.5 38.5t-17 50.5q0 13 8.5 23t22.5 10
q12 0 23 -14.5t26 -32.5t36.5 -32.5t54.5 -14.5q29 0 54.5 24t47.5 61.5t40.5 84t33.5 92t25.5 84t17.5 61.5q-11 2 -36 8.5t-55 16t-62.5 21.5t-59.5 25t-44 26t-17 25q0 13 9 22t22 9q9 0 43 -13t76 -29t82.5 -30.5t61.5 -18.5q15 45 35 98t50 98t72 75t100 30
q129 0 129 -131q0 -57 -34.5 -102.5t-86 -77t-110.5 -48t-108 -13.5q-14 -48 -29 -103t-34 -109t-44.5 -103.5t-61.5 -86.5q41 6 98.5 21t119 38t122 53.5t108 69t77 83.5t29.5 97zM776 743q-42 0 -72.5 -26t-53 -63.5t-38 -79.5t-26.5 -74q39 1 83.5 14t82.5 37.5t63 59.5
t25 80q0 32 -18 42t-46 10z" />
    <glyph glyph-name="CATFONTS" unicode="Catfonts&#x23;" horiz-adv-x="668" 
d="M32 46v710h604v-710h-604zM55 733v-412h558v412h-558zM423 674l52 -21l-4 -12q34 -16 64.5 -36.5t61.5 -41.5v-1q0 -9 -5 -18.5t-5 -20.5q-5 -12 -6.5 -25.5t-1.5 -26.5l-1 -1h-30l-1 -4l-21 -14l5 -10l15 -1l1 -1l2 -5l12 2l16 -7v-1l-1 -7l-4 -4q-19 -3 -37.5 -6.5
t-38.5 -3.5q-31 0 -62 1.5t-61 8.5q-11 -3 -23 -3h-23q-8 0 -15.5 0.5t-13.5 5.5q-9 -4 -29 -5.5t-42 -2t-42.5 -0.5h-31.5q-6 0 -17.5 -0.5t-24.5 -0.5t-24 0.5t-16 2.5l-3 5v1l2 7l1 1l114 20l6 8q-4 8 -4 20q0 17 8.5 30t20 25t22.5 23.5t17 26.5l32 18q2 6 6 17t9 22.5
t11 20.5t12 12l1 -1l3 -8v1l4 4l2 -1q3 -11 1 -25l22 -12l5 -12l7 -7v-11l-1 -10l-3 -4q-8 -3 -16.5 -3.5t-16.5 -0.5v-37.5t-7 -36.5v-5q7 -1 22.5 -3.5t20.5 -7.5l1 -13l-5 -8q-9 2 -18 5.5t-18 7.5l-5 -1l-1 -30l8 -5l2 -6q17 0 29 -4l1 -1l4 -9l5 -4l16 -1l11 25
q5 1 12 1.5t9 6.5l-5 13l-38 5l-1 1q6 23 4.5 47t-1.5 48q0 15 5 28t12 25.5t14.5 25t12.5 25.5zM353 480l9 -2l-1 10q-13 2 -25 6l-24 8l-1 1q1 7 2.5 19t3.5 24t5 23.5t6 17.5l1 1l27 2l5 3q2 2 2 5.5v5.5l-1 5l-6 6l-3 -4h-1l-14 7v2l15 6l-2 3l-17 4l-7 14l-2 -1l-1 -12
h-2q-3 12 -3 23q-9 -14 -17 -30t-10 -32l-32 -19v1q-10 -23 -21.5 -33t-21 -20t-15.5 -25t-6 -46l-6 -9q-28 -7 -56 -11t-56 -9l1 -2q17 2 32 -3q19 6 40 8t42 2t42.5 -1.5t41.5 -1.5l3 7h2l4 -7h5l5 2q-4 7 -8.5 9.5t-12.5 4.5l-12 -3v2q9 5 17 11t13 16l-4 12v-1
q-5 5 -11 9.5t-12 9.5q1 0 6.5 -1.5t7.5 -1.5q1 6 2.5 11.5t2.5 11.5h2v-8q0 -10 3 -19q16 -2 32 -1.5t31 -7.5v-2zM468 635l-38 -152q35 0 70.5 -2.5t70.5 -4.5q5 20 8 40.5t11 40.5q-31 20 -61.5 38.5t-60.5 39.5zM340 268l-70 -185h25l21 57h76l20 -57h28l-73 185h-27z
M252 149q-5 -20 -20 -32.5t-36 -12.5q-17 0 -27.5 6.5t-17.5 17.5t-9.5 24.5t-2.5 27.5q0 11 4 24t11 24t17 18.5t23 7.5q19 0 33.5 -11.5t22.5 -28.5l23 6q-11 26 -31 40t-49 14q-18 0 -32.5 -8.5t-24.5 -22t-15.5 -30.5t-5.5 -33q0 -42 17 -69.5t64 -27.5q29 0 50.5 15.5
t28.5 44.5zM425 666q-14 -46 -22.5 -92.5t-19.5 -92.5l39 -5q12 43 23.5 86t21.5 87zM471 244v-161h25v161h62v24h-147v-24h60zM323 158l29 91l34 -91h-63zM399 429q31 -3 62 -4t62 -1h19l-4 12q-17 1 -35 2t-35 1h-62zM423 467q9 -3 18.5 -5t19.5 -2h60l12 10l-48 4t-48 2
l-10 -1zM428 448q10 -4 20 -4.5t20 -0.5l51 1l-5 7l-8 2t-8 1h-68zM411 641q-19 -27 -21.5 -56.5t-4.5 -61.5zM446 420q-8 0 -17 -0.5t-17 -1.5q16 -3 32 -3.5t32 -0.5q11 0 23 0.5t23 2.5q-11 3 -22 3h-54zM316 450v16.5t-1 16.5h-12v-4q0 -7 3 -21t8 -19l12 2l-2 4z
M337 436q-6 0 -12 -1t-12 -1l-6 -8l1 -4h5l44 1v4l-15 2zM461 575l-1 1q1 6 2 11.5t3 11.5l1 1h12l1 -1l-7 -24l-1 -1zM301 432l4 4q-5 11 -5 23t-4 23l-4 2l5 -14l-2 -16l-10 -9l13 -7zM458 570l1 1l9 -1l1 -1l-4 -23l-1 -1l-10 2l-1 1zM317 507l4 -3l2 40zM456 552h4l4 13
l-3 1zM352 617l1 2l-1 3l-8 -3zM468 581l4 14h-1l-5 -14h2zM557 426h-3v-2z" />
    <glyph glyph-name="bad" unicode="&#x3a;&#x2d;&#x28;" horiz-adv-x="684" 
d="M62 333q0 -57 21.5 -106.5t59 -87t87 -59t106.5 -21.5q56 0 106 21.5t87.5 59t59 87.5t21.5 106q0 57 -21.5 107t-58.5 87.5t-87 59t-107 21.5t-107 -21.5t-87 -58.5t-58.5 -87.5t-21.5 -107.5zM39 333q0 61 23.5 115.5t63.5 95t94 64t116 23.5q61 0 115 -23.5t94.5 -64
t64 -95t23.5 -115.5q0 -62 -23.5 -115.5t-63.5 -94t-94.5 -63.5t-115.5 -23q-62 0 -116 23t-94 63.5t-63.5 94t-23.5 115.5zM201 151q0 26 14.5 42.5t36.5 26t46 13t44 3.5q19 0 43.5 -4t46 -14t36 -26t14.5 -41q0 -6 -3 -6q-1 0 -14 6t-33 13.5t-44 13.5t-46 6t-44.5 -6
t-41.5 -13t-32.5 -13t-17.5 -6q-5 0 -5 5zM373 419q0 22 15 38t38 16t38.5 -15.5t15.5 -38.5q0 -22 -16 -37.5t-38 -15.5t-37.5 15.5t-15.5 37.5zM180 420q0 23 15.5 38.5t38.5 15.5t38.5 -15.5t15.5 -38.5q0 -22 -16 -37.5t-38 -15.5t-38 15.5t-16 37.5z" />
    <glyph glyph-name="elevensixteenth" unicode="&#x31;&#x31;&#x2f;&#x31;&#x36;" horiz-adv-x="1237" 
d="M1079 524q24 0 43.5 -9.5t33.5 -25.5t22 -37t8 -43q0 -14 -10 -24t-24 -10q-17 0 -24 9.5t-11 23t-8.5 26.5t-14.5 21l-14 3q-21 -5 -38.5 -19t-31.5 -32.5t-24.5 -39.5t-17.5 -39q17 10 36 15.5t39 5.5q33 0 56.5 -14.5t38.5 -37t22.5 -51.5t7.5 -57q0 -42 -10 -81.5
t-31.5 -71t-55.5 -50.5t-81 -19q-35 0 -58.5 20t-37.5 49.5t-19.5 63.5t-5.5 62t6 65.5t17.5 78t29 79.5t40.5 70t52.5 50t64.5 19zM825 829q11 0 24 -4.5t13 -19.5q0 -16 -17 -51t-45.5 -81.5t-65.5 -102.5t-77.5 -115t-81.5 -117t-77 -109.5t-64 -93.5t-43 -68
q-11 -19 -20 -41.5t-24 -39.5q-4 -5 -10 -9t-13 -4q-16 0 -26 7.5t-10 25.5q0 10 15 38.5t40 69t58 90.5t68 102t70.5 103t66 95t53.5 77.5t34 49.5t26 42.5t31 54t29.5 51t21.5 33.5q3 4 10.5 10.5t13.5 6.5zM137 698q-5 -3 -14 -10.5t-19 -14.5t-19.5 -12.5t-14.5 -5.5
q-14 0 -24 10t-10 24q0 6 9 17.5t23 25.5t31.5 28.5t33.5 26.5t29.5 19.5t19.5 7.5q17 0 26.5 -11.5t9.5 -28.5q0 -6 -5 -44.5t-13 -92t-17 -115t-17.5 -114.5t-14.5 -88.5t-7 -38.5q-4 -10 -13 -19.5t-21 -9.5q-14 0 -24.5 11.5t-10.5 25.5q0 36 8.5 71.5t13.5 70.5z
M361 698q-5 -3 -14 -10.5t-19 -14.5t-19.5 -12.5t-14.5 -5.5q-14 0 -24 10t-10 24q0 6 9 17.5t23 25.5t31.5 28.5t33.5 26.5t29.5 19.5t19.5 7.5q17 0 26.5 -11.5t9.5 -28.5q0 -6 -5 -44.5t-13 -92t-17 -115t-17.5 -114.5t-14.5 -88.5t-7 -38.5q-4 -10 -13 -19.5t-21 -9.5
q-14 0 -24.5 11.5t-10.5 25.5q0 36 8.5 71.5t13.5 70.5zM785 410q-5 -3 -14 -10.5t-19 -14.5t-19.5 -12.5t-14.5 -5.5q-14 0 -24 10t-10 24q0 6 9 17.5t23 25.5t31.5 28.5t33.5 26.5t29.5 19.5t19.5 7.5q17 0 26.5 -11.5t9.5 -28.5q0 -6 -5 -44.5t-13 -92t-17 -115
t-17.5 -114.5t-14.5 -88.5t-7 -38.5q-4 -10 -13 -19.5t-21 -9.5q-14 0 -24.5 11.5t-10.5 25.5q0 36 8.5 71.5t13.5 70.5zM1044 280q-20 0 -35.5 -8t-28.5 -20.5t-23 -28.5t-20 -31q-1 -8 -1 -16v-16q0 -31 6.5 -61.5t26.5 -55.5l11 -6l-1 1q6 -2 11.5 -2h11.5q29 0 48 16
t30.5 39.5t16 50.5t4.5 50q0 13 -2.5 28.5t-9.5 28.5t-18 22t-27 9z" />
    <glyph glyph-name="fifteensixteenths" unicode="&#x31;&#x35;&#x2f;&#x31;&#x36;" horiz-adv-x="1271" 
d="M1113 524q24 0 43.5 -9.5t33.5 -25.5t22 -37t8 -43q0 -14 -10 -24t-24 -10q-17 0 -24 9.5t-11 23t-8.5 26.5t-14.5 21l-14 3q-21 -5 -38.5 -19t-31.5 -32.5t-24.5 -39.5t-17.5 -39q17 10 36 15.5t39 5.5q33 0 56.5 -14.5t38.5 -37t22.5 -51.5t7.5 -57q0 -42 -10 -81.5
t-31.5 -71t-55.5 -50.5t-81 -19q-35 0 -58.5 20t-37.5 49.5t-19.5 63.5t-5.5 62t6 65.5t17.5 78t29 79.5t40.5 70t52.5 50t64.5 19zM412 777q13 0 25 4.5t22.5 10.5t19.5 10.5t16 4.5q14 0 23.5 -9t9.5 -23t-14 -25.5t-32.5 -20t-38 -13.5t-30.5 -5q-31 0 -59 14l-30 -113
q14 5 29 8.5t31 3.5q34 0 57.5 -12.5t38 -33.5t21 -48.5t6.5 -57.5q0 -39 -13.5 -78.5t-38.5 -72t-60 -52.5t-78 -20q-17 0 -38 9.5t-39 24.5t-30.5 33.5t-12.5 36.5q0 14 9.5 23t23.5 9q15 0 24.5 -11.5t16.5 -22.5v1q8 -11 18 -22.5t26 -11.5q30 0 53.5 13.5t40 34.5
t25 48t8.5 54q0 42 -21 77q-16 10 -37 10q-17 0 -33 -6.5t-30.5 -14t-27 -13.5t-22.5 -6q-16 0 -24 10.5t-8 25.5q0 2 1.5 9t4 14.5t4.5 14.5t3 10h-1q11 45 22 92t26 91q4 11 12.5 18t20.5 7q10 0 20 -5q3 -5 11 -9t17 -8t18 -6t14 -2zM859 829q11 0 24 -4.5t13 -19.5
q0 -16 -17 -51t-45.5 -81.5t-65.5 -102.5t-77.5 -115t-81.5 -117t-77 -109.5t-64 -93.5t-43 -68q-11 -19 -20 -41.5t-24 -39.5q-4 -5 -10 -9t-13 -4q-16 0 -26 7.5t-10 25.5q0 10 15 38.5t40 69t58 90.5t68 102t70.5 103t66 95t53.5 77.5t34 49.5t26 42.5t31 54t29.5 51
t21.5 33.5q3 4 10.5 10.5t13.5 6.5zM819 410q-5 -3 -14 -10.5t-19 -14.5t-19.5 -12.5t-14.5 -5.5q-14 0 -24 10t-10 24q0 6 9 17.5t23 25.5t31.5 28.5t33.5 26.5t29.5 19.5t19.5 7.5q17 0 26.5 -11.5t9.5 -28.5q0 -6 -5 -44.5t-13 -92t-17 -115t-17.5 -114.5t-14.5 -88.5
t-7 -38.5q-4 -10 -13 -19.5t-21 -9.5q-14 0 -24.5 11.5t-10.5 25.5q0 36 8.5 71.5t13.5 70.5zM124 698q-5 -3 -14 -10.5t-19 -14.5t-19.5 -12.5t-14.5 -5.5q-14 0 -24 10t-10 24q0 6 9 17.5t23 25.5t31.5 28.5t33.5 26.5t29.5 19.5t19.5 7.5q17 0 26.5 -11.5t9.5 -28.5
q0 -6 -5 -44.5t-13 -92t-17 -115t-17.5 -114.5t-14.5 -88.5t-7 -38.5q-4 -10 -13 -19.5t-21 -9.5q-14 0 -24.5 11.5t-10.5 25.5q0 36 8.5 71.5t13.5 70.5zM1078 280q-20 0 -35.5 -8t-28.5 -20.5t-23 -28.5t-20 -31q-1 -8 -1 -16v-16q0 -31 6.5 -61.5t26.5 -55.5l11 -6l-1 1
q6 -2 11.5 -2h11.5q29 0 48 16t30.5 39.5t16 50.5t4.5 50q0 13 -2.5 28.5t-9.5 28.5t-18 22t-27 9z" />
    <glyph glyph-name="fiveesixteenths" unicode="&#x35;&#x2f;&#x31;&#x36;" horiz-adv-x="1140" 
d="M982 524q24 0 43.5 -9.5t33.5 -25.5t22 -37t8 -43q0 -14 -10 -24t-24 -10q-17 0 -24 9.5t-11 23t-8.5 26.5t-14.5 21l-14 3q-21 -5 -38.5 -19t-31.5 -32.5t-24.5 -39.5t-17.5 -39q17 10 36 15.5t39 5.5q33 0 56.5 -14.5t38.5 -37t22.5 -51.5t7.5 -57q0 -42 -10 -81.5
t-31.5 -71t-55.5 -50.5t-81 -19q-35 0 -58.5 20t-37.5 49.5t-19.5 63.5t-5.5 62t6 65.5t17.5 78t29 79.5t40.5 70t52.5 50t64.5 19zM281 777q13 0 25 4.5t22.5 10.5t19.5 10.5t16 4.5q14 0 23.5 -9t9.5 -23t-14 -25.5t-32.5 -20t-38 -13.5t-30.5 -5q-31 0 -59 14l-30 -113
q14 5 29 8.5t31 3.5q34 0 57.5 -12.5t38 -33.5t21 -48.5t6.5 -57.5q0 -39 -13.5 -78.5t-38.5 -72t-60 -52.5t-78 -20q-17 0 -38 9.5t-39 24.5t-30.5 33.5t-12.5 36.5q0 14 9.5 23t23.5 9q15 0 24.5 -11.5t16.5 -22.5v1q8 -11 18 -22.5t26 -11.5q30 0 53.5 13.5t40 34.5
t25 48t8.5 54q0 42 -21 77q-16 10 -37 10q-17 0 -33 -6.5t-30.5 -14t-27 -13.5t-22.5 -6q-16 0 -24 10.5t-8 25.5q0 2 1.5 9t4 14.5t4.5 14.5t3 10h-1q11 45 22 92t26 91q4 11 12.5 18t20.5 7q10 0 20 -5q3 -5 11 -9t17 -8t18 -6t14 -2zM728 829q11 0 24 -4.5t13 -19.5
q0 -16 -17 -51t-45.5 -81.5t-65.5 -102.5t-77.5 -115t-81.5 -117t-77 -109.5t-64 -93.5t-43 -68q-11 -19 -20 -41.5t-24 -39.5q-4 -5 -10 -9t-13 -4q-16 0 -26 7.5t-10 25.5q0 10 15 38.5t40 69t58 90.5t68 102t70.5 103t66 95t53.5 77.5t34 49.5t26 42.5t31 54t29.5 51
t21.5 33.5q3 4 10.5 10.5t13.5 6.5zM688 410q-5 -3 -14 -10.5t-19 -14.5t-19.5 -12.5t-14.5 -5.5q-14 0 -24 10t-10 24q0 6 9 17.5t23 25.5t31.5 28.5t33.5 26.5t29.5 19.5t19.5 7.5q17 0 26.5 -11.5t9.5 -28.5q0 -6 -5 -44.5t-13 -92t-17 -115t-17.5 -114.5t-14.5 -88.5
t-7 -38.5q-4 -10 -13 -19.5t-21 -9.5q-14 0 -24.5 11.5t-10.5 25.5q0 36 8.5 71.5t13.5 70.5zM947 280q-20 0 -35.5 -8t-28.5 -20.5t-23 -28.5t-20 -31q-1 -8 -1 -16v-16q0 -31 6.5 -61.5t26.5 -55.5l11 -6l-1 1q6 -2 11.5 -2h11.5q29 0 48 16t30.5 39.5t16 50.5t4.5 50
q0 13 -2.5 28.5t-9.5 28.5t-18 22t-27 9z" />
    <glyph glyph-name="good" unicode="&#x3a;&#x2d;&#x29;" horiz-adv-x="684" 
d="M62 333q0 -57 21.5 -106.5t59 -87t87 -59t106.5 -21.5q56 0 106 21.5t87.5 59t59 87.5t21.5 106q0 57 -21.5 107t-58.5 87.5t-87 59t-107 21.5t-107 -21.5t-87 -58.5t-58.5 -87.5t-21.5 -107.5zM39 333q0 61 23.5 115.5t63.5 95t94 64t116 23.5q61 0 115 -23.5t94.5 -64
t64 -95t23.5 -115.5q0 -62 -23.5 -115.5t-63.5 -94t-94.5 -63.5t-115.5 -23q-62 0 -116 23t-94 63.5t-63.5 94t-23.5 115.5zM186 253q0 7 6 7q2 0 14.5 -7.5t32.5 -16.5t45 -16.5t53 -7.5q31 0 61 6.5t56 23.5q1 1 5.5 4t9.5 6.5t9 6t5 2.5q3 0 3.5 -3t0.5 -5
q0 -30 -14 -50.5t-36 -33.5t-48.5 -19t-51.5 -6q-26 0 -53 5.5t-48.5 18t-35.5 33.5t-14 52zM373 419q0 22 15 38t38 16t38.5 -15.5t15.5 -38.5q0 -22 -16 -37.5t-38 -15.5t-37.5 15.5t-15.5 37.5zM180 420q0 23 15.5 38.5t38.5 15.5t38.5 -15.5t15.5 -38.5q0 -22 -16 -37.5
t-38 -15.5t-38 15.5t-16 37.5z" />
    <glyph glyph-name="ninesixteenths" unicode="&#x39;&#x2f;&#x31;&#x36;" horiz-adv-x="1140" 
d="M61 364q0 14 9.5 25t23.5 11q13 0 20.5 -7.5t12.5 -19t8 -23.5t8 -21q5 -5 11 -8.5t13 -4.5q23 7 41 21t32 32t24 39t18 42q-17 -11 -37 -17.5t-40 -6.5q-34 0 -57.5 14t-38.5 36.5t-22 51t-7 58.5q0 36 9.5 75.5t29 72t50 53.5t73.5 21q39 0 65.5 -17t42.5 -44
t22.5 -60.5t6.5 -66.5q0 -29 -5.5 -68t-17 -80t-29 -81t-41.5 -71.5t-54 -51t-67 -19.5q-22 0 -41 10t-33 26.5t-22 37t-8 41.5zM982 524q24 0 43.5 -9.5t33.5 -25.5t22 -37t8 -43q0 -14 -10 -24t-24 -10q-17 0 -24 9.5t-11 23t-8.5 26.5t-14.5 21l-14 3q-21 -5 -38.5 -19
t-31.5 -32.5t-24.5 -39.5t-17.5 -39q17 10 36 15.5t39 5.5q33 0 56.5 -14.5t38.5 -37t22.5 -51.5t7.5 -57q0 -42 -10 -81.5t-31.5 -71t-55.5 -50.5t-81 -19q-35 0 -58.5 20t-37.5 49.5t-19.5 63.5t-5.5 62t6 65.5t17.5 78t29 79.5t40.5 70t52.5 50t64.5 19zM728 829
q11 0 24 -4.5t13 -19.5q0 -16 -17 -51t-45.5 -81.5t-65.5 -102.5t-77.5 -115t-81.5 -117t-77 -109.5t-64 -93.5t-43 -68q-11 -19 -20 -41.5t-24 -39.5q-4 -5 -10 -9t-13 -4q-16 0 -26 7.5t-10 25.5q0 10 15 38.5t40 69t58 90.5t68 102t70.5 103t66 95t53.5 77.5t34 49.5
t26 42.5t31 54t29.5 51t21.5 33.5q3 4 10.5 10.5t13.5 6.5zM688 410q-5 -3 -14 -10.5t-19 -14.5t-19.5 -12.5t-14.5 -5.5q-14 0 -24 10t-10 24q0 6 9 17.5t23 25.5t31.5 28.5t33.5 26.5t29.5 19.5t19.5 7.5q17 0 26.5 -11.5t9.5 -28.5q0 -6 -5 -44.5t-13 -92t-17 -115
t-17.5 -114.5t-14.5 -88.5t-7 -38.5q-4 -10 -13 -19.5t-21 -9.5q-14 0 -24.5 11.5t-10.5 25.5q0 36 8.5 71.5t13.5 70.5zM146 585q0 -13 2.5 -29t9.5 -29.5t17.5 -22.5t27.5 -9q20 0 36 8t29.5 20.5t23.5 28.5t18 32q1 8 1.5 15.5t0.5 15.5q0 30 -6.5 61t-26.5 55l-12 7
q-5 1 -11 1h-11q-27 0 -46 -16t-31 -39t-17 -50t-5 -49zM947 280q-20 0 -35.5 -8t-28.5 -20.5t-23 -28.5t-20 -31q-1 -8 -1 -16v-16q0 -31 6.5 -61.5t26.5 -55.5l11 -6l-1 1q6 -2 11.5 -2h11.5q29 0 48 16t30.5 39.5t16 50.5t4.5 50q0 13 -2.5 28.5t-9.5 28.5t-18 22t-27 9z
" />
    <glyph glyph-name="onesixteenth" unicode="&#x31;&#x2f;&#x31;&#x36;" horiz-adv-x="1051" 
d="M893 524q24 0 43.5 -9.5t33.5 -25.5t22 -37t8 -43q0 -14 -10 -24t-24 -10q-17 0 -24 9.5t-11 23t-8.5 26.5t-14.5 21l-14 3q-21 -5 -38.5 -19t-31.5 -32.5t-24.5 -39.5t-17.5 -39q17 10 36 15.5t39 5.5q33 0 56.5 -14.5t38.5 -37t22.5 -51.5t7.5 -57q0 -42 -10 -81.5
t-31.5 -71t-55.5 -50.5t-81 -19q-35 0 -58.5 20t-37.5 49.5t-19.5 63.5t-5.5 62t6 65.5t17.5 78t29 79.5t40.5 70t52.5 50t64.5 19zM639 829q11 0 24 -4.5t13 -19.5q0 -16 -17 -51t-45.5 -81.5t-65.5 -102.5t-77.5 -115t-81.5 -117t-77 -109.5t-64 -93.5t-43 -68
q-11 -19 -20 -41.5t-24 -39.5q-4 -5 -10 -9t-13 -4q-16 0 -26 7.5t-10 25.5q0 10 15 38.5t40 69t58 90.5t68 102t70.5 103t66 95t53.5 77.5t34 49.5t26 42.5t31 54t29.5 51t21.5 33.5q3 4 10.5 10.5t13.5 6.5zM152 698q-5 -3 -14 -10.5t-19 -14.5t-19.5 -12.5t-14.5 -5.5
q-14 0 -24 10t-10 24q0 6 9 17.5t23 25.5t31.5 28.5t33.5 26.5t29.5 19.5t19.5 7.5q17 0 26.5 -11.5t9.5 -28.5q0 -6 -5 -44.5t-13 -92t-17 -115t-17.5 -114.5t-14.5 -88.5t-7 -38.5q-4 -10 -13 -19.5t-21 -9.5q-14 0 -24.5 11.5t-10.5 25.5q0 36 8.5 71.5t13.5 70.5z
M599 410q-5 -3 -14 -10.5t-19 -14.5t-19.5 -12.5t-14.5 -5.5q-14 0 -24 10t-10 24q0 6 9 17.5t23 25.5t31.5 28.5t33.5 26.5t29.5 19.5t19.5 7.5q17 0 26.5 -11.5t9.5 -28.5q0 -6 -5 -44.5t-13 -92t-17 -115t-17.5 -114.5t-14.5 -88.5t-7 -38.5q-4 -10 -13 -19.5t-21 -9.5
q-14 0 -24.5 11.5t-10.5 25.5q0 36 8.5 71.5t13.5 70.5zM858 280q-20 0 -35.5 -8t-28.5 -20.5t-23 -28.5t-20 -31q-1 -8 -1 -16v-16q0 -31 6.5 -61.5t26.5 -55.5l11 -6l-1 1q6 -2 11.5 -2h11.5q29 0 48 16t30.5 39.5t16 50.5t4.5 50q0 13 -2.5 28.5t-9.5 28.5t-18 22t-27 9z
" />
    <glyph glyph-name="sevensixteenths" unicode="&#x37;&#x2f;&#x31;&#x36;" horiz-adv-x="1050" 
d="M892 524q24 0 43.5 -9.5t33.5 -25.5t22 -37t8 -43q0 -14 -10 -24t-24 -10q-17 0 -24 9.5t-11 23t-8.5 26.5t-14.5 21l-14 3q-21 -5 -38.5 -19t-31.5 -32.5t-24.5 -39.5t-17.5 -39q17 10 36 15.5t39 5.5q33 0 56.5 -14.5t38.5 -37t22.5 -51.5t7.5 -57q0 -42 -10 -81.5
t-31.5 -71t-55.5 -50.5t-81 -19q-35 0 -58.5 20t-37.5 49.5t-19.5 63.5t-5.5 62t6 65.5t17.5 78t29 79.5t40.5 70t52.5 50t64.5 19zM65 665q-11 0 -20.5 8t-9.5 19q0 19 7 43.5t16 41.5q1 10 10 20t20 10h223q15 0 25 -10t10 -25q0 -4 -6.5 -19t-16 -37t-21.5 -46.5
t-22.5 -47.5t-19 -40.5t-11.5 -23.5q17 -1 33 -6.5t16 -27.5q0 -14 -9 -22t-22 -11.5t-27 -4t-24 -0.5q-24 -54 -48 -110t-53 -108q-10 -20 -31 -20q-14 0 -23.5 9.5t-9.5 23.5q0 4 6 19t15 36t20 45t21 45.5t18 38t11 23.5q-9 0 -19.5 1t-18.5 4.5t-13.5 11t-5.5 19.5
q0 15 10 23t24 11.5t30 3t27 -1.5q20 45 41.5 90t42.5 90h-141q-2 -10 -6 -23t-10.5 -24.5t-16 -19.5t-21.5 -8zM638 829q11 0 24 -4.5t13 -19.5q0 -16 -17 -51t-45.5 -81.5t-65.5 -102.5t-77.5 -115t-81.5 -117t-77 -109.5t-64 -93.5t-43 -68q-11 -19 -20 -41.5t-24 -39.5
q-4 -5 -10 -9t-13 -4q-16 0 -26 7.5t-10 25.5q0 10 15 38.5t40 69t58 90.5t68 102t70.5 103t66 95t53.5 77.5t34 49.5t26 42.5t31 54t29.5 51t21.5 33.5q3 4 10.5 10.5t13.5 6.5zM598 410q-5 -3 -14 -10.5t-19 -14.5t-19.5 -12.5t-14.5 -5.5q-14 0 -24 10t-10 24q0 6 9 17.5
t23 25.5t31.5 28.5t33.5 26.5t29.5 19.5t19.5 7.5q17 0 26.5 -11.5t9.5 -28.5q0 -6 -5 -44.5t-13 -92t-17 -115t-17.5 -114.5t-14.5 -88.5t-7 -38.5q-4 -10 -13 -19.5t-21 -9.5q-14 0 -24.5 11.5t-10.5 25.5q0 36 8.5 71.5t13.5 70.5zM857 280q-20 0 -35.5 -8t-28.5 -20.5
t-23 -28.5t-20 -31q-1 -8 -1 -16v-16q0 -31 6.5 -61.5t26.5 -55.5l11 -6l-1 1q6 -2 11.5 -2h11.5q29 0 48 16t30.5 39.5t16 50.5t4.5 50q0 13 -2.5 28.5t-9.5 28.5t-18 22t-27 9z" />
    <glyph glyph-name="solala" unicode="&#x3a;&#x2d;&#x7c;" horiz-adv-x="684" 
d="M62 333q0 -57 21.5 -106.5t59 -87t87 -59t106.5 -21.5q56 0 106 21.5t87.5 59t59 87.5t21.5 106q0 57 -21.5 107t-58.5 87.5t-87 59t-107 21.5t-107 -21.5t-87 -58.5t-58.5 -87.5t-21.5 -107.5zM39 333q0 61 23.5 115.5t63.5 95t94 64t116 23.5q61 0 115 -23.5t94.5 -64
t64 -95t23.5 -115.5q0 -62 -23.5 -115.5t-63.5 -94t-94.5 -63.5t-115.5 -23q-62 0 -116 23t-94 63.5t-63.5 94t-23.5 115.5zM373 419q0 22 15 38t38 16t38.5 -15.5t15.5 -38.5q0 -22 -16 -37.5t-38 -15.5t-37.5 15.5t-15.5 37.5zM180 420q0 23 15.5 38.5t38.5 15.5
t38.5 -15.5t15.5 -38.5q0 -22 -16 -37.5t-38 -15.5t-38 15.5t-16 37.5zM229 175q0 6 15.5 10t35 6t37 2.5t22.5 0.5q4 0 22 -0.5t37.5 -2.5t35 -6t15.5 -10t-15.5 -9.5t-35 -5.5t-37.5 -2.5t-22 -0.5q-5 0 -22.5 0.5t-37 2.5t-35 5.5t-15.5 9.5z" />
    <glyph glyph-name="thirteensixteenths" unicode="&#x31;&#x33;&#x2f;&#x31;&#x36;" horiz-adv-x="1271" 
d="M1113 524q24 0 43.5 -9.5t33.5 -25.5t22 -37t8 -43q0 -14 -10 -24t-24 -10q-17 0 -24 9.5t-11 23t-8.5 26.5t-14.5 21l-14 3q-21 -5 -38.5 -19t-31.5 -32.5t-24.5 -39.5t-17.5 -39q17 10 36 15.5t39 5.5q33 0 56.5 -14.5t38.5 -37t22.5 -51.5t7.5 -57q0 -42 -10 -81.5
t-31.5 -71t-55.5 -50.5t-81 -19q-35 0 -58.5 20t-37.5 49.5t-19.5 63.5t-5.5 62t6 65.5t17.5 78t29 79.5t40.5 70t52.5 50t64.5 19zM337 579q0 5 14 26t31.5 46t34 49t22.5 36l-113 3q-2 -10 -6 -23t-10.5 -24.5t-16 -19.5t-21.5 -8q-11 0 -20.5 8t-9.5 19q0 19 7 43.5
t16 41.5q1 10 10 20t20 10l195 -3q15 0 25 -10t10 -25q0 -7 -14.5 -30.5t-33 -50.5t-35.5 -51t-23 -31q45 -13 69 -50t24 -82q0 -43 -17.5 -83t-46.5 -71t-68.5 -49.5t-82.5 -18.5q-35 0 -59 13t-38 34.5t-20 49.5t-6 59q0 14 11.5 25t25.5 11q15 0 21 -9.5t8.5 -23t3.5 -30
t6.5 -30t17.5 -23t36 -9.5q31 0 56.5 13t43.5 34.5t28 49t10 56.5q0 36 -16.5 50t-36 20t-36 12t-16.5 26zM859 829q11 0 24 -4.5t13 -19.5q0 -16 -17 -51t-45.5 -81.5t-65.5 -102.5t-77.5 -115t-81.5 -117t-77 -109.5t-64 -93.5t-43 -68q-11 -19 -20 -41.5t-24 -39.5
q-4 -5 -10 -9t-13 -4q-16 0 -26 7.5t-10 25.5q0 10 15 38.5t40 69t58 90.5t68 102t70.5 103t66 95t53.5 77.5t34 49.5t26 42.5t31 54t29.5 51t21.5 33.5q3 4 10.5 10.5t13.5 6.5zM114 698q-5 -3 -14 -10.5t-19 -14.5t-19.5 -12.5t-14.5 -5.5q-14 0 -24 10t-10 24q0 6 9 17.5
t23 25.5t31.5 28.5t33.5 26.5t29.5 19.5t19.5 7.5q17 0 26.5 -11.5t9.5 -28.5q0 -6 -5 -44.5t-13 -92t-17 -115t-17.5 -114.5t-14.5 -88.5t-7 -38.5q-4 -10 -13 -19.5t-21 -9.5q-14 0 -24.5 11.5t-10.5 25.5q0 36 8.5 71.5t13.5 70.5zM819 410q-5 -3 -14 -10.5t-19 -14.5
t-19.5 -12.5t-14.5 -5.5q-14 0 -24 10t-10 24q0 6 9 17.5t23 25.5t31.5 28.5t33.5 26.5t29.5 19.5t19.5 7.5q17 0 26.5 -11.5t9.5 -28.5q0 -6 -5 -44.5t-13 -92t-17 -115t-17.5 -114.5t-14.5 -88.5t-7 -38.5q-4 -10 -13 -19.5t-21 -9.5q-14 0 -24.5 11.5t-10.5 25.5
q0 36 8.5 71.5t13.5 70.5zM1078 280q-20 0 -35.5 -8t-28.5 -20.5t-23 -28.5t-20 -31q-1 -8 -1 -16v-16q0 -31 6.5 -61.5t26.5 -55.5l11 -6l-1 1q6 -2 11.5 -2h11.5q29 0 48 16t30.5 39.5t16 50.5t4.5 50q0 13 -2.5 28.5t-9.5 28.5t-18 22t-27 9z" />
    <glyph glyph-name="threesixteenths" unicode="&#x33;&#x2f;&#x31;&#x36;" horiz-adv-x="1130" 
d="M972 524q24 0 43.5 -9.5t33.5 -25.5t22 -37t8 -43q0 -14 -10 -24t-24 -10q-17 0 -24 9.5t-11 23t-8.5 26.5t-14.5 21l-14 3q-21 -5 -38.5 -19t-31.5 -32.5t-24.5 -39.5t-17.5 -39q17 10 36 15.5t39 5.5q33 0 56.5 -14.5t38.5 -37t22.5 -51.5t7.5 -57q0 -42 -10 -81.5
t-31.5 -71t-55.5 -50.5t-81 -19q-35 0 -58.5 20t-37.5 49.5t-19.5 63.5t-5.5 62t6 65.5t17.5 78t29 79.5t40.5 70t52.5 50t64.5 19zM193 579q0 5 14 26t31.5 46t34 49t22.5 36l-113 3q-2 -10 -6 -23t-10.5 -24.5t-16 -19.5t-21.5 -8q-11 0 -20.5 8t-9.5 19q0 19 7 43.5
t16 41.5q1 10 10 20t20 10l195 -3q15 0 25 -10t10 -25q0 -7 -14.5 -30.5t-33 -50.5t-35.5 -51t-23 -31q45 -13 69 -50t24 -82q0 -43 -17.5 -83t-46.5 -71t-68.5 -49.5t-82.5 -18.5q-35 0 -59 13t-38 34.5t-20 49.5t-6 59q0 14 11.5 25t25.5 11q15 0 21 -9.5t8.5 -23t3.5 -30
t6.5 -30t17.5 -23t36 -9.5q31 0 56.5 13t43.5 34.5t28 49t10 56.5q0 36 -16.5 50t-36 20t-36 12t-16.5 26zM718 829q11 0 24 -4.5t13 -19.5q0 -16 -17 -51t-45.5 -81.5t-65.5 -102.5t-77.5 -115t-81.5 -117t-77 -109.5t-64 -93.5t-43 -68q-11 -19 -20 -41.5t-24 -39.5
q-4 -5 -10 -9t-13 -4q-16 0 -26 7.5t-10 25.5q0 10 15 38.5t40 69t58 90.5t68 102t70.5 103t66 95t53.5 77.5t34 49.5t26 42.5t31 54t29.5 51t21.5 33.5q3 4 10.5 10.5t13.5 6.5zM678 410q-5 -3 -14 -10.5t-19 -14.5t-19.5 -12.5t-14.5 -5.5q-14 0 -24 10t-10 24q0 6 9 17.5
t23 25.5t31.5 28.5t33.5 26.5t29.5 19.5t19.5 7.5q17 0 26.5 -11.5t9.5 -28.5q0 -6 -5 -44.5t-13 -92t-17 -115t-17.5 -114.5t-14.5 -88.5t-7 -38.5q-4 -10 -13 -19.5t-21 -9.5q-14 0 -24.5 11.5t-10.5 25.5q0 36 8.5 71.5t13.5 70.5zM937 280q-20 0 -35.5 -8t-28.5 -20.5
t-23 -28.5t-20 -31q-1 -8 -1 -16v-16q0 -31 6.5 -61.5t26.5 -55.5l11 -6l-1 1q6 -2 11.5 -2h11.5q29 0 48 16t30.5 39.5t16 50.5t4.5 50q0 13 -2.5 28.5t-9.5 28.5t-18 22t-27 9z" />
    <glyph glyph-name="uni2160.001" unicode="I&#x2a;" horiz-adv-x="255" 
d="M121 27q0 8 1 15.5t3 14.5h-1q14 104 38 205.5t46 204.5q14 67 31.5 133.5t25.5 134.5q1 11 4 25t9 26t16 20.5t24 8.5q12 0 19 -13t7 -24q0 -25 -6.5 -65.5t-17 -89t-23 -101.5t-25 -103.5t-23.5 -94.5t-17 -74q-2 -10 -6 -32.5t-9.5 -50.5t-12 -58t-14.5 -54.5t-17 -40
t-19 -15.5q-14 0 -23.5 6.5t-9.5 21.5z" />
    <glyph glyph-name="uni2164.001" unicode="V&#x2a;" horiz-adv-x="412" 
d="M174 57h-1q-13 100 -14.5 200.5t-6.5 201.5q-3 73 -10.5 147.5t-7.5 146.5q0 7 0.5 18.5t3 22t8 18.5t16.5 8t18 -6t12 -14q7 -11 12 -53t9.5 -101t7.5 -127t5 -131t4 -113t3 -73q27 68 55.5 134.5t56.5 133.5q27 66 59.5 131.5t52.5 133.5h1q3 7 8.5 20.5t13.5 27
t16.5 23.5t17.5 10q13 0 20 -11t7 -22q0 -12 -3.5 -24.5t-7.5 -23.5h1q-19 -63 -43.5 -123.5t-51.5 -120.5t-54.5 -119.5t-52.5 -119.5q-20 -48 -41 -96.5t-35 -98.5q-2 -5 -4 -14t-6 -17.5t-9.5 -15t-13.5 -6.5q-29 0 -37.5 13.5t-8.5 39.5z" />
    <glyph glyph-name="uni2169.001" unicode="X&#x2a;" horiz-adv-x="502" 
d="M30 23q0 14 14 43t35.5 65.5t48 77t51.5 77t45.5 66.5t31.5 46q-6 16 -20 48t-31 72.5t-35 83.5t-33 81.5t-24.5 66.5t-9.5 38q0 11 6 19t18 8q13 0 29.5 -22t34 -56t35.5 -75.5t33.5 -80t27 -69.5t16.5 -44q45 67 91.5 132.5t89.5 134.5h1q4 8 12.5 21t18.5 25t21 21
t21 9t17 -9.5t7 -18.5q0 -13 -15.5 -43.5t-39.5 -69t-53 -82t-57 -83t-50.5 -71t-33.5 -46.5q29 -76 60.5 -151t63.5 -150l-2 -1q6 -15 11 -31.5t5 -33.5q0 -11 -6 -17.5t-17 -6.5t-19.5 6.5t-15.5 15.5t-12.5 19.5t-9.5 18.5h-1q-30 64 -56 129.5t-49 132.5
q-8 -11 -25.5 -39.5t-40.5 -64.5t-48.5 -75t-48.5 -71.5t-41.5 -53.5t-26.5 -21q-11 0 -17.5 10t-6.5 19z" />
    <glyph glyph-name="uni216C.001" unicode="L&#x2a;" horiz-adv-x="555" 
d="M265 815q12 0 19 -13t7 -24q0 -28 -6.5 -54.5t-12.5 -53.5q-35 -151 -67 -301t-58 -303q44 0 87 1t87 1q13 0 42 0.5t58 -2t51.5 -10.5t22.5 -26q0 -25 -14 -32t-35 -7h-24q-81 0 -162 3t-162 3q-12 0 -20.5 11t-8.5 22q0 22 5 57t13 75.5t17.5 84.5t19 85t18 76.5
t13.5 58.5l57 268q3 14 5 28t6.5 25.5t14 19t27.5 7.5z" />
    <glyph glyph-name="uni216D.001" unicode="C&#x2a;" horiz-adv-x="555" 
d="M409 807q28 0 61 -12.5t60.5 -34t46 -49.5t18.5 -59q0 -13 -7 -23t-21 -10q-12 0 -20.5 9t-16 22.5t-16 29t-20.5 29t-29.5 22.5t-42.5 9q-52 0 -93.5 -23.5t-73 -62.5t-53.5 -88.5t-36.5 -102t-21 -103t-6.5 -91.5q0 -39 7 -79t25 -73t49 -53.5t78 -20.5q30 0 52.5 10.5
t39 23t28.5 23t22 10.5q15 0 28.5 -10.5t13.5 -27.5q0 -22 -21 -39.5t-49.5 -29.5t-58 -18.5t-46.5 -6.5q-66 0 -110.5 24.5t-72 66t-39.5 95t-12 110.5q0 49 8 107.5t25 117.5t44 114.5t64.5 98.5t86 69t109.5 26z" />
    <glyph glyph-name="uni216E.001" unicode="D&#x2a;" horiz-adv-x="511" 
d="M82 -27q-7 0 -14 -0.5t-14 0.5l6 1q0 2 -2 1t-4 -1h-22q-12 0 -20.5 11t-8.5 22q0 18 8 25.5t19.5 10t25.5 1.5t26 -1q11 88 29 176t38 175t39 174.5t32 175.5q-10 0 -23 -0.5t-25 2.5t-20.5 10t-8.5 22q0 23 14.5 30t34.5 7h108q62 0 118.5 -16t99 -49t68 -83.5
t25.5 -119.5q0 -71 -12 -141t-37.5 -136t-65 -124.5t-93.5 -105.5q-33 -28 -71.5 -42t-80.5 -19.5t-85 -5.5h-84zM153 42h55l1 1q54 3 100 27.5t83.5 63t66 88t47.5 102.5t29 106.5t10 99.5q0 57 -17 97.5t-48.5 66t-75.5 37.5t-97 12h-16q-12 -89 -30.5 -176t-38 -174.5
t-38 -175t-31.5 -175.5z" />
    <glyph glyph-name="uni216F.001" unicode="M&#x2a;" horiz-adv-x="622" 
d="M228 830q17 0 27 -13.5t15 -27.5q16 -47 28.5 -94.5t24 -95.5t23 -95.5t25.5 -95.5q60 88 114.5 178.5t105.5 184.5q4 7 9.5 17t12.5 19.5t15.5 16t17.5 6.5q8 0 13 -5t7.5 -12t3.5 -14.5t1 -12.5l-1 -14q-11 -114 -38 -227t-52 -225q-14 -66 -25.5 -132t-27.5 -131
q-1 -5 -5 -15t-9 -19.5t-11.5 -16.5t-13.5 -7q-14 0 -23.5 6.5t-9.5 21.5q0 8 1 15.5t3 14.5h-1q8 64 21 127t27.5 126l29 126t26.5 126q-6 -9 -21.5 -33.5t-36 -55.5t-43.5 -65t-43.5 -62t-36.5 -46.5t-22 -18.5q-12 0 -20 10.5t-13 19.5q-13 28 -22.5 68t-19 84t-19 87.5
t-22.5 78.5q-18 -96 -39.5 -190t-41.5 -189q-10 -48 -18.5 -96.5t-21.5 -96.5q-2 -5 -5.5 -15t-9 -19.5t-11.5 -16.5t-13 -7q-14 0 -23.5 6.5t-9.5 21.5q0 8 1 15.5t3 14.5h-1l85 410q17 79 28.5 159.5t28.5 158.5q3 13 9.5 29t23.5 16z" />
    <glyph glyph-name="zwinker" unicode="&#x3b;&#x2d;&#x29;" horiz-adv-x="684" 
d="M62 333q0 -57 21.5 -106.5t59 -87t87 -59t106.5 -21.5q56 0 106 21.5t87.5 59t59 87.5t21.5 106q0 57 -21.5 107t-58.5 87.5t-87 59t-107 21.5t-107 -21.5t-87 -58.5t-58.5 -87.5t-21.5 -107.5zM39 333q0 61 23.5 115.5t63.5 95t94 64t116 23.5q61 0 115 -23.5t94.5 -64
t64 -95t23.5 -115.5q0 -62 -23.5 -115.5t-63.5 -94t-94.5 -63.5t-115.5 -23q-62 0 -116 23t-94 63.5t-63.5 94t-23.5 115.5zM186 253q0 7 6 7q2 0 14.5 -7.5t32.5 -16.5t45 -16.5t53 -7.5q31 0 61 6.5t56 23.5q1 1 5.5 4t9.5 6.5t9 6t5 2.5q3 0 3.5 -3t0.5 -5
q0 -30 -14 -50.5t-36 -33.5t-48.5 -19t-51.5 -6q-26 0 -53 5.5t-48.5 18t-35.5 33.5t-14 52zM373 419q12 -12 24.5 -20t30.5 -8q9 0 15.5 5.5t12 11.5t10 11.5t8.5 5.5t6.5 -6.5t2.5 -9.5q0 -9 -6.5 -15.5t-15.5 -10.5t-18.5 -6t-16.5 -2q-19 0 -34.5 12.5t-18.5 31.5z
M180 420q0 23 15.5 38.5t38.5 15.5t38.5 -15.5t15.5 -38.5q0 -22 -16 -37.5t-38 -15.5t-38 15.5t-16 37.5z" />
    <glyph glyph-name=".notdef" horiz-adv-x="677" 
d="M83 397l362 362l363 -362l-363 -363zM441 314l6 3h-8q-8 13 -8 28q0 20 18.5 38.5t40.5 41.5t40.5 54.5t18.5 78.5q0 24 -6 45t-18.5 37t-31.5 25.5t-45 9.5q-20 0 -38.5 -7.5t-32.5 -20t-22.5 -30.5t-8.5 -39q0 -11 5.5 -21.5t18.5 -10.5q12 0 15.5 13.5t8 30t15.5 30
t40 13.5q30 0 43 -22.5t13 -48.5q0 -41 -18.5 -68t-40 -48.5t-40 -44t-18.5 -54.5q0 -12 4 -25.5t11.5 -25t18.5 -18.5t25 -7q21 0 38 16.5t17 37.5q0 8 -6 15.5t-15 7.5q-13 0 -19.5 -11.5t-14.5 -19.5h4zM443 100q11 0 19.5 6.5t14 16.5t8 21.5t2.5 20.5q0 14 -9 29.5
t-26 15.5q-11 0 -19 -6t-13 -15.5t-8 -20t-3 -19.5q0 -15 8 -32t26 -17z" />
    <glyph glyph-name=".null" horiz-adv-x="0" 
 />
    <glyph glyph-name="nonmarkingreturn" horiz-adv-x="333" 
 />
    <glyph glyph-name="space" unicode=" " horiz-adv-x="421" 
 />
    <glyph glyph-name="exclam" unicode="!" horiz-adv-x="330" 
d="M246 311l6.5 21.5t18 55.5t25.5 78t29 89.5t29 89.5t25.5 78.5l18.5 55.5t7 22q12 23 35 22q14 -2 21.5 -12.5t5.5 -23.5q0 -3 -7 -26t-18 -58t-25.5 -79.5t-29 -90.5t-29 -90t-25.5 -78t-18 -55l-7 -21q-5 -8 -13.5 -14t-19.5 -4q-15 2 -23 14t-6 26zM154 53
q0 15 5 32.5t15 32.5t23.5 25t30.5 10q12 0 21 -6t14.5 -15.5t8 -21t2.5 -21.5q0 -15 -5 -32.5t-14.5 -33t-23 -26t-30.5 -10.5q-13 0 -22 6.5t-14.5 16t-8 21t-2.5 22.5z" />
    <glyph glyph-name="quotedbl" unicode="&#x22;" horiz-adv-x="283" 
d="M152 622l5 7q24 16 32.5 46t13 60t9 52t20.5 22q13 0 29.5 -12t16.5 -26q0 -17 -6.5 -46t-18 -57.5t-28.5 -49.5t-38 -21q-9 0 -21.5 7.5t-13.5 17.5zM267 623l4 6q17 11 26 29t13.5 38t6.5 40t5 36.5t8.5 26.5t16.5 10q6 0 14 -3.5t15 -8.5t11.5 -12t4.5 -14
q0 -17 -6.5 -46t-18 -57.5t-28 -49.5t-37.5 -21q-9 0 -21.5 8t-13.5 18z" />
    <glyph glyph-name="numbersign" unicode="#" horiz-adv-x="468" 
d="M232 336q-10 1 -22.5 0.5t-23 2t-18 9.5t-7.5 22t11 22.5t26.5 10.5t32 3t26.5 1q3 10 7.5 22.5t11 23t16 17.5t23.5 7q11 0 16.5 -6.5t5.5 -16.5q0 -13 -3.5 -25t-6.5 -24q23 0 45 -0.5t45 -1.5q7 19 17.5 38t34.5 19q11 0 17 -7.5t6 -18.5q0 -8 -3 -16t-4 -16
q15 0 27.5 -7.5t12.5 -24.5q0 -12 -6 -19t-15 -10.5t-19.5 -4.5t-19.5 -2q-7 -23 -15.5 -46t-16.5 -46h23q18 0 35 -5.5t17 -27.5q0 -15 -12.5 -23t-29 -11.5t-34 -4t-27.5 -0.5q-3 -11 -7 -24t-10 -24t-15.5 -18.5t-24.5 -7.5q-11 0 -17 7t-6 18q0 13 3.5 25t7.5 24l-90 4
q-3 -10 -7 -20.5t-10 -19.5t-14.5 -15t-20.5 -6q-10 0 -17 7.5t-7 17.5t3 19.5t5 19.5q-14 0 -24 9t-10 23q0 12 5 18.5t13.5 10.5t18 5t18.5 1q8 23 16.5 46t16.5 46zM361 244l29 86q-21 0 -42.5 0.5t-42.5 1.5l-31 -86q22 0 43.5 -0.5t43.5 -1.5z" />
    <glyph glyph-name="dollar" unicode="$" horiz-adv-x="488" 
d="M416 723q2 9 4 18.5t6.5 17.5t11.5 13.5t18 5.5q14 0 22.5 -10.5t8.5 -24.5q0 -8 -2 -16l-4 -16q14 -5 30 -13.5t29.5 -20.5t22 -26.5t8.5 -31.5q0 -13 -8 -24.5t-22 -11.5q-17 0 -26 12.5t-14 26.5q-7 7 -15.5 13t-17.5 10l-59 -286q19 -28 41.5 -55t42 -56t32 -61
t12.5 -68q0 -28 -10.5 -48.5t-28.5 -33.5t-41.5 -19.5t-48.5 -6.5q-17 0 -34 2t-34 8q-1 -8 -3 -17.5t-6 -17.5t-11 -13t-17 -5q-15 0 -24 11.5t-9 25.5q0 11 3.5 22t5.5 22q-16 9 -44 28t-55 42t-46.5 47t-19.5 44q0 13 8.5 23t22.5 10q11 0 18 -6.5t12 -14.5
q24 -35 53.5 -58.5t64.5 -46.5l45 220q-44 53 -69.5 114t-25.5 130q0 36 15 62.5t39.5 44.5t55.5 26.5t63 8.5zM470 129q0 19 -7.5 39.5t-19 39.5t-25.5 36t-26 31l-39 -190q28 -11 56 -11q27 0 48 10q13 23 13 45zM314 611l-4 -22t-2 -22q0 -38 14 -73.5t34 -67.5
q13 58 24 115.5t23 115.5q-21 -1 -40.5 -8t-36.5 -19z" />
    <glyph glyph-name="ampersand" unicode="&#x26;" horiz-adv-x="544" 
d="M421 135q7 7 22 26.5t32 40t33 36t24 15.5q13 0 22.5 -9t9.5 -22q0 -11 -12.5 -29.5t-29 -38t-33 -37t-24.5 -25.5q16 -14 36.5 -28t42.5 -14q11 8 17 21.5t12 26t13.5 22t20.5 9.5t22.5 -9.5t9.5 -22.5q0 -18 -8 -37.5t-21.5 -36t-31 -27t-36.5 -10.5q-36 0 -66.5 20
t-56.5 42q-37 -30 -80.5 -55t-93.5 -25q-29 0 -54 13.5t-44.5 35t-30.5 49t-11 54.5q0 31 14 59t36 52t47 45t48 38q-6 21 -8.5 42.5t-2.5 43.5q0 31 5.5 68.5t20 70.5t40 55.5t65.5 22.5q25 0 43.5 -11.5t31 -29.5t18.5 -40t6 -44q0 -34 -12.5 -63.5t-33 -54.5t-46 -46.5
t-50.5 -39.5q15 -43 39.5 -81t54.5 -72zM238 33q38 4 71.5 20.5t62.5 38.5q-64 67 -101 155q-15 -11 -32 -24t-31.5 -28.5t-24 -33.5t-9.5 -39q0 -24 11 -45.5t30 -36.5zM346 542q-25 -27 -32.5 -61.5t-7.5 -69.5q0 -24 5 -52q16 14 32.5 28.5t30 31t21.5 36t8 43.5
q0 14 -5 29.5t-19 22.5h-12q-5 -2 -10.5 -4t-10.5 -4z" />
    <glyph glyph-name="quotesingle" unicode="'" horiz-adv-x="186" 
d="M165 633q0 13 8.5 41t22 57t29.5 51t30 22q13 0 22 -10t9 -23q0 -12 -9 -40.5t-22.5 -57t-29.5 -50.5t-30 -22q-13 0 -21.5 10t-8.5 22z" />
    <glyph glyph-name="parenleft" unicode="(" horiz-adv-x="299" 
d="M317 849l12 1q12 0 22.5 -7.5t10.5 -21.5q0 -19 -16.5 -31t-31.5 -19q-38 -63 -64.5 -140.5t-44 -159t-25.5 -163.5t-8 -155q0 -42 4 -83t14 -82q11 -8 22 -19.5t11 -26.5q0 -12 -8.5 -21.5t-21.5 -9.5q-30 0 -47.5 26t-26.5 61t-11 72t-2 58q0 36 4.5 95t14 128
t23 141.5t31.5 137.5t40 115t49 74q11 10 24 16t25 14z" />
    <glyph glyph-name="parenright" unicode=")" horiz-adv-x="334" 
d="M150 -88l-12 -1q-12 0 -22 8t-10 21q0 19 16.5 31t31.5 19q37 63 64 140t44 159t25 164t8 155q0 42 -3.5 83t-13.5 82q-11 8 -22.5 19t-11.5 27q0 13 9 22t22 9q30 0 47.5 -26t26 -61.5t11 -72t2.5 -57.5q0 -37 -4.5 -95.5t-14 -127.5t-23.5 -141.5t-32 -137t-40.5 -115
t-48.5 -74.5q-11 -10 -23.5 -16.5t-25.5 -13.5z" />
    <glyph glyph-name="asterisk" unicode="*" horiz-adv-x="468" 
d="M326 739q3 11 4.5 30t6 37t13.5 31.5t25 13.5q12 0 22 -9.5t10 -21.5q0 -22 -3 -43t-5 -43q7 3 19 8.5l24 11t23.5 9.5t18.5 4q14 0 24 -9t10 -23q0 -9 -12.5 -19.5t-28.5 -21t-32.5 -19t-23.5 -11.5q7 -6 20.5 -16t27 -21.5t23.5 -23t10 -21.5q0 -12 -8.5 -21t-20.5 -9
q-9 0 -22.5 6t-27 14.5t-26 17.5t-20.5 15q-2 -11 -3.5 -30t-6 -37.5t-13 -32t-24.5 -13.5q-17 0 -23.5 15.5t-7.5 36t2 41t4 31.5q-6 -3 -19 -9t-27.5 -12.5t-27 -11t-17.5 -4.5q-13 0 -23 9.5t-10 22.5t12 24t28 20t32.5 16t26.5 11q-7 6 -20 16t-26 21.5t-23 23t-10 20.5
q0 14 9 23.5t23 9.5q9 0 22 -7t26.5 -16t25.5 -18.5t19 -15.5z" />
    <glyph glyph-name="plus" unicode="+" horiz-adv-x="468" 
d="M299 334q-12 0 -35.5 -1t-46 1.5t-39.5 10t-17 25.5t19 26.5t44.5 10.5t50.5 1t36 -1q1 10 2.5 33.5t6 47.5t14 42t27.5 18q16 0 25 -11.5t9 -26.5q0 -27 -3 -53.5t-6 -52.5q14 -1 27 0t27 1q9 0 23 -0.5t28 -4t24 -10.5t10 -20q0 -18 -19.5 -26.5t-45 -11.5t-50.5 -2.5
t-37 0.5q-3 -13 -5 -37t-7.5 -47.5t-15 -41t-25.5 -17.5t-24 12.5t-8 26.5q0 27 3.5 54t7.5 54z" />
    <glyph glyph-name="comma" unicode="," horiz-adv-x="479" 
d="M278 62q0 15 5 32t15 32t23.5 25t30.5 10q18 0 28.5 -8t16 -20t7 -27t1.5 -29q0 -10 -4.5 -28t-12 -39.5t-17.5 -44t-21 -41t-23 -30t-23 -11.5q-14 0 -22.5 10t-8.5 23q0 7 3 19t7 25t8.5 24.5t7.5 18.5q-12 11 -16.5 27t-4.5 32z" />
    <glyph glyph-name="hyphen" unicode="-" horiz-adv-x="589" 
d="M161 370q0 13 9 20.5t21.5 11.5t26.5 4.5t23 0.5q63 0 125.5 -2.5t125.5 -2.5q13 0 23 -9.5t10 -22.5q0 -15 -12.5 -22.5t-30 -11.5t-35 -4.5t-27.5 -0.5q-57 0 -114.5 3t-115.5 3q-12 0 -20.5 11t-8.5 22z" />
    <glyph glyph-name="period" unicode="." horiz-adv-x="404" 
d="M223 53q0 15 5 32.5t15 32.5t23.5 25t30.5 10q12 0 21 -6t14.5 -15.5t8 -21t2.5 -21.5q0 -15 -5 -32.5t-14.5 -33t-23 -26t-30.5 -10.5q-13 0 -22 6.5t-14.5 16t-8 21t-2.5 22.5z" />
    <glyph glyph-name="slash" unicode="/" horiz-adv-x="330" 
d="M80 -32q0 13 8.5 45t23 76.5t33.5 99t39.5 111t41.5 113t39 105t32 86.5t21 59q7 20 15 48.5t16 57.5t15.5 55t13.5 41q5 11 12.5 18.5t20.5 7.5q14 0 22.5 -10t8.5 -23q0 -23 -12.5 -69.5t-31.5 -104.5t-43 -122.5t-46.5 -124.5t-42 -109.5t-29.5 -77.5
q-19 -52 -37.5 -103.5t-33.5 -104.5q-6 -21 -9 -45.5t-14 -44.5q-5 -9 -12.5 -15t-18.5 -6q-15 0 -23.5 11.5t-8.5 25.5z" />
    <glyph glyph-name="zero" unicode="0" horiz-adv-x="524" 
d="M329 780q52 0 84.5 -32.5t50.5 -80t24.5 -99.5t6.5 -91q0 -91 -20.5 -178t-64.5 -166q-14 -25 -33 -54t-43 -54t-52 -41.5t-61 -16.5q-51 0 -84 29.5t-51.5 73t-26 93t-7.5 88.5q0 38 6.5 92t21 113t36.5 117t53 104t70.5 74.5t89.5 28.5zM331 714q-35 0 -65 -26
t-53.5 -67t-41.5 -92.5t-30.5 -101.5t-18.5 -94.5t-6 -71.5q0 -21 4 -59t14.5 -75t29 -64.5t48.5 -27.5q37 0 67.5 25t54.5 65t42.5 89.5t30.5 98.5t18 93t6 72q0 15 -1.5 38.5t-5.5 50t-11 52.5t-18 47.5t-27 34.5t-37 13z" />
    <glyph glyph-name="one" unicode="1" horiz-adv-x="374" 
d="M231 666q-9 -6 -26.5 -21t-37.5 -30.5t-37.5 -27.5t-26.5 -12q-14 0 -23 9.5t-9 23.5q0 7 13.5 22t34 34t45 39.5t47 37t40 27.5t23.5 11q18 0 26.5 -12.5t8.5 -29.5q0 -7 -5 -43l-12.5 -90t-18 -120.5t-21 -134.5t-21 -133t-18.5 -116t-13 -82.5t-6 -32.5
q-5 -8 -11.5 -14.5t-17.5 -6.5q-14 0 -25 11.5t-11 25.5q0 53 12.5 107.5t20.5 106.5q18 113 35 225.5t34 225.5z" />
    <glyph glyph-name="two" unicode="2" horiz-adv-x="612" 
d="M352 719q-42 0 -67 -14.5t-38.5 -36t-19 -47t-10 -47t-11.5 -36t-22 -14.5q-14 0 -26 11.5t-12 25.5q0 48 15.5 88.5t43.5 70.5t67.5 46.5t88.5 16.5q45 0 84.5 -17.5t69 -47t46 -69.5t16.5 -85q0 -58 -23.5 -101.5t-60 -78t-82.5 -63.5t-91 -58.5t-85 -63t-64 -77.5
q23 -6 52.5 -22t59.5 -33.5t57 -31t44 -13.5q25 0 38 18.5t22 40.5t18.5 40.5t27.5 18.5q17 0 26 -13.5t9 -28.5q0 -23 -12.5 -48t-32.5 -46t-44 -34.5t-48 -13.5q-33 0 -61 14t-55 32t-55 35t-59 23l-12 -5q-10 -17 -14.5 -35.5t-12.5 -35.5l-1 1q-8 -16 -26 -16
q-14 0 -24.5 10.5t-10.5 24.5l-1 1q18 91 63.5 163t123.5 124q17 12 44 30t56.5 40t59.5 47t54 51t39 51t15 47q0 74 -42 117.5t-117 43.5z" />
    <glyph glyph-name="three" unicode="3" horiz-adv-x="547" 
d="M432 715l-217 1q-6 -9 -12.5 -28t-14.5 -38t-18 -33t-23 -14q-9 0 -18 6t-9 16q0 11 4.5 37t13 52.5t20 46.5t25.5 20l297 -1q14 0 24.5 -9.5t10.5 -24.5q0 -2 -11.5 -21t-29.5 -47t-39 -61t-40 -62.5t-34 -52.5t-19 -30q33 -1 65.5 -17.5t57.5 -42.5t40.5 -59t15.5 -66
q0 -61 -24.5 -118.5t-66.5 -102t-97.5 -71.5t-118.5 -27q-50 0 -82 18t-51.5 48.5t-27 70t-7.5 81.5q0 14 11.5 25.5t25.5 11.5q16 0 21.5 -14t8 -35t5.5 -46t13.5 -46t32 -35t61.5 -14q50 0 92 21t72 56t46.5 80t16.5 93q0 41 -15.5 65t-38 37.5t-49 20t-47.5 12t-33 13
t-7 24.5l-1 1l2 3q3 7 6 10.5t7 9.5z" />
    <glyph glyph-name="four" unicode="4" horiz-adv-x="511" 
d="M308 221q2 13 3.5 40.5t6 55.5t14.5 49.5t29 21.5q11 0 22.5 -9.5t9.5 -21.5l-19 -136l38 1q9 0 21 -1t22.5 -4.5t18 -10.5t7.5 -20q0 -17 -14 -24t-33 -8.5t-39 0.5t-31 2q-2 -13 -3.5 -44t-6.5 -62.5t-15.5 -55.5t-29.5 -24q-15 0 -23.5 11.5t-8.5 25.5q0 38 8 74.5
t13 74.5l-230 -2q-11 0 -19.5 10.5t-8.5 21.5q0 12 11.5 42t29.5 68.5t39.5 82t42 83.5t37 72t24.5 48q10 21 19.5 44.5t18.5 47t19 46t23 42.5q5 7 13 11.5t16 4.5q14 0 22.5 -10.5t8.5 -23.5q0 -4 -16 -40.5t-41 -90t-54.5 -116t-57 -119.5t-48.5 -100.5t-28 -58.5z" />
    <glyph glyph-name="five" unicode="5" horiz-adv-x="522" 
d="M347 734q20 0 39 7t35.5 15.5t29.5 15.5t21 7q12 0 22 -8.5t10 -21.5q0 -18 -19 -32.5t-44.5 -25t-52 -16.5t-40.5 -6q-27 0 -53 8t-49 21l-60 -227q29 12 58 21.5t60 9.5q47 0 79 -17.5t52 -47t28.5 -68t8.5 -79.5q0 -56 -18.5 -113t-53.5 -103t-84.5 -75t-112.5 -29
q-23 0 -51 13t-53.5 33t-42.5 45t-17 48q0 13 9 22t22 9q17 0 29.5 -16t25 -35t29 -35t40.5 -16q49 0 88.5 21.5t68 56t44 78.5t15.5 90q0 27 -4.5 54t-16.5 48.5t-32.5 34.5t-52.5 13q-28 0 -54 -9.5t-48.5 -21.5t-40.5 -21.5t-28 -9.5q-16 0 -23.5 11.5t-7.5 25.5
q0 2 4 17.5t9.5 34.5t10 36.5t6.5 22.5q14 57 25.5 118t34.5 115q5 11 13 18.5t20 7.5q8 0 18 -4q6 -8 19 -15.5t29 -13t31.5 -9t24.5 -3.5z" />
    <glyph glyph-name="six" unicode="6" horiz-adv-x="520" 
d="M349 776q32 0 58.5 -13t45 -35t29 -50t10.5 -59q0 -14 -9 -23.5t-23 -9.5q-18 0 -25.5 15t-13.5 35t-15 40t-30 31q-6 1 -13.5 3t-13.5 2q-40 0 -73.5 -29.5t-59.5 -71.5t-43.5 -87.5t-26.5 -76.5q29 28 67.5 45.5t80.5 17.5q45 0 77.5 -20t53.5 -52.5t31 -72.5t10 -79
q0 -59 -14 -116t-44.5 -102t-78.5 -72.5t-115 -27.5q-49 0 -81 29t-50.5 71.5t-26 91t-7.5 86.5q0 40 8 95t24.5 113.5t41.5 116.5t58 103.5t75 73.5t93 28zM296 443q-41 0 -66 -14t-43.5 -35.5t-34 -47.5t-36.5 -51q-2 -14 -2 -26.5v-26.5q0 -51 11.5 -101t44.5 -90
q15 -11 29.5 -13t32.5 -2q48 0 80.5 25.5t52 63.5t28 82.5t8.5 83.5q0 24 -5.5 50.5t-18 49t-32.5 37.5t-49 15z" />
    <glyph glyph-name="seven" unicode="7" horiz-adv-x="500" 
d="M60 602q-9 0 -18 6t-9 16q0 13 3 30t8.5 34t11.5 33.5t12 27.5q1 10 9 20.5t19 10.5h337q14 0 24.5 -9.5t10.5 -24.5q0 -5 -10 -29t-26 -58.5t-35 -74.5t-36 -76.5t-31 -65t-19 -39.5h31q8 0 17.5 -1t17.5 -4.5t13.5 -10t5.5 -17.5q0 -16 -14.5 -24.5t-34 -12t-39.5 -3.5
h-31l-158 -341q-8 -20 -30 -20q-14 0 -23 9t-9 23q0 5 9.5 29t25 57.5t33.5 72t34.5 74t30 63t18.5 38.5q-8 1 -15 0.5t-15 -0.5q-9 0 -21 0.5t-22.5 4t-18 10.5t-7.5 20q0 18 16.5 26t38 10t43.5 1t34 -2l144 310h-257q-3 -12 -8 -31t-13 -37.5t-19.5 -31.5t-27.5 -13z" />
    <glyph glyph-name="eight" unicode="8" horiz-adv-x="559" 
d="M541 599q0 -53 -25.5 -100t-63.5 -82q19 -11 35.5 -29.5t28.5 -40.5t19 -45.5t7 -45.5q0 -63 -17.5 -115.5t-52 -91t-85 -60t-116.5 -21.5q-43 0 -82.5 17t-69.5 46t-48 67.5t-18 81.5q0 176 163 246q-23 26 -38 53.5t-15 63.5q0 46 14 89t41 76t65.5 53t88.5 20
q39 0 70.5 -14.5t53.5 -39t33.5 -58t11.5 -70.5zM274 34q17 0 32.5 2.5t32.5 4.5q31 16 56.5 33.5t44 40t29 51t10.5 67.5q0 20 -5.5 38.5t-10.5 37.5l-30 39l-46 27q-15 2 -30 5.5t-30 3.5q-49 0 -87.5 -15.5t-65.5 -43.5t-41 -68t-14 -88q0 -27 15 -51.5t37.5 -43
t50 -29.5t52.5 -11zM283 460q17 -2 35.5 -6t36.5 -4q25 0 47 14t38 35.5t25 47t9 48.5q0 26 -7 50.5t-24 45.5q-8 4 -14 8t-13 9q-9 2 -20.5 5t-20.5 3q-29 0 -55 -13t-46.5 -34t-32.5 -48t-12 -55q0 -25 6 -46.5t21 -41.5z" />
    <glyph glyph-name="nine" unicode="9" horiz-adv-x="535" 
d="M62 124q0 14 8.5 25.5t23.5 11.5q16 0 25 -20t19 -43.5t25.5 -43.5t44.5 -20q45 0 77.5 29.5t56.5 71.5t40.5 88.5t29.5 79.5q-32 -27 -69 -46.5t-80 -19.5q-47 0 -79.5 19.5t-53 51.5t-30 71.5t-9.5 80.5q0 51 12.5 107t40 103.5t70.5 78t104 30.5q55 0 91.5 -24.5
t58.5 -63t31 -86t9 -93.5q0 -42 -8 -98.5t-24 -117t-41 -119.5t-59 -105.5t-77.5 -75t-96.5 -28.5q-29 0 -54.5 14t-44.5 36.5t-30 50t-11 55.5zM154 459q0 -24 5.5 -51t17.5 -50.5t32 -38.5t50 -15q37 0 70.5 18t58.5 47t39.5 64.5t14.5 71.5q0 28 -4.5 64t-17.5 67.5
t-36.5 53t-60.5 21.5q-46 0 -78 -25.5t-52.5 -63t-29.5 -82t-9 -81.5z" />
    <glyph glyph-name="colon" unicode=":" horiz-adv-x="446" 
d="M292 398q0 15 5 32t15 32t23.5 25t30.5 10q25 0 35.5 -21t10.5 -42q0 -15 -5 -33t-14 -33.5t-22.5 -26t-31.5 -10.5q-13 0 -22 6.5t-14.5 16.5t-8 21.5t-2.5 22.5zM230 53q0 15 5 32.5t15 32.5t23.5 25t30.5 10q12 0 21 -6t14.5 -15.5t8 -21t2.5 -21.5q0 -15 -5 -32.5
t-14.5 -33t-23 -26t-30.5 -10.5q-13 0 -22 6.5t-14.5 16t-8 21t-2.5 22.5z" />
    <glyph glyph-name="semicolon" unicode=";" horiz-adv-x="432" 
d="M238 62q0 15 5 32t15 32t23.5 25t30.5 10q18 0 28.5 -8t16 -20t7 -27t1.5 -29q0 -10 -4.5 -28t-12 -39.5t-17.5 -44t-21 -41t-23 -30t-23 -11.5q-14 0 -22.5 10t-8.5 23q0 7 3 19t7 25t8.5 24.5t7.5 18.5q-12 11 -16.5 27t-4.5 32zM318 398q0 14 5.5 31.5t15 32.5t23 25
t30.5 10q25 0 35.5 -21t10.5 -42q0 -15 -5 -33t-14 -33.5t-22.5 -26t-31.5 -10.5q-13 0 -22 6.5t-14.5 16.5t-8 21.5t-2.5 22.5z" />
    <glyph glyph-name="less" unicode="&#x3c;" horiz-adv-x="427" 
d="M406 66q-5 0 -22.5 13t-40.5 33t-48.5 44t-46.5 46t-35 40t-14 25q0 8 16 24.5t40.5 37t53.5 41.5t55.5 38.5t47 29t26.5 11.5q12 0 22 -8.5t10 -21.5q0 -21 -23 -42.5t-53.5 -41.5t-61 -37t-46.5 -28q10 -10 35 -33.5t50.5 -50.5t45 -51.5t19.5 -36.5t-8.5 -22
t-21.5 -10z" />
    <glyph glyph-name="equal" unicode="=" horiz-adv-x="468" 
d="M144 209q0 14 9 21.5t21.5 11.5t26 4.5t23.5 0.5q63 0 125 -2.5t125 -2.5q14 0 24 -9.5t10 -23.5q0 -15 -14 -23t-33 -11.5t-37.5 -4t-28.5 -0.5q-56 0 -111.5 3.5t-111.5 3.5q-11 0 -19.5 11t-8.5 21zM161 370q0 13 9 20.5t21.5 11.5t26.5 4.5t23 0.5q63 0 125.5 -2.5
t125.5 -2.5q13 0 23 -9.5t10 -22.5q0 -15 -12.5 -22.5t-30 -11.5t-35 -4.5t-27.5 -0.5q-57 0 -114.5 3t-115.5 3q-12 0 -20.5 11t-8.5 22z" />
    <glyph glyph-name="greater" unicode="&#x3e;" horiz-adv-x="427" 
d="M262 449q6 0 23.5 -12.5t41 -32.5t48.5 -44t46.5 -46t35 -40t13.5 -26t-16 -24t-40 -36.5t-53 -42t-56 -39t-47 -29t-27 -11.5q-12 0 -22 8.5t-10 21.5q0 21 23 42.5t53.5 41.5t61.5 37t47 28q-11 10 -35.5 33.5t-50.5 50.5t-45.5 52t-19.5 37t8 21.5t21 9.5z" />
    <glyph glyph-name="question" unicode="?" horiz-adv-x="418" 
d="M449 753q-29 4 -47.5 -2.5t-30.5 -19.5t-19.5 -29t-14 -29t-14.5 -21.5t-21 -6.5q-15 2 -21.5 14.5t-4.5 26.5q5 33 23 59t43.5 43t56.5 24t63 2q35 -6 59 -22t38 -39t18 -52.5t-1 -62.5q-8 -51 -29 -87t-48 -62.5t-57 -46.5t-55.5 -38t-43.5 -36t-22 -42q-2 -9 0 -18
t5 -17h11q6 4 13 11t14 13.5t15.5 10t17.5 2.5q14 -2 20.5 -14t4.5 -26q-3 -15 -13.5 -27.5t-25 -21.5t-31 -13t-30.5 -2q-20 3 -33.5 15t-21 28t-9.5 34.5t1 36.5q5 35 24 59t45 43.5t55 37.5t55.5 41.5t46.5 55t28 78.5q5 35 -11 64.5t-53 35.5zM231 25q0 15 5 32t15 32
t23.5 25t30.5 10q12 0 20.5 -6t14.5 -15.5t8.5 -20.5t2.5 -21q0 -15 -5 -32.5t-14.5 -33t-23 -26t-30.5 -10.5q-13 0 -22 6.5t-14.5 16t-8 21t-2.5 22.5z" />
    <glyph glyph-name="at" unicode="@" horiz-adv-x="725" 
d="M280 70q0 42 19 85t51 77.5t72.5 56t84.5 21.5q19 0 36 -8t31 -22q4 11 13.5 18.5t21.5 7.5q15 0 23.5 -11t8.5 -25t-13.5 -42t-30 -58.5t-30 -57.5t-13.5 -39q0 -11 7.5 -20t19.5 -9q27 0 52.5 23t45.5 55t32.5 66.5t12.5 57.5q0 40 -17.5 74t-46 59.5t-65 40
t-74.5 14.5q-64 0 -119.5 -29.5t-96 -77t-63.5 -107.5t-23 -121q0 -50 14 -94.5t42 -77.5t68.5 -52.5t93.5 -19.5q44 0 80 13.5t62.5 30t44 30.5t25.5 14q16 0 24 -10t8 -25q0 -16 -14.5 -30.5t-37.5 -27.5t-51 -24t-55 -18.5t-50 -12t-36 -4.5q-66 0 -118.5 24.5t-89 66.5
t-55.5 98t-19 119q0 75 27 146.5t75 128t114.5 91t145.5 34.5q60 0 110 -21t86.5 -57.5t57 -87t20.5 -110.5q0 -55 -18 -100.5t-51 -78.5t-78.5 -51t-100.5 -18q-18 0 -35 8t-25 25q-26 -15 -55.5 -27.5t-60.5 -12.5q-21 0 -37 9t-27.5 23t-17 32.5t-5.5 37.5zM378 36
q34 0 62 18.5t53 38.5q4 9 11.5 24.5t15 32t12.5 32t5 24.5q0 13 -7.5 25t-21.5 12q-33 0 -62.5 -15t-51 -40t-34.5 -56t-13 -63q0 -33 31 -33z" />
    <glyph glyph-name="A" unicode="A" horiz-adv-x="735" 
d="M147 -24q-22 0 -47.5 10.5t-47.5 27.5t-37 39t-15 46q0 13 8.5 23t22.5 10t24 -14.5t22.5 -31.5t30 -31.5t47.5 -14.5q22 0 44 8t42 20t38 27.5t33 30.5q-13 21 -21.5 44.5t-8.5 48.5q0 29 10 60.5t28.5 58t45 43.5t58.5 17q17 0 33.5 -3t33.5 -7q18 31 42 70t52 80.5
t59.5 83t65 77t68.5 62.5t69 40q6 2 13 2q13 0 22.5 -9.5t9.5 -22.5q0 -15 -6.5 -48t-17 -78.5t-24.5 -99.5t-29 -110.5t-30.5 -112.5t-29 -104.5t-24 -86.5t-15.5 -59q17 6 38.5 18.5t42.5 25.5t38.5 23.5t26.5 12.5q11 -3 14.5 -14t3.5 -21q0 -13 -10.5 -26.5t-27 -25.5
t-37 -23.5t-40.5 -19.5t-38 -13.5t-29 -6.5q-2 -11 -11.5 -18t-20.5 -7q-16 0 -26 14q-14 -3 -28.5 -4t-28.5 -1q-63 0 -124.5 22t-106.5 67q-21 -18 -45 -36t-49.5 -32t-53 -22.5t-57.5 -8.5zM807 691q-83 -67 -145.5 -153t-113.5 -179q26 -17 45 -36t34 -41t27 -47t23 -53
q34 128 66 254.5t64 254.5zM516 302q-26 -47 -54.5 -92.5t-63.5 -87.5q16 -19 38.5 -32.5t48 -21.5t51.5 -12t50 -4q12 0 24 1t23 3q0 34 -7.5 69.5t-21.5 68.5t-36 61t-52 47zM361 182q26 35 49 71.5t46 73.5q-7 3 -13.5 5t-14.5 2q-16 0 -31 -10.5t-26 -26.5t-18 -33.5
t-7 -32.5q0 -13 3.5 -26t11.5 -23z" />
    <glyph glyph-name="B" unicode="B" horiz-adv-x="557" 
d="M425 726q-23 -6 -51.5 -19.5t-59 -31.5t-59 -37t-52 -35t-38 -26t-16.5 -10q-13 0 -22 9t-9 22q0 8 2.5 13.5t7.5 10.5q28 36 72 68t94.5 57t103 39.5t97.5 14.5q52 0 101 -10.5t87 -35.5t61 -65t23 -100q0 -64 -35.5 -107.5t-94.5 -63.5q46 -24 78 -68.5t32 -98.5
q0 -47 -19 -95.5t-52 -88t-77 -65t-93 -25.5q-17 0 -43 7.5t-51.5 20.5t-43.5 30.5t-18 37.5q0 13 9 22.5t22 9.5q11 0 23 -10t27 -21.5t33.5 -21.5t41.5 -10q37 0 68.5 20.5t55 51.5t37 68.5t13.5 70.5q0 35 -15.5 57t-38.5 35.5t-50 22t-50 16t-38.5 17t-15.5 25.5
q0 8 5.5 12t11.5 6q30 13 61 20t59 17t52 28t40 54v11q0 38 -14.5 68t-38.5 51t-56.5 32t-68.5 11q-11 0 -20.5 -0.5t-20.5 -1.5l4 -10t2 -10q0 -31 -5.5 -79.5t-15.5 -106.5t-25.5 -122.5t-36 -127t-45.5 -119t-54.5 -99t-64 -67.5t-73.5 -25q-20 1 -49 12t-55.5 29
t-45 40.5t-18.5 45.5q0 13 9.5 22.5t22.5 9.5q19 0 33.5 -13t28 -28.5t28.5 -28.5t37 -13q32 0 59.5 24t50 64t41.5 92t34.5 109.5t27.5 116.5t21.5 111t17 94t13.5 67z" />
    <glyph glyph-name="C" unicode="C" horiz-adv-x="375" 
d="M157 477q-11 6 -37 18t-52.5 26.5t-47 30.5t-20.5 29t9.5 22.5t22.5 9.5q6 0 28 -10.5t47.5 -24t48.5 -26.5t33 -18q26 42 63.5 88.5t83 84.5t97 63t105.5 25q59 0 88.5 -34.5t29.5 -91.5q0 -27 -15.5 -55t-41.5 -53.5t-60 -48t-69.5 -39.5t-70.5 -26.5t-64 -9.5
q-30 0 -59 5t-58 14q-32 -63 -51.5 -131.5t-19.5 -139.5q0 -26 4.5 -51.5t16 -46t31.5 -33.5t51 -13q27 0 56.5 9t57.5 22t53.5 29t45.5 29t33 22t17 9q14 0 23.5 -8t9.5 -23q0 -11 -8 -18.5t-16 -13.5q-36 -29 -69.5 -51.5t-68.5 -38.5t-74 -24t-87 -8q-40 0 -67 20.5
t-43.5 51t-23.5 67t-7 69.5q0 77 20 151t55 142zM531 735q-40 0 -81.5 -23t-79 -57t-68.5 -73t-51 -70q20 -5 40.5 -8.5t40.5 -3.5q30 0 74.5 15t85.5 40.5t70.5 57.5t29.5 67q0 26 -18 40.5t-43 14.5z" />
    <glyph glyph-name="D" unicode="D" horiz-adv-x="480" 
d="M467 740q-58 0 -104 -15.5t-81 -38t-61 -49.5t-45 -49.5t-32 -38t-22 -15.5q-14 0 -22 10t-8 23q0 6 2 14q17 49 58.5 90t94 70.5t110 46t106.5 16.5q67 0 120 -23.5t89.5 -64.5t55.5 -96.5t19 -120.5q0 -46 -10.5 -102t-30.5 -114.5t-49 -113.5t-67.5 -98t-85.5 -69
t-102 -26q-45 0 -86.5 16t-77.5 42q-23 -26 -53.5 -43.5t-65.5 -17.5q-20 0 -41 7t-38.5 20t-28.5 31t-11 40q0 23 11 37t27.5 22t36.5 11t38 3q27 0 53.5 -5t50.5 -16q15 32 33 83.5t37.5 111.5t39 123t38 118.5t35.5 97.5t31 60q12 17 29 17q12 0 20.5 -10t8.5 -21
q0 -6 -8 -33t-21.5 -68t-31 -92t-36.5 -104.5t-37.5 -105.5t-34.5 -95t-28 -74t-17 -41q28 -19 57.5 -33t64.5 -14q44 0 82 23t69.5 60.5t56.5 85t41.5 97t25.5 97t9 83.5q0 51 -12.5 97t-38.5 80t-66.5 54t-96.5 20zM125 39q17 0 30.5 9t24.5 21q-30 9 -61 9q-26 0 -50 -6
l-4 -4q9 -17 26 -23t34 -6z" />
    <glyph glyph-name="E" unicode="E" horiz-adv-x="283" 
d="M375 802q13 0 41 -6.5t56 -17.5t49 -25.5t21 -30.5q0 -14 -10.5 -22.5t-23.5 -8.5q-17 0 -33.5 6t-33.5 13.5t-35 14t-38 6.5q-30 0 -57.5 -11t-47.5 -30t-32 -45t-12 -57q0 -36 11 -57.5t28 -34t36.5 -18t36.5 -11t28 -13t11 -22.5q0 -18 -17 -26.5t-40 -12.5t-46 -4.5
t-35 -2.5q-33 -6 -63 -28.5t-53.5 -54t-37 -68t-13.5 -68.5q0 -22 8.5 -44t23.5 -40t35 -29t43 -11q24 0 53.5 9t58.5 23.5t55 31.5t43 34q12 0 22 -8.5t10 -21.5q0 -21 -30 -45t-70 -45t-79 -34.5t-58 -13.5q-40 0 -73 14.5t-57 40t-37 59.5t-13 73q0 48 15.5 95t44 86
t68 67.5t87.5 40.5q-32 26 -49 63t-17 78q0 45 19 83.5t50.5 67t72 45t84.5 16.5z" />
    <glyph glyph-name="F" unicode="F" horiz-adv-x="361" 
d="M107 509q-15 -1 -24 11t-9 26q0 53 18.5 103t52 89t80 62.5t101.5 23.5q43 0 86 -6.5t85.5 -14t85 -13.5t84.5 -6q29 0 54.5 5.5t44.5 12.5t31 12.5t15 5.5q11 0 19.5 -8.5t9.5 -19.5q1 -21 -17.5 -35.5t-45.5 -24.5t-56.5 -14.5t-49.5 -4.5q-38 0 -70.5 4.5t-69.5 13.5
q-20 -81 -40.5 -162t-38.5 -162q30 0 60.5 1t60.5 1q23 0 38 -6t15 -33q0 -15 -11 -21t-26 -7.5t-31 0t-26 1.5q-24 0 -48 -0.5t-48 -1.5q-8 -35 -17 -75t-21.5 -80.5t-30 -78t-43 -66t-59.5 -46t-80 -17.5q-21 0 -52.5 10t-61 27t-51 39.5t-21.5 46.5q0 13 9.5 22t22.5 9
q19 0 35.5 -14.5t34 -32t38.5 -32t49 -14.5t51 16.5t41.5 43.5t33.5 60.5t26 67.5t18.5 65t12.5 52q-15 0 -36 -2t-40.5 -0.5t-33 10t-13.5 28.5q0 16 17.5 23t41 8t46.5 -0.5t34 -1.5q19 85 40.5 168.5t40.5 168.5q-31 8 -62 12.5t-62 4.5q-55 0 -91 -18.5t-59 -46.5
t-36 -61t-21 -61t-14.5 -47t-16.5 -20z" />
    <glyph glyph-name="G" unicode="G" horiz-adv-x="530" 
d="M156 477q-12 5 -37.5 16.5t-52 26.5t-46.5 31t-20 30q0 13 9.5 22.5t22.5 9.5q5 0 26.5 -10.5t47.5 -24t50 -26.5t33 -17q26 42 65 88.5t86.5 85.5t100 64.5t105.5 25.5q59 0 85 -31t26 -88q0 -32 -22.5 -67t-55.5 -66.5t-69.5 -55.5t-64.5 -33q-29 -9 -59.5 -14.5
t-61.5 -5.5q-27 0 -54 4.5t-53 12.5q-32 -63 -51 -131.5t-19 -139.5q0 -21 3.5 -46.5t13 -48t26.5 -37.5t44 -15q59 0 109.5 28.5t91 73t70.5 97.5t48 103q8 20 13.5 45t17.5 42t30 17q13 0 21.5 -10.5t8.5 -22.5q0 -10 -5.5 -33.5t-13.5 -54t-18 -64.5t-19.5 -66t-17.5 -58
t-12 -40q25 13 49 27t47 31q12 0 22.5 -8t10.5 -22q0 -8 -4.5 -15t-9.5 -13q-9 -9 -31.5 -24.5t-46.5 -31t-44 -29t-23 -18.5q-16 -28 -30 -62.5t-29.5 -70.5t-33.5 -70t-42 -60.5t-55.5 -42.5t-72.5 -16q-38 0 -60 26.5t-22 62.5q0 27 16 56t42 57.5t59 55.5t66 51
t63.5 43.5t51.5 33.5q5 14 8.5 28t7.5 28q-51 -59 -117 -96t-146 -37q-47 0 -76 18t-46 47.5t-23 67t-6 76.5q0 76 19 149.5t54 140.5zM546 734q-39 0 -82.5 -22.5t-84 -56t-74.5 -72t-53 -69.5q20 -5 40.5 -7.5t41.5 -2.5q18 0 44 7t55 19.5t57.5 29t51.5 36t37 40.5t14 41
q0 22 -11.5 39.5t-35.5 17.5zM451 -35q-20 -15 -52 -41t-62.5 -57t-52.5 -63t-22 -58q0 -12 12 -12q31 0 59 27t51 64t40 76.5t27 63.5z" />
    <glyph glyph-name="H" unicode="H" horiz-adv-x="567" 
d="M238 737q-42 0 -62.5 -13.5t-29 -34t-9 -44t-1.5 -44t-7 -34t-25 -13.5q-11 0 -17.5 5t-10 12.5t-4.5 16.5t-1 18q0 44 6.5 79.5t23.5 61t48 39t81 13.5q39 0 78 -7.5t78 -7.5q19 0 34.5 9t32.5 9q12 0 23 -7.5t11 -21.5t-5 -40t-13.5 -59t-18.5 -69.5t-19.5 -71
t-18 -63.5t-12.5 -46l102 41q8 30 17.5 66.5t23 74t31.5 73.5t41.5 63.5t54.5 44.5t70 17q25 0 44.5 -9.5t33 -25.5t21 -37t7.5 -44q0 -31 -14.5 -59.5t-38.5 -54.5t-54.5 -49t-62 -42.5t-62.5 -34.5t-55 -26q-26 -86 -47 -173t-21 -178q0 -10 1.5 -17.5t14.5 -7.5
q12 0 38.5 15.5t54.5 34t50.5 34t26.5 15.5q11 0 20 -6.5t9 -18.5t-12 -26.5t-30.5 -30.5t-41 -31t-45 -26.5t-41.5 -19t-30 -7.5q-24 0 -40 8t-25 21.5t-12.5 32t-3.5 39.5q0 80 18.5 157t39.5 153q-26 -10 -51.5 -19.5t-51.5 -20.5q-9 -36 -18.5 -77.5t-23 -83t-32 -80
t-44.5 -68t-61.5 -47t-83.5 -17.5t-82.5 25.5t-34.5 77.5q0 54 34.5 103t84.5 89.5t106 71t100 49.5l84 329l-19 -1q-38 0 -76 8t-76 8zM304 315q-33 -17 -74.5 -40t-78 -53t-61 -66.5t-24.5 -79.5q0 -9 6 -15.5t14 -10.5t17.5 -5.5t16.5 -1.5q32 0 56.5 13.5t43 35.5
t32 50.5t23.5 59t17 60t12 53.5zM737 741q-35 0 -61.5 -27.5t-46 -66t-31.5 -79.5t-19 -68q22 12 56 32t66 45.5t55 53.5t23 56q0 20 -9.5 37t-32.5 17z" />
    <glyph glyph-name="I" unicode="I" horiz-adv-x="226" 
d="M286 736q-41 0 -61 -13.5t-28.5 -33.5t-9 -44t-1.5 -44t-7 -33.5t-25 -13.5q-11 0 -17.5 5t-10 12.5t-4.5 16.5t-1 18q0 44 6.5 79.5t23.5 61t48 39t81 13.5q39 0 78 -7.5t78 -7.5q22 0 40 9.5t32 9.5t22 -10t8 -23q0 -30 -8.5 -79t-22 -107.5t-31 -122t-35.5 -122
t-35 -107.5t-29 -79q-14 -34 -32 -67t-42.5 -59t-56 -42t-73.5 -16q-18 0 -47 13t-57 33t-48.5 42.5t-20.5 42.5q0 14 9 23t23 9q12 0 28.5 -15.5t36.5 -33.5t42.5 -33.5t46.5 -15.5q37 0 67 30.5t52.5 73.5t37.5 88.5t22 74.5l98 421q-7 -1 -13.5 -1.5t-14.5 -0.5
q-38 0 -74.5 8t-74.5 8z" />
    <glyph glyph-name="J" unicode="J" horiz-adv-x="395" 
d="M274 734q-42 0 -63 -13.5t-29.5 -34t-9 -44.5t-1.5 -44.5t-7 -34t-26 -13.5q-11 0 -17.5 5t-9.5 13t-4 17.5t-1 17.5q0 44 6.5 79.5t24 60.5t48.5 38.5t81 13.5q39 0 77.5 -7.5t77.5 -7.5q23 0 40.5 10t31.5 10q12 0 21 -9t9 -21t-7 -45.5t-18 -80t-26 -103t-31 -115.5
t-32 -117.5t-30.5 -108.5t-25.5 -88t-17 -57q45 14 86 37t79 51l12 1q28 0 28 -28q0 -15 -13.5 -29.5t-35 -29t-48 -27.5t-52 -23.5t-47.5 -18.5t-34 -11q-6 -21 -17 -52.5t-25.5 -66.5t-32.5 -69.5t-39.5 -62.5t-46 -45.5t-50.5 -17.5q-19 0 -37 8t-32 21t-22.5 30.5
t-8.5 37.5q0 44 28 83.5t68 72.5t84.5 59.5t77.5 46.5q48 175 91.5 348.5t94.5 347.5h-12q-41 0 -79.5 8t-78.5 8zM117 -263q42 38 68 89t44 104q-20 -12 -47.5 -30.5t-53.5 -41t-44 -47.5t-18 -51q0 -11 8 -22l23 -6z" />
    <glyph glyph-name="K" unicode="K" horiz-adv-x="734" 
d="M905 808q13 0 24 -9t11 -23q0 -15 -13 -23.5t-31 -13t-36 -7.5t-28 -7q-33 -14 -59.5 -37.5t-50.5 -51.5t-47 -59t-48 -59t-54.5 -52t-65.5 -38q11 -17 21 -52t20.5 -78t21.5 -88.5t24.5 -83t30 -61.5t38.5 -24q27 0 52 14.5t47.5 31.5t41 31.5t32.5 14.5q6 0 8.5 -3.5
t3.5 -9t0.5 -11t-0.5 -9.5q0 -21 -23 -43t-54 -40t-63 -29.5t-50 -11.5q-44 0 -71 23.5t-43.5 60.5t-25 83.5t-17 92.5t-19 86.5t-29.5 65.5q-9 -35 -21 -79.5t-28.5 -91t-38.5 -91t-51 -79t-66 -55.5t-83 -21q-17 0 -45 13.5t-54.5 33t-46 42t-19.5 40.5q0 14 9 23t23 9
t31 -15.5t36 -34t39.5 -34t41.5 -15.5q25 0 47 15t40.5 39t33.5 54.5t27 61.5t20 59t13 48l100 412q-7 -1 -13 -1.5t-13 -0.5q-38 0 -74.5 8.5t-74.5 8.5q-40 0 -60.5 -13.5t-28.5 -34t-9 -44t-2 -44t-7 -34t-25 -13.5q-11 0 -17.5 5t-10 12.5t-4.5 16.5t-1 18q0 44 6.5 80
t24.5 61t49 38.5t81 13.5q39 0 77.5 -7.5t77.5 -7.5q22 0 39.5 9.5t31.5 9.5t22 -10t8 -23q0 -36 -6.5 -71.5t-15.5 -71t-19 -70.5t-18 -69q43 17 76 47t62.5 65.5t58 72.5t62 67t73.5 49t94 19z" />
    <glyph glyph-name="L" unicode="L" horiz-adv-x="553" 
d="M355 449q-11 2 -33 9t-49.5 16t-56.5 20.5t-52.5 24t-39 25t-15.5 23.5q0 13 9.5 22t22.5 9q4 0 20.5 -5.5t39.5 -14.5t49.5 -19.5t52 -20.5t46.5 -17t32 -10q21 47 46 99.5t58.5 96.5t78.5 73t106 29q56 0 90 -34t34 -90q0 -43 -17 -78t-45.5 -62t-65 -47.5t-76.5 -33.5
t-80.5 -19.5t-75.5 -6.5h-13q-31 -74 -60 -147.5t-61 -147.5q19 -9 45 -26t53 -33.5t53 -28.5t45 -12q24 0 48 15t47.5 33.5t44 33.5t36.5 15q5 0 11.5 -3t6.5 -10q0 -24 -22.5 -49t-53 -46t-63.5 -34.5t-54 -13.5q-32 0 -61 11t-57 27t-55 33.5t-54 30.5q-12 -21 -27.5 -41
t-34 -35.5t-41 -24.5t-48.5 -9q-20 0 -41 4.5t-38 15t-28.5 27t-11.5 39.5q0 29 15 50.5t38.5 36t51 21.5t52.5 7q40 0 82 -11q35 69 61 140t55 143zM657 746q-38 0 -70 -27.5t-58 -66t-46.5 -80.5t-34.5 -71q36 0 83.5 11.5t90.5 34t73 55.5t30 77q0 28 -20 47.5t-48 19.5z
M100 43q21 0 36.5 4t27.5 12t22 20.5t21 29.5q-19 4 -42 4q-10 0 -27 -3t-33 -9.5t-28 -16t-12 -22.5q0 -14 12 -16.5t23 -2.5z" />
    <glyph glyph-name="M" unicode="M" horiz-adv-x="1106" 
d="M935 84q0 53 12 115t29.5 125t38.5 124t39 111l-421 -581q-4 -5 -12.5 -8.5t-14.5 -3.5q-12 0 -23.5 12t-8.5 25l168 655q-31 -37 -73.5 -101.5t-93 -140.5t-106 -154.5t-112 -142t-111 -104t-102.5 -40.5q-19 0 -43.5 7t-47 20t-38 31t-15.5 40q0 14 8.5 25t23.5 11
q12 0 19.5 -11.5t16.5 -25t22.5 -24.5t37.5 -11q38 0 82.5 33t92.5 87t98 122.5t98.5 140.5t94 140.5t85.5 122.5t72.5 87t54.5 33q12 0 21 -9t9 -21t-10 -56.5t-25 -106t-33.5 -132t-36 -135t-31 -115.5t-19.5 -73l458 632q5 7 13 11.5t16 4.5q12 0 21 -9t9 -21
q0 -13 -5.5 -33.5t-13.5 -42.5t-16 -43t-13 -34q-23 -62 -49 -130t-47.5 -139t-35.5 -141.5t-14 -136.5q0 -13 4 -27t21 -14q14 0 37.5 12t49 28.5t48.5 33.5t35 26q13 0 22.5 -9t9.5 -23q0 -11 -12 -25t-30.5 -28.5t-41.5 -29t-45 -26t-40.5 -18.5t-28.5 -7q-28 0 -46.5 9
t-30 25t-16.5 37.5t-5 46.5z" />
    <glyph glyph-name="N" unicode="N" horiz-adv-x="795" 
d="M191 -33q-18 0 -35 2.5t-34 9.5q-11 4 -31.5 19t-40.5 34t-35 37.5t-15 30.5q0 14 9 23t23 9q11 0 29 -16.5t39 -36t42.5 -36t39.5 -16.5q27 0 54.5 20t53.5 51.5t49.5 71t44 78t37 73t27.5 55.5q9 17 29.5 55.5t48 86t58.5 98t61 92t55.5 68.5t42.5 27q12 0 22 -9
t10 -22q0 -51 -5.5 -100t-9.5 -100l-32 -417q29 38 49 82t43 86q15 29 37 69t48 84.5t55.5 89.5t59.5 84.5t60.5 70t58.5 44.5q37 19 78 29t83 10q13 0 23.5 -9t10.5 -23q0 -15 -16 -23t-37 -12.5t-42.5 -6.5t-31.5 -5q-37 -12 -68 -37t-56.5 -56.5t-47 -67t-40.5 -66.5
q-9 -16 -33 -59t-55 -99t-65 -117t-62.5 -112.5t-47.5 -85.5t-21 -36q-12 -12 -28 -12q-15 0 -23 11.5t-8 25.5q0 54 6 107t10 107l34 448q-50 -64 -90 -133.5t-77 -140.5t-74.5 -142.5t-81.5 -138.5q-14 -22 -34.5 -48.5t-45 -50t-52 -39.5t-56.5 -16z" />
    <glyph glyph-name="O" unicode="O" horiz-adv-x="357" 
d="M0 206q0 53 12 118.5t35 132.5t57.5 130t79.5 112t100 78.5t119 29.5q42 0 80.5 -16.5t65.5 -48.5q-1 9 0 19.5t4.5 19.5t10.5 15t19 6q15 0 23 -13t12.5 -30.5t7.5 -35.5t8 -28l7 -4l8 -1q10 3 25.5 13t33.5 22.5t36 26t33.5 25t26.5 19t15 7.5q13 0 21.5 -9.5
t8.5 -21.5t-12 -28t-30.5 -32t-41.5 -32t-45.5 -28t-42.5 -19.5t-31 -7.5q-22 0 -40 12h-1q-8 -54 -21 -124t-33.5 -143t-50 -143.5t-71.5 -125.5t-98 -89t-128 -34q-53 0 -91 17t-63 47.5t-37 72.5t-12 91zM202 43q54 0 99.5 31t83 81.5t66 114t47.5 128t29 124.5t10 103
q0 25 -11.5 46t-30 36.5t-41.5 24t-46 8.5q-55 0 -101.5 -26.5t-84.5 -70t-67 -99.5t-49 -114.5t-30 -115t-10 -101.5q0 -33 7 -64t23 -54.5t42 -37.5t64 -14z" />
    <glyph glyph-name="P" unicode="P" horiz-adv-x="259" 
d="M427 728q-25 -6 -54 -20t-58.5 -32t-57.5 -37t-50.5 -35t-38 -26.5t-18.5 -10.5q-13 0 -22 9t-9 22q0 8 2.5 13.5t7.5 10.5q29 36 71 68t90 56.5t99 39t97 14.5q51 0 101.5 -14t90.5 -42.5t65 -71t25 -100.5q0 -69 -31.5 -111t-80 -65t-107.5 -30.5t-113 -7.5l-19 9
q-8 -27 -19 -67t-27 -84t-36 -88.5t-45 -79.5t-55 -57t-65 -22q-33 0 -55.5 6.5t-40 19.5t-32 32.5t-32.5 44.5q-4 5 -7 11t-3 13q0 13 9.5 22.5t22.5 9.5q19 0 32.5 -14.5t26.5 -31.5t27.5 -31.5t36.5 -14.5q28 0 53.5 24.5t47.5 66t41.5 95t36 112.5t30.5 118.5t25 112
t20 94t16 64.5zM488 717q0 -76 -19 -149t-37 -146q24 9 53.5 11.5t59.5 5t58.5 7.5t50.5 18.5t35.5 38t13.5 65.5q0 44 -20.5 75.5t-52 52t-71 30t-76.5 9.5q1 -3 3 -9.5t2 -8.5z" />
    <glyph glyph-name="Q" unicode="Q" horiz-adv-x="567" 
d="M605 637l-1 -7q-6 -74 -20.5 -148t-38.5 -145t-59 -137t-83 -124q17 -15 37 -25t43 -10q30 0 58.5 15t54 32.5t46.5 32.5t34 15q8 0 10.5 -5t2.5 -12q0 -28 -23.5 -54t-56.5 -45.5t-68.5 -31t-59.5 -11.5q-35 0 -66.5 15t-55.5 41q-34 -26 -75 -41t-85 -15
q-52 0 -89.5 18t-62 48.5t-36 72t-11.5 89.5q0 53 12 118.5t35 132.5t57 130t79 112.5t100 79t119 29.5q42 0 80 -17t66 -48q0 11 1 22.5t5 21.5t12 16t22 6q16 0 22.5 -18.5t10.5 -40.5t7.5 -40.5t13.5 -18.5q20 0 46.5 17.5t52 39t46.5 39t32 17.5q13 0 21.5 -9.5
t8.5 -21.5t-12 -28t-30.5 -32t-41.5 -32t-45.5 -28t-42.5 -19.5t-31 -7.5q-22 0 -40 12h-1zM223 106q-6 -13 -15.5 -27t-26.5 -14q-14 0 -22.5 10t-8.5 23q0 16 9 30t22.5 25t29.5 17.5t31 6.5q34 0 64 -16t53 -39q34 39 67 102t58 133.5t40.5 140t15.5 121.5
q0 25 -11.5 47.5t-30 38.5t-42.5 25.5t-48 9.5q-56 0 -102.5 -27t-85 -71.5t-67.5 -101t-48.5 -116t-29.5 -117t-10 -102.5q0 -34 7.5 -63.5t23.5 -51.5t42 -34.5t64 -12.5q29 0 57 10t52 27q-14 11 -31 21t-36 10q-5 0 -10.5 -1t-10.5 -4z" />
    <glyph glyph-name="R" unicode="R" horiz-adv-x="750" 
d="M671 -25q-44 0 -73.5 32.5t-48.5 78t-29 94.5t-16 82q-5 28 -8 45t-9 30t-18 24.5t-36 29.5l-9 7q-10 -29 -22.5 -71.5t-28.5 -89.5t-36 -94.5t-45 -85.5t-56.5 -61.5t-70.5 -23.5q-20 0 -48.5 11t-54.5 28.5t-44 39.5t-18 45q0 13 9.5 22.5t22.5 9.5q19 0 33 -14.5
t27.5 -32t29.5 -32t40 -14.5q29 0 54 24.5t47.5 65.5t41 95t35 113t29.5 118.5t23.5 112t18.5 94.5t13 65l1 3q-73 -20 -132.5 -60t-117.5 -87q-6 -5 -12 -8.5t-14 -3.5q-13 0 -22 9t-9 22q0 12 10 24q29 36 73.5 68.5t95.5 57t104 39t100 14.5q46 0 94 -15t87 -43.5
t64 -69.5t25 -93q0 -50 -22 -84.5t-56.5 -56t-77.5 -32.5t-85 -14q11 -19 19.5 -50t17 -67t17 -73.5t19 -70t24 -56.5t31.5 -33q34 0 64 14t55 31t44 31t31 14q14 0 16 -12t2 -22q0 -17 -25 -38.5t-58.5 -40.5t-66.5 -32t-49 -13zM703 589q0 34 -19.5 61t-48.5 46.5t-63 30
t-64 10.5l-27 -1q7 -10 7 -23q0 -33 -5 -66t-12.5 -65t-16.5 -64.5t-16 -64.5q11 6 35.5 8t54 4t60.5 7t56.5 18t42 36.5t16.5 62.5z" />
    <glyph glyph-name="S" unicode="S" horiz-adv-x="265" 
d="M390 445q-11 2 -36 8.5t-55 16.5t-62.5 21.5t-59.5 24.5t-44 26t-17 25q0 13 9 22t22 9q5 0 23 -6t42.5 -15t53.5 -20t56.5 -21.5t50.5 -18t37 -10.5q15 45 35 98t50 98t72 75t100 30q129 0 129 -131q0 -56 -34.5 -102t-86 -78t-110.5 -48t-108 -13q-10 -36 -23 -83.5
t-30 -99t-39.5 -101.5t-52.5 -89t-67.5 -63.5t-85.5 -24.5q-22 0 -49.5 10t-52 27t-41 39.5t-16.5 47.5q0 13 8.5 23t22.5 10q12 0 23 -14.5t26 -32.5t36.5 -32.5t54.5 -14.5q29 0 54.5 24t47.5 61.5t40.5 84t33.5 92t25.5 84t17.5 61.5zM666 743q-42 0 -72.5 -26t-53 -63.5
t-38 -79.5t-26.5 -74q39 1 83.5 14t82.5 37.5t63 59.5t25 80q0 32 -18 42t-46 10z" />
    <glyph glyph-name="T" unicode="T" horiz-adv-x="275" 
d="M107 509q-15 1 -24 12t-9 25q0 53 18.5 103t52 89t80 62.5t101.5 23.5q43 0 86 -6.5t85.5 -14t85 -13.5t84.5 -6q29 0 54.5 5.5t44.5 12.5t31 12.5t15 5.5q11 0 20 -8.5t9 -19.5q0 -27 -18 -43.5t-43.5 -25.5t-53 -11.5t-47.5 -2.5q-38 0 -74.5 6.5t-72.5 15.5q2 -8 2 -9
q0 -10 -6.5 -30.5t-14.5 -43.5t-16.5 -45t-11.5 -35q-29 -107 -53 -214t-59 -213q-11 -31 -27 -60t-38 -52t-50.5 -37t-64.5 -14q-19 0 -51.5 11t-64 29t-54.5 40t-23 44q0 14 9.5 22.5t22.5 8.5q16 0 33 -13t37 -29t43.5 -29t50.5 -13q31 0 55.5 24t44.5 65t36 94.5t30 112
t26.5 118.5t25 114t26.5 98t31 71q-32 7 -63 12t-63 5q-55 0 -90 -19t-57 -47.5t-33.5 -61.5t-19.5 -61t-16 -46.5t-22 -18.5z" />
    <glyph glyph-name="U" unicode="U" horiz-adv-x="532" 
d="M105 129q0 -11 3.5 -26.5t10 -30.5t16.5 -25.5t24 -10.5q32 0 64 20.5t62 53t56.5 73.5t49 82.5t39 79t26.5 64.5q6 17 15.5 48.5t20 69.5t22 78.5t22.5 75.5t20.5 61t16.5 35q10 12 21.5 18.5t28.5 6.5q11 0 13 -6.5t2 -14.5q0 -19 -6 -42t-14 -46t-17.5 -45.5
t-15.5 -41.5q-19 -55 -41.5 -123.5t-42 -140t-32.5 -141t-13 -126.5q0 -15 3.5 -25.5t22.5 -10.5q12 0 35 15.5t47 34.5t45 34.5t31 15.5q5 0 8 -5t5 -11.5t2.5 -13.5t0.5 -10q0 -11 -24 -32t-55 -42t-60.5 -36.5t-41.5 -15.5q-30 0 -47.5 12t-26 30.5t-11 42t-2.5 47.5
q0 15 2 30t5 30q-18 -25 -43 -59t-55 -64.5t-63.5 -52t-67.5 -21.5q-40 0 -65 16t-39 42t-19 58.5t-5 65.5q0 77 24 148.5t53.5 142t53.5 142.5t24 149q-10 -6 -34.5 -25t-50.5 -40t-48 -37t-28 -16q-13 0 -22.5 8t-9.5 22q0 13 12 29.5t31 33.5t43 34t47 30t43.5 21t32.5 8
q13 0 23 -7t16.5 -17.5t9.5 -23.5t3 -24q0 -53 -11.5 -103t-29 -98.5t-37.5 -97t-37.5 -97.5t-29 -99.5t-11.5 -103.5z" />
    <glyph glyph-name="V" unicode="V" horiz-adv-x="268" 
d="M194 732q-10 -6 -34.5 -25t-51 -40t-48.5 -37t-28 -16q-13 0 -22.5 8t-9.5 22q0 13 12 30t31.5 34t43 33.5t47 29.5t44 21t32.5 8q13 0 22.5 -7.5t16 -18.5t9.5 -24t3 -24q0 -52 -11.5 -101t-29 -97.5t-37.5 -96t-37.5 -95.5t-29 -98t-11.5 -102q0 -18 2 -35t8.5 -31
t19.5 -22.5t35 -8.5q49 0 88.5 25.5t71 66.5t55.5 93.5t41 106.5t27.5 104.5t15.5 88.5q3 18 5 56t5 78.5t6 74t8 44.5t12 18t19 7q19 0 25.5 -17.5t10 -38.5t8.5 -38.5t22 -17.5q16 0 41 17.5t50.5 39t47 39t31.5 17.5q13 0 21.5 -9.5t8.5 -21.5q0 -18 -25 -43.5
t-58.5 -48.5t-67.5 -39t-51 -16q-23 0 -41 12q-5 -54 -15.5 -124t-29.5 -144t-47.5 -144.5t-69.5 -126.5t-96 -90t-126 -34q-38 0 -62 13.5t-37.5 36t-18.5 52t-5 61.5q0 52 11.5 104t29 102.5t37.5 100t37.5 98t28.5 96t10 94.5z" />
    <glyph glyph-name="W" unicode="W" horiz-adv-x="550" 
d="M292 729q0 -47 -16.5 -97.5t-41.5 -103.5t-54 -107.5t-54 -108.5t-41.5 -107.5t-16.5 -103.5q0 -23 11.5 -43.5t37.5 -20.5q15 0 26 7q66 44 111.5 97.5t78 113.5t55.5 125t44 131.5t43 134t53 131.5q5 11 12 18t20 7q19 0 25 -13t6 -28q0 -31 -13 -75.5t-33 -96.5
t-43 -110t-43 -116.5t-33 -115.5t-13 -107q0 -15 1 -33t7 -33.5t17.5 -25.5t32.5 -10q27 0 55 22.5t52.5 54t44 65t29.5 55.5q39 90 62 187t32 194q1 17 1.5 38.5t1.5 44t3 43t8 35.5q4 11 11.5 18t19.5 7q21 0 28.5 -17.5t11 -38.5t8 -38.5t18.5 -17.5q16 0 41 17.5
t50.5 39t47 39t31.5 17.5q13 0 21.5 -9.5t8.5 -21.5t-12 -29t-31.5 -35t-43 -35.5t-46.5 -31.5t-43 -22.5t-32 -8.5q-13 0 -21 9t-14 18q-7 -66 -17 -132.5t-26.5 -131.5t-41 -127.5t-60.5 -119.5q-15 -24 -36 -51.5t-46 -50.5t-54.5 -38t-60.5 -15q-39 0 -64.5 17.5
t-39.5 45t-18.5 61t-2.5 65.5q-18 -26 -45.5 -60t-60 -64t-68 -51t-69.5 -21q-28 0 -48 11t-32.5 29t-18 41.5t-5.5 48.5q0 55 16.5 111.5t41.5 111.5t53.5 109t53.5 104.5t41.5 97.5t16.5 89q0 6 -3 12t-11 6q-14 0 -39.5 -19t-53 -41.5t-51 -41.5t-33.5 -19q-12 0 -22 8.5
t-10 21.5q0 14 14 31.5t36 35t49.5 34t54 29t49.5 20t36 7.5t23 -7t16.5 -17.5t10 -23.5t3.5 -24z" />
    <glyph glyph-name="X" unicode="X" horiz-adv-x="554" 
d="M411 426q20 52 25 113t5 116v23t-3 27.5t-10 23.5t-20 10q-15 0 -33.5 -12t-39 -30.5t-41 -40t-38.5 -40t-32 -30.5t-22 -12q-13 0 -22.5 9.5t-9.5 22.5q0 15 14 35.5t36.5 43t50 44.5t54.5 39.5t50.5 28.5t37.5 11q28 0 46 -15.5t28.5 -39t15 -50t5.5 -47.5
q15 26 35 52.5t44.5 47.5t53 34.5t61.5 13.5q24 0 48 -7.5t43 -22t31 -35.5t12 -48q0 -40 -19 -75t-49.5 -66t-70 -57t-80.5 -47.5t-81 -38.5t-71 -29q-17 -72 -33 -145t-16 -148q0 -7 0.5 -17.5t2.5 -20.5t7.5 -17t16.5 -7q14 0 34.5 8.5t43 20.5t45 27t41 27t32 20.5
t16.5 8.5q13 0 22.5 -9t9.5 -22q0 -12 -16 -27.5t-40.5 -32t-54.5 -32.5t-58.5 -28.5t-52 -20.5t-34.5 -8q-29 0 -45.5 17.5t-24 42.5t-9 52.5t-1.5 48.5q-18 -28 -41.5 -55t-51 -48t-59 -34t-67.5 -13q-26 0 -50 8.5t-42 24t-29 38t-11 49.5q0 45 20.5 84.5t54.5 72.5
t77.5 61t89 50.5t90 40t79.5 31.5zM133 31q48 0 90 35t75 85t56.5 104.5t35.5 93.5q-25 -10 -58.5 -24t-70 -32.5t-72 -41t-63.5 -48.5t-45.5 -54.5t-17.5 -59.5q0 -29 22 -43.5t48 -14.5zM710 740q-27 0 -52 -15t-47.5 -39.5t-42 -55t-35 -62t-27.5 -61t-19 -51.5
q21 8 50.5 21.5t61.5 30.5t63 37.5t55.5 44t39.5 49t15 52.5q0 11 -6 20t-15 15.5t-20 10t-21 3.5z" />
    <glyph glyph-name="Y" unicode="Y" horiz-adv-x="527" 
d="M106 137q0 -17 2.5 -35t10 -32.5t21 -24t34.5 -9.5q29 0 60.5 20.5t62 53t59 73.5t51.5 82t40 78t25 62q20 63 37 126l34 126q8 29 13.5 59.5t17.5 57.5q5 11 12.5 18t20.5 7q11 0 21 -8.5t10 -20.5q0 -21 -11.5 -74t-30 -123t-40.5 -149.5t-43 -152.5t-38.5 -132.5
t-26.5 -89.5q19 3 52 18.5t65.5 32t57.5 30t30 13.5q23 0 23 -23q0 -17 -15 -33t-38 -31.5t-51.5 -29.5t-56.5 -25t-52 -19t-37 -11q-8 -23 -18 -54.5t-23.5 -65.5t-30.5 -67.5t-38 -60t-46 -43t-55 -16.5q-47 0 -73 24t-26 72q0 44 28 83.5t68 72.5t84.5 59.5t77.5 46.5
l39 143q-18 -25 -46.5 -59t-61.5 -64.5t-68.5 -52t-69.5 -21.5q-40 0 -65 16t-39 42t-19 58.5t-5 65.5q0 77 24.5 149t54 143t53.5 142.5t23 147.5l-6 6q-16 -3 -39.5 -23t-47.5 -42.5t-43 -40.5t-26 -18q-13 0 -22.5 8t-9.5 22q0 13 12 30t31.5 34t43 33.5t47 29.5t44 21
t32.5 8q13 0 22.5 -7.5t16 -18.5t9.5 -24t3 -24q0 -52 -11.5 -101t-28.5 -97.5t-37.5 -96t-37.5 -95.5t-28.5 -97.5t-11.5 -101.5zM182 -247q0 -25 24 -25q21 0 43 25.5t41 59t33.5 67.5t20.5 52q-21 -15 -49 -33.5t-53 -41t-42.5 -48.5t-17.5 -56z" />
    <glyph glyph-name="Z" unicode="Z" horiz-adv-x="566" 
d="M296 736q-25 0 -39.5 -12t-23 -30.5t-13 -39.5t-9.5 -39.5t-13 -30.5t-23 -12t-23.5 11.5t-8.5 25.5q0 30 10 63.5t29 62t46 47.5t61 19t66.5 -9.5t64 -21t64 -21t66.5 -9.5q27 0 50 10t41 21.5t32 21.5t24 10q13 0 21.5 -9.5t8.5 -21.5q0 -6 -13 -28.5t-33.5 -53.5
t-44.5 -66.5t-46.5 -68.5t-40.5 -58.5t-25 -35.5q16 0 31 1.5t31 1.5q6 0 18 -0.5t24 -3t21 -7.5t9 -15q0 -20 -22.5 -29t-52 -12t-59 -2t-43.5 1q-48 -71 -93 -145t-100 -140q39 -28 84 -49.5t95 -21.5q36 0 69 15t60 33.5t47 33.5t31 15q14 0 16.5 -10t2.5 -20
q0 -15 -13 -30.5t-34 -30.5t-46.5 -27.5t-50.5 -22.5t-47 -15.5t-35 -5.5q-60 0 -114.5 25.5t-102.5 59.5q-15 -17 -33 -34t-38 -30.5t-42 -21.5t-47 -8q-39 0 -64.5 25.5t-25.5 64.5q0 25 10 48.5t27 41t39.5 28t48.5 10.5q29 0 57 -11t52 -27q42 63 84 125t84 125
q-14 -1 -29 -2t-29 -1q-9 0 -20.5 1t-22 4.5t-17.5 10.5t-7 19q0 21 21.5 29t50 9t56.5 -2t41 -3l147 218q-10 -2 -20 -3t-20 -1q-34 0 -65.5 9.5t-63 21t-63 21t-65.5 9.5zM195 95q-17 9 -35.5 16.5t-38.5 7.5q-11 0 -21 -6.5t-17.5 -16.5t-12 -21.5t-4.5 -21.5
q0 -11 6.5 -17.5t17.5 -6.5q33 0 59 21t46 45z" />
    <glyph glyph-name="bracketleft" unicode="[" horiz-adv-x="447" 
d="M459 917q0 -12 -8 -21t-19 -11h2q-21 -2 -42 -3t-42 -3q-28 -243 -52 -483.5t-51 -483.5q10 -1 26.5 -1t32 -2.5t26.5 -10t11 -23.5q0 -14 -8 -21t-19.5 -9.5t-24.5 -2.5h-23q-11 0 -26.5 1t-29.5 5.5t-24 13t-10 24.5q0 10 4.5 58.5t12 122t17 164t19.5 183.5t20 182
t18 158.5t13.5 113.5t6.5 48q4 13 19 19.5t33.5 9.5t37 3.5t29.5 0.5q8 0 17 -1t16.5 -4t12.5 -9.5t5 -17.5z" />
    <glyph glyph-name="backslash" unicode="\" horiz-adv-x="255" 
d="M360 -69q-17 0 -31.5 11.5t-23.5 25.5q-9 15 -22.5 62t-28.5 112t-31 139t-30 143t-25.5 124.5t-17.5 83.5q-2 9 -7.5 29.5t-13 46.5t-15 53.5t-14 51.5t-11 40.5t-4.5 19.5q0 18 18 18q20 0 33.5 -13t21.5 -29q14 -25 29 -76.5t30.5 -116.5t30.5 -138t28.5 -142
t25 -127.5t20.5 -94.5q8 -35 17 -69t19 -68q1 -3 4 -13t7 -21t7 -20t3 -11q0 -9 -4.5 -15t-14.5 -6z" />
    <glyph glyph-name="bracketright" unicode="]" horiz-adv-x="382" 
d="M91 -124q0 12 8.5 20.5t19.5 10.5v1l17 2q17 1 32.5 1.5t32.5 2.5q28 243 51.5 483.5t50.5 483.5q-10 1 -26.5 0.5t-32 2t-27 9.5t-11.5 23q0 15 8 22t20 9.5t25 2.5h23q11 0 26.5 -1t29.5 -5t24 -12.5t10 -24.5q0 -8 -4.5 -56t-12 -121.5t-17 -164.5t-20 -185
t-20 -183.5t-17.5 -160t-13 -114t-6 -45.5q-4 -13 -20 -20t-36 -10t-39.5 -3.5t-30.5 -0.5q-16 0 -30.5 6.5t-14.5 26.5z" />
    <glyph glyph-name="asciicircum" unicode="^" horiz-adv-x="284" 
d="M259 704q-5 -12 -18 -43t-28.5 -63.5t-31.5 -58t-28 -25.5q-14 0 -22.5 10t-8.5 23q0 3 8 23t20 48.5t26 61.5t27 62t23 49.5t13 24.5q6 8 12 12.5t16 4.5q11 0 18.5 -6.5t12.5 -14.5q0 -1 5 -19.5t12.5 -46.5t16 -61t15.5 -62t12 -49t5 -22q0 -14 -9 -23t-23 -9
q-16 0 -28.5 24t-21.5 55.5t-14.5 61.5t-8.5 43z" />
    <glyph glyph-name="underscore" unicode="_" horiz-adv-x="589" 
d="M-20 -76q0 13 9 20.5t21.5 11.5t26.5 4.5t23 0.5q128 0 255 -1.5t255 -1.5q13 0 23 -9.5t10 -22.5q0 -8 -9.5 -12t-15.5 -6q-27 -9 -70 -13.5t-90 -6.5t-91.5 -2.5t-74.5 -0.5q-61 0 -121.5 3t-121.5 3q-12 0 -20.5 11t-8.5 22z" />
    <glyph glyph-name="grave" unicode="`" horiz-adv-x="437" 
d="M781 516q-9 0 -26 10.5t-37.5 26.5t-42 36t-39 39t-29 35t-11.5 25q0 11 7 19t19 8q8 0 25 -10.5t37.5 -27t42 -36.5t39 -39.5t29 -35.5t11.5 -24q0 -11 -7 -18.5t-18 -7.5z" />
    <glyph glyph-name="a" unicode="a" horiz-adv-x="617" 
d="M6 -7q0 7 17.5 31.5t44.5 57.5t59.5 70.5t62.5 71.5t54 60.5t33 37.5q18 22 43 41t53.5 33t58.5 22t59 8q31 0 57.5 -16t44.5 -39q6 16 16 33.5t30 17.5q14 0 22 -11.5t8 -24.5q0 -14 -10 -39t-25.5 -56t-33.5 -65.5t-33.5 -66.5t-25.5 -59t-10 -43q0 -6 4 -11t11 -5
q23 0 49.5 14.5t51 32t43.5 32t27 14.5q11 0 17.5 -12.5t6.5 -21.5q0 -11 -12 -24.5t-30.5 -27.5t-41 -26.5t-44.5 -22.5t-41 -16t-29 -6q-26 0 -49 14t-29 41q-38 -22 -82.5 -43.5t-89.5 -21.5q-35 0 -57.5 15.5t-35 40.5t-15.5 54.5t2 58.5q-8 -11 -30 -38.5t-47 -56.5
t-48.5 -51.5t-33.5 -22.5q-11 0 -16.5 8.5t-5.5 17.5zM484 121q6 17 17.5 40t22.5 46.5t19 46t8 39.5q0 26 -15 47t-43 21q-50 0 -95 -23.5t-78.5 -61t-53 -85t-19.5 -95.5q0 -62 61 -62q26 0 49.5 8t45 21t42 28t39.5 30z" />
    <glyph glyph-name="b" unicode="b" horiz-adv-x="649" 
d="M25 22q0 6 13 24t33 43t44.5 53.5t47.5 54.5t41 46t26 29q4 30 19 81t37 110t50.5 119.5t61.5 109.5t69 80t72 31q42 0 68 -22t26 -65q0 -29 -19.5 -69t-50 -84.5t-68.5 -91.5t-76 -89t-72 -76.5t-55 -55.5q-7 -35 -7 -75q0 -23 3.5 -46.5t13.5 -42.5t27.5 -31t46.5 -12
q37 0 64 19t44 48.5t25 64t8 66.5q0 37 -9 72t-9 72q0 14 9 25t23 11q16 0 29.5 -17.5t29.5 -38t35.5 -38t47.5 -17.5q14 0 26.5 3.5t26.5 3.5q13 0 22.5 -9t9.5 -22q0 -14 -10 -22t-24 -12.5t-28.5 -5.5t-24.5 -1q-24 0 -47 7t-43 22l1 -24q0 -50 -12.5 -99t-39 -88
t-67.5 -63t-98 -24q-42 0 -70 16t-45 42t-24 60t-7 70q-7 -9 -20 -25t-28.5 -35t-33 -38.5t-34 -36t-30.5 -26.5t-23 -10q-12 0 -18.5 9t-6.5 20zM314 361q15 12 39.5 38t52 59t55.5 70t50.5 72.5t36.5 65.5t14 49q0 8 -4.5 17.5t-15.5 9.5q-15 0 -37.5 -24t-48 -61
t-51 -81.5t-46 -87t-33 -77t-12.5 -50.5z" />
    <glyph glyph-name="c" unicode="c" horiz-adv-x="419" 
d="M3 -8q0 6 15.5 28t39.5 52t53 64t56 65t48 55t29 34q21 25 47.5 50t57 44t63.5 31t68 12q11 0 27 -2.5t30.5 -8.5t25 -16t10.5 -24t-10.5 -22t-23.5 -8l-11 1q-8 5 -16.5 9.5t-18.5 4.5q-46 0 -86 -22t-72 -53v-2q-37 -35 -59.5 -84t-22.5 -100q0 -31 15 -43.5t45 -12.5
q37 0 71 14.5t63 32.5t51.5 32.5t36.5 14.5q10 0 15.5 -11.5t5.5 -19.5q0 -14 -15 -29t-38 -29.5t-51.5 -27t-56 -22t-51 -15t-35.5 -5.5q-73 0 -101 39t-20 108q-9 -12 -30.5 -38.5t-46 -54.5t-47.5 -49t-36 -21q-12 0 -18.5 9t-6.5 20z" />
    <glyph glyph-name="d" unicode="d" horiz-adv-x="623" 
d="M7 -5q0 7 15 27.5t37.5 49t50.5 60.5t53.5 61t45.5 52t28 33q22 27 50.5 53.5t61.5 47.5t69 34t72 13q29 0 52 -15t40 -38l164 425q3 7 13 11.5t17 4.5q14 0 22 -11t8 -24q0 -31 -20 -86.5t-50.5 -123.5t-66 -143t-66 -145.5t-50.5 -130t-21 -97.5l7 -14q26 0 54 15
t53.5 33t46 32.5t30.5 14.5q14 0 15.5 -12.5t1.5 -21.5q0 -14 -12 -29t-31 -28.5t-43 -25.5t-47 -21.5t-43.5 -14.5t-32.5 -5q-35 0 -49 15t-9 50q-40 -23 -86 -43.5t-93 -20.5q-32 0 -54.5 11t-36 30t-19 44.5t-2.5 54.5q-9 -11 -29 -36t-42.5 -50.5t-44.5 -45t-34 -19.5
t-18.5 9t-6.5 20zM249 93q0 -28 13 -39t40 -11q48 0 94.5 24t83.5 53q6 22 15.5 44.5t19.5 45t17 45t7 46.5t-10 42t-38 18q-51 0 -95 -24t-76.5 -62t-51.5 -86t-19 -96z" />
    <glyph glyph-name="e" unicode="e" horiz-adv-x="435" 
d="M140 46q-9 -5 -25 -15.5t-34 -21t-34.5 -18.5t-24.5 -8q-5 0 -9 5t-6.5 11.5t-3.5 13t-1 10.5q0 9 17 22.5t39 27.5t43.5 26t30.5 18q10 54 35.5 109t64 99.5t89.5 72.5t111 28q18 0 35 -4.5t30.5 -14.5t22 -24.5t8.5 -34.5q0 -28 -18.5 -55.5t-47.5 -53t-65.5 -48.5
t-72.5 -43.5t-69 -37t-54 -28.5q14 -23 31.5 -30t43.5 -7q42 0 74 9.5t60.5 23t57 29t63.5 27.5q11 -3 17 -13.5t6 -21.5q0 -19 -18 -35.5t-45.5 -30t-62 -24t-67.5 -18t-61 -11t-43 -3.5q-38 0 -70 16.5t-47 52.5zM440 361q-41 0 -78.5 -17t-67.5 -45t-52 -64t-32 -74
q12 7 35.5 20t51.5 29t57 34t53 36t39 35.5t15 31.5q0 9 -7 11.5t-14 2.5z" />
    <glyph glyph-name="f" unicode="f" horiz-adv-x="390" 
d="M6 -9q0 7 19.5 33.5t49.5 63t66.5 78.5t70 79t59.5 65t36 37q7 28 18 73.5t26 97t35 103.5t45 93.5t56.5 68t68.5 26.5q19 0 34.5 -9.5t26 -24t16 -32.5t5.5 -35q0 -30 -14.5 -65.5t-38.5 -73t-54 -75.5t-61 -72.5t-59 -64.5t-49 -51l-73 -256q52 9 94 28t87 47
q5 3 11 6.5t12 3.5q16 0 21 -12t5 -24q0 -14 -15.5 -28t-39.5 -27t-53.5 -25t-57.5 -21t-51 -14.5t-35 -6.5l-103 -361q-2 -9 -12.5 -14.5t-18.5 -5.5q-15 0 -23.5 11.5t-8.5 25.5q0 7 6.5 32t16 59t21.5 73.5t23.5 75.5t20 65t12.5 42q-26 5 -47.5 20.5t-35.5 37.5
q-6 -7 -16.5 -19.5t-22.5 -25t-24 -22t-21 -9.5q-28 0 -28 29zM547 743q-17 0 -33 -18t-30.5 -46.5t-27.5 -63t-23.5 -67.5t-18 -60.5t-11.5 -41.5q17 21 46 54.5t57.5 70t49 72.5t20.5 63q0 13 -7.5 25t-21.5 12zM220 44q12 44 25 86.5t23 87.5l-95 -114q2 -15 2.5 -26
t4 -18.5t12.5 -11.5t28 -4z" />
    <glyph glyph-name="g" unicode="g" horiz-adv-x="630" 
d="M3 -9q0 5 16 27.5t40.5 53.5t54 67t57 68.5t48.5 57t29 33.5q24 27 48 50.5t50.5 40.5t57.5 27t70 10q22 0 43.5 -4.5t40.5 -17.5q4 8 12 13.5t17 5.5q14 0 23.5 -9.5t9.5 -23.5q0 -12 -5.5 -40t-14.5 -65t-20 -78.5t-21.5 -79.5t-19 -68.5t-13.5 -44.5q46 30 93 58
t92 60q13 0 22.5 -9t9.5 -22q0 -11 -15.5 -27t-39.5 -34.5t-53 -37.5t-56 -36.5t-49.5 -31t-32.5 -21.5q-6 -23 -15.5 -55.5t-23 -67.5t-31 -69.5t-39 -62t-46.5 -44.5t-55 -17q-37 0 -61.5 22.5t-24.5 60.5q0 39 26.5 77.5t63.5 73.5t77 64.5t68 52.5q5 19 6.5 38.5
t7.5 38.5q-37 -19 -77 -33.5t-82 -14.5q-60 0 -89 36.5t-29 93.5q-9 -11 -28 -34.5t-41 -48.5t-42.5 -43.5t-32.5 -18.5q-13 0 -19.5 9t-6.5 20zM475 117l61 212l-1 13q-11 10 -24 14t-27 4q-50 0 -94 -25t-77 -64t-52 -87t-19 -95q0 -23 10 -39.5t36 -16.5q21 0 46.5 9
t51 21.5t48.5 27t41 26.5zM282 -339q24 0 43.5 20.5t34.5 48.5t26 57.5t17 47.5q-15 -14 -38 -32t-45.5 -38.5t-38.5 -43t-16 -43.5q0 -17 17 -17z" />
    <glyph glyph-name="h" unicode="h" horiz-adv-x="622" 
d="M2 -9q0 7 19 33t49 62.5t65.5 77.5t68.5 77.5t59 64.5t36 37q9 28 19.5 73t24.5 96.5t32.5 103t42.5 93.5t54 68t69 26q45 0 69 -27.5t24 -70.5t-27.5 -91.5t-67 -95t-82.5 -87t-74 -67.5l-21 -38l29.5 29.5t35.5 31.5t39 25t40 10q22 0 41.5 -8t34 -22t23 -33.5
t8.5 -41.5q0 -33 -9 -65t-19.5 -63t-19 -62.5t-8.5 -64.5q0 -8 3 -14.5t12 -6.5q15 0 38.5 16t48 34.5t46 34.5t33.5 16q25 0 25 -26q0 -17 -25.5 -41t-59.5 -46t-68 -37t-50 -15q-35 0 -48.5 24.5t-13.5 55.5q0 34 7.5 66.5t17 65t17 65t7.5 66.5q0 11 -6.5 23t-20.5 12
q-39 0 -74 -31t-64 -74.5t-51 -89.5t-34 -77q-8 -20 -13.5 -43t-16.5 -42q-5 -8 -12 -14.5t-18 -6.5q-15 0 -24 11.5t-9 25.5q0 25 9 50.5t20 51t20 50.5t9 50q-8 -10 -26 -33t-41 -51t-48.5 -58t-49 -55t-42.5 -41t-28 -16q-12 0 -18.5 9t-6.5 20zM544 741
q-20 0 -37.5 -17.5t-32.5 -45t-27.5 -61.5t-22 -67t-17 -61t-11.5 -43q18 21 47 55t56 72t47 75t20 64q0 10 -5 19.5t-17 9.5z" />
    <glyph glyph-name="i" unicode="i" horiz-adv-x="364" 
d="M2 0q0 7 22 37t55.5 71t73.5 88.5t77.5 90t66.5 75t40 43.5q8 8 13.5 12t17.5 4q13 0 22.5 -9.5t9.5 -22.5q0 -26 -14.5 -64t-32 -82t-32 -91.5t-14.5 -90.5q0 -3 1 -6.5t2 -6.5q23 0 50 15.5t51 34t43 34t27 15.5q13 0 21 -8t8 -21q0 -10 -12.5 -24.5t-31.5 -30
t-43 -30.5t-46.5 -27t-41.5 -19.5t-29 -7.5q-19 0 -31 6.5t-19 18t-10 26t-3 30.5q0 54 16 103.5t32 99.5q-9 -11 -29.5 -36.5t-47 -58t-55.5 -67.5t-55.5 -64t-47 -47.5t-29.5 -18.5q-12 0 -18.5 9t-6.5 20zM395 711q0 15 5 32t15 32t23.5 25t30.5 10q12 0 20.5 -6
t14 -15.5t8 -20.5t2.5 -21q0 -15 -5 -33t-14 -33.5t-22.5 -26t-31.5 -10.5q-13 0 -21.5 6.5t-14 16.5t-8 21.5t-2.5 22.5z" />
    <glyph glyph-name="j" unicode="j" horiz-adv-x="383" 
d="M5 -1q22 10 56 45t73.5 82t80.5 99.5t77 96.5t63.5 72.5t39.5 28.5q13 0 22 -8t9 -22q0 -12 -6 -38.5t-15 -60.5t-20.5 -72t-22.5 -73.5t-20 -65t-14 -45.5q38 23 75.5 47t75.5 48q11 -1 21 -10.5t10 -21.5q0 -10 -13 -23.5t-33.5 -29t-45 -31.5t-48 -30.5t-42.5 -26
t-28 -18.5q-7 -23 -16.5 -57.5t-22 -73t-29 -76.5t-37 -69t-46 -50t-55.5 -19q-18 0 -33.5 7t-27 19t-18.5 27.5t-7 33.5q0 38 26.5 80t63.5 82.5t77 75t67 57.5q21 74 40 147.5t42 146.5q-7 -16 -27 -45.5t-47 -64.5t-58.5 -71.5t-62 -66t-57.5 -48.5t-44 -19
q-12 0 -18.5 9t-6.5 20q0 4 2 12zM389 711q0 14 5.5 31.5t15 32.5t23 25t30.5 10q25 0 35.5 -21t10.5 -42q0 -15 -5 -33t-14 -33.5t-22.5 -26t-31.5 -10.5q-13 0 -22 6.5t-14.5 16.5t-8 21.5t-2.5 22.5zM95 -337q20 0 39 25.5t34 60t25.5 68t14.5 50.5q-14 -13 -36.5 -35.5
t-44.5 -48.5t-37.5 -51.5t-15.5 -44.5q0 -11 4.5 -17.5t16.5 -6.5z" />
    <glyph glyph-name="k" unicode="k" horiz-adv-x="625" 
d="M8 -1q7 9 31.5 37.5t57.5 66t69 79t66.5 76.5t50.5 58.5t21 24.5q10 28 21 73.5t25 97t32 103.5t42 94t54.5 68.5t69.5 26.5t66 -25t27 -65q0 -36 -21 -79.5t-51 -86t-62.5 -81t-55.5 -65.5q17 9 35.5 15t38.5 6q54 0 78.5 -30t24.5 -81q0 -36 -20.5 -60.5t-50.5 -40
t-65 -23t-63 -9.5q7 -16 23 -39t36 -44t41.5 -36t40.5 -15q23 0 46.5 14.5t46 32t42.5 32t35 14.5q11 0 20.5 -3t9.5 -17q0 -11 -12 -25.5t-31 -30t-42 -31t-45 -27.5t-41 -19.5t-29 -7.5q-35 0 -69 22t-63 54.5t-51 69.5t-32 67q-17 -32 -32.5 -63.5t-27.5 -65.5
q-5 -15 -9 -32t-12 -31q-5 -9 -12.5 -15t-18.5 -6q-12 0 -24 12t-8 25l52 183q-8 -10 -26 -31t-41 -47.5t-48 -55t-48 -52t-41.5 -38.5t-27.5 -15q-12 0 -18.5 9t-6.5 20q0 4 2 12zM551 741q-20 0 -37.5 -17.5t-32.5 -45t-28 -61.5t-23 -67t-17.5 -61t-11.5 -43
q18 21 47.5 55t57 72t48 75t20.5 64q0 11 -5.5 20t-17.5 9zM525 355q-24 0 -44.5 -11t-38 -28.5t-32 -37.5t-26.5 -38q18 2 48.5 5.5t59.5 11.5t50 23.5t21 41.5q0 15 -12 24t-26 9z" />
    <glyph glyph-name="l" unicode="l" horiz-adv-x="450" 
d="M10 24q57 68 114 134.5t116 132.5q2 30 12.5 79.5t28 106.5t42 115.5t54 105.5t64 76.5t71.5 29.5q18 0 37 -6t34 -17.5t24.5 -27.5t9.5 -36q0 -35 -17.5 -75t-45 -81t-62.5 -82.5t-70.5 -80t-67 -73t-53.5 -61.5q-2 -23 -4 -44.5t-2 -44.5q0 -19 2 -42t9.5 -43.5
t22 -34.5t40.5 -14q31 0 61 15t55 32.5t43 32.5t25 15q13 0 20 -8.5t7 -20.5q0 -14 -12.5 -29t-32.5 -29.5t-44.5 -27.5t-48 -23t-44.5 -15.5t-33 -5.5q-42 0 -68.5 19t-41.5 48t-20.5 65t-5.5 70q-7 -8 -22 -26t-34 -39.5t-40 -44.5t-40.5 -42.5t-35.5 -31.5t-24 -12
q-12 0 -18.5 9t-6.5 20q0 4 2 12zM323 386q15 17 38 42t48 54.5t50 61.5t45 63t32.5 59.5t12.5 51.5q0 11 -8.5 18t-19.5 7q-23 0 -45 -21t-43 -54.5t-39 -74.5t-32.5 -80.5t-24.5 -73.5t-14 -53z" />
    <glyph glyph-name="m" unicode="m" horiz-adv-x="678" 
d="M587 355q-34 0 -59.5 -28.5t-46.5 -71t-38.5 -92t-34.5 -92t-35 -71t-40 -28.5q-15 0 -19 12.5t-4 23.5q0 31 13.5 66.5t30 73t30.5 76.5t14 79q0 7 -0.5 16t-2.5 17t-8 13t-16 5q-32 0 -59 -21t-50.5 -54t-43.5 -74t-37 -80.5t-31 -73.5t-26 -53q-5 -9 -12.5 -15
t-18.5 -6q-15 0 -23.5 11.5t-8.5 25.5q0 30 18 74t39.5 92t39 94t17.5 80q-10 2 -17 2q-22 0 -38.5 -11.5t-31 -26t-27 -26t-25.5 -11.5q-14 0 -23 9t-9 23q0 18 18 37.5t43 35.5t51.5 26.5t42.5 10.5q32 0 57.5 -19t25.5 -54q26 26 58 48.5t71 22.5q32 0 57.5 -20t28.5 -53
q24 27 56 50.5t70 23.5q24 0 41.5 -8.5t29.5 -23.5t17.5 -35t5.5 -42q0 -33 -8 -64.5t-18 -63t-18 -63t-8 -64.5q0 -5 1.5 -11.5t9.5 -6.5q13 0 37 16.5t48.5 36t44 36t23.5 16.5q27 0 27 -27q0 -16 -23.5 -40t-55 -46.5t-62.5 -38.5t-46 -16q-35 0 -51 24.5t-16 56.5
q0 33 7.5 65.5t17 64.5t17 64.5t7.5 65.5q0 10 -6 23.5t-18 13.5z" />
    <glyph glyph-name="n" unicode="n" horiz-adv-x="481" 
d="M153 356q-21 0 -36.5 -11.5t-28.5 -26t-25 -26t-25 -11.5q-14 0 -23 9t-9 23q0 16 17.5 35.5t41.5 36t49 28t40 11.5q38 0 57.5 -26t17.5 -61q14 16 31 31t36 27t39.5 19t43.5 7q48 0 72 -30.5t24 -75.5q0 -34 -8.5 -67t-19 -65t-19 -64.5t-8.5 -65.5l7 -12q20 0 45.5 17
t50.5 37t47.5 36.5t37.5 16.5q8 0 12.5 -12t4.5 -18q0 -9 -12 -22.5t-31 -29.5t-42 -32t-45 -29t-40 -21t-27 -8q-44 0 -56.5 20.5t-12.5 60.5q0 34 8 66t17 64.5t17 64.5t8 66q0 14 -5 25.5t-22 11.5q-40 0 -73 -28t-60 -70t-48.5 -91t-40 -91t-34.5 -70t-31 -28
t-23.5 11.5t-8.5 25.5q0 12 7.5 34t18.5 50.5t24 61t24 64t18.5 61t7.5 51.5q0 5 -1 12.5t-9 7.5z" />
    <glyph glyph-name="o" unicode="o" horiz-adv-x="652" 
d="M8 37q47 13 85 47t71 77.5t64.5 90t65.5 85.5t73.5 64t89.5 25q19 0 37 -4t35 -13q10 13 25 13q8 0 14.5 -4t11.5 -9q5 -17 13 -34t19.5 -31t27 -23t35.5 -9q11 0 19.5 3.5t19.5 3.5q13 0 23 -8.5t10 -22.5t-8 -22t-19 -12.5t-24.5 -6t-23.5 -1.5q-24 0 -39 8t-33 23
q-3 -57 -17.5 -111.5t-44 -96.5t-75 -67.5t-111.5 -25.5q-38 0 -65.5 12t-45 33.5t-25.5 51t-8 65.5q-8 -23 -30 -50t-49.5 -50.5t-55.5 -39.5t-48 -16q-11 0 -21.5 6t-15.5 14t-1 17.5t21 17.5zM360 39q54 0 87.5 25t52.5 63.5t25.5 85t6.5 89.5v14q-18 43 -64 43
q-42 0 -77.5 -21t-60.5 -54t-39 -73t-14 -79q0 -37 21.5 -65t61.5 -28z" />
    <glyph glyph-name="p" unicode="p" horiz-adv-x="547" 
d="M39 -415q-10 0 -21.5 8.5t-11.5 19.5q0 10 8.5 41.5t22 76t31.5 99.5t37 113t38.5 116t36 108.5t29 90t17.5 61.5q1 3 2 7t1 7q0 8 -5 14.5t-13 6.5q-14 0 -28.5 -11.5t-29 -25t-28 -25t-24.5 -11.5q-14 0 -23 9t-9 23q0 17 17 35.5t40 33.5t47.5 25t39.5 10q36 0 58 -22
t22 -58q28 32 66 58t83 26q48 0 72 -30.5t24 -75.5q0 -32 -8.5 -62.5t-18 -60.5t-18 -60t-8.5 -62q0 -7 3.5 -17.5t12.5 -10.5q15 0 36.5 15.5t44.5 34.5t45.5 34.5t39.5 15.5q13 0 17.5 -6t4.5 -18q0 -11 -12 -25.5t-30.5 -30t-42 -31t-45.5 -28t-40.5 -20t-28.5 -7.5
q-35 0 -51.5 24.5t-16.5 56.5q0 35 8 68t17.5 66t17.5 66.5t8 68.5q0 12 -7.5 20t-19.5 8q-7 0 -15 -2q-46 -14 -84 -54t-69 -96.5t-56 -124t-46 -136t-39 -133t-34 -114t-31.5 -79.5t-32.5 -30z" />
    <glyph glyph-name="q" unicode="q" horiz-adv-x="570" 
d="M7 30q26 31 59.5 72.5t71.5 85.5t80.5 86.5t86.5 75.5t89.5 53.5t89.5 20.5q28 0 53 -13.5t43 -34.5q5 15 13 30.5t27 15.5q14 0 22.5 -11.5t8.5 -24.5q0 -5 -8 -30t-20 -60.5t-27 -76.5t-28.5 -79t-24 -67.5t-14.5 -41.5l150 100q13 0 23 -8t10 -22q0 -10 -13.5 -23.5
t-34 -29.5t-46 -32.5t-49.5 -31.5t-43.5 -27t-28.5 -18l-109 -323q-3 -9 -12 -14.5t-18 -5.5q-13 0 -22 9.5t-9 22.5q0 7 8.5 35.5t22 68t29.5 85.5t31 88t26.5 75t16.5 47q-40 -21 -86 -36t-92 -15q-33 0 -55 13.5t-34.5 35.5t-15.5 50t3 56q-8 -10 -27.5 -33.5t-41.5 -48
t-42.5 -43t-31.5 -18.5q-15 0 -24 7t-9 23q0 4 2 12zM246 92q0 -18 8 -35t30 -17q28 0 57.5 8t57.5 21t53 30.5t46 36.5q14 38 30.5 75.5t16.5 78.5q0 25 -14 46.5t-42 21.5q-51 0 -95 -23.5t-77 -61t-52 -85.5t-19 -96z" />
    <glyph glyph-name="r" unicode="r" horiz-adv-x="429" 
d="M146 355q-15 0 -30.5 -11.5t-30.5 -25.5t-28.5 -25.5t-24.5 -11.5q-14 0 -23 9t-9 23q0 15 16.5 34t39 35t46.5 27t38 11q24 0 45.5 -11t32.5 -34q18 20 42.5 34t51.5 14q18 0 29.5 -17.5t25 -39t32.5 -39t54 -17.5q14 0 26.5 3.5t26.5 3.5q13 0 22.5 -9t9.5 -22
q0 -14 -9.5 -22.5t-23 -12.5t-28.5 -5t-25 -1q-55 0 -94 30.5t-62 78.5q-23 -8 -43 -38.5t-37.5 -72.5t-34 -89t-31.5 -86t-30 -65t-30 -26t-23.5 11.5t-8.5 25.5q0 30 16 71t35 85.5t35 88t16 78.5q0 7 -3 12.5t-11 5.5z" />
    <glyph glyph-name="s" unicode="s" horiz-adv-x="310" 
d="M3 18q0 6 21.5 35t54 68.5t72 85.5t75.5 86.5t64.5 70.5t38.5 39v2q5 6 12.5 11.5t16.5 5.5q13 0 22 -10.5t9 -23.5q0 -16 -4 -31.5t-4 -31.5q0 -27 4 -53t9.5 -51.5t9.5 -51.5t4 -53q0 -66 -33 -107t-103 -41q-17 0 -39.5 5t-42.5 15.5t-33.5 26.5t-13.5 37q0 14 9 25.5
t24 11.5q14 0 20.5 -8.5t13.5 -18.5t18.5 -18.5t35.5 -8.5q43 0 61 19.5t18 61.5q0 25 -5 49.5t-10 49.5t-8 49.5t0 49.5q-10 -12 -32.5 -40.5t-52 -64.5t-62 -75t-62 -71t-52 -53t-31.5 -21q-12 0 -18.5 9t-6.5 20z" />
    <glyph glyph-name="t" unicode="t" horiz-adv-x="403" 
d="M44 30q60 2 111 37.5t91.5 89t70.5 117.5t48 124q-22 -3 -49.5 0.5t-44.5 3.5q-9 0 -17.5 -1t-15 0.5t-11 7.5t-4.5 19q0 20 20.5 28t47 9t53 -1.5t38.5 -2.5q5 13 13 44t17.5 68.5t21 78t23 74t24.5 55t25 21.5q13 0 22.5 -9t9.5 -22q0 -9 -5 -32t-13 -53.5t-18 -64.5
t-19 -65.5t-17 -57t-12 -37.5l26 2t26 1q9 0 21 -1t23 -4.5t18.5 -11t7.5 -19.5q0 -20 -18 -27t-41.5 -8.5t-47 1t-35.5 2.5q-10 -35 -26 -79.5t-31 -91t-25.5 -90.5t-10.5 -78q0 -7 3 -12t11 -5q17 0 42.5 16.5t50 36.5t44 36.5t25.5 16.5q27 0 27 -28q0 -17 -25.5 -41.5
t-59.5 -46.5t-67.5 -37.5t-49.5 -15.5q-33 0 -47.5 14.5t-17 38.5t4 55.5t15.5 64.5q-53 -93 -112 -134.5t-133 -31.5q-12 2 -15 13.5t1 21.5q2 7 6 11z" />
    <glyph glyph-name="u" unicode="u" horiz-adv-x="667" 
d="M18 13q11 14 41 49.5t68.5 81t82 94.5t81.5 90t66.5 67.5t37.5 26.5q14 0 22 -11t8 -23q0 -16 -12.5 -47t-28 -69t-28 -80t-12.5 -79q0 -8 0.5 -20t3 -23t8.5 -19t18 -8q42 0 75.5 28t61 70t49 91t40 91t34 70t30.5 28q14 0 23 -9.5t9 -23.5q0 -37 -15.5 -77.5
t-34.5 -83.5t-34.5 -87.5t-15.5 -89.5q2 -1 4.5 -2t4.5 -1q25 0 49 13.5t46 30t40.5 30t31.5 13.5q11 0 13 -8t2 -16q0 -22 -21 -45t-50.5 -41.5t-60.5 -30.5t-51 -12q-38 0 -55.5 23.5t-18.5 58.5q-14 -15 -30 -30t-34 -27t-38 -19.5t-42 -7.5q-59 0 -83 32t-24 87
q0 42 10.5 82.5t24.5 79.5q-10 -11 -31 -37t-47.5 -58t-56.5 -66t-57.5 -62.5t-49 -46.5t-31.5 -18q-12 0 -18.5 9t-6.5 20q0 4 2 12z" />
    <glyph glyph-name="v" unicode="v" 
d="M220 41q43 0 77.5 28t62.5 70.5t49.5 91.5t39.5 91.5t32.5 70.5t27.5 28q18 0 29 -17.5t24.5 -38t33 -38t54.5 -17.5q14 0 26 3.5t26 3.5q13 0 23 -8.5t10 -22.5t-10 -22.5t-23.5 -12.5t-28.5 -5t-25 -1q-40 0 -73 19t-56 50q-20 -51 -46.5 -109.5t-64 -109t-87 -84
t-113.5 -33.5q-24 0 -39.5 8.5t-25 23t-13 33t-3.5 39.5q0 33 7.5 64.5t16 63t16 63.5t7.5 65q0 5 -1.5 11.5t-9.5 6.5q-22 0 -39 -11.5t-31 -26t-26 -26t-24 -11.5q-14 0 -23 9t-9 23q0 18 19.5 37.5t46 35.5t54 26.5t43.5 10.5q37 0 50.5 -23.5t13.5 -55.5q0 -33 -7.5 -65
t-16.5 -63.5t-16.5 -63t-7.5 -64.5q0 -14 6 -30.5t24 -16.5z" />
    <glyph glyph-name="w" unicode="w" horiz-adv-x="798" 
d="M445 44q45 0 75.5 28t52 69.5t35.5 90.5t24.5 90.5t21 69.5t24.5 28q23 0 35 -17t24.5 -38t30.5 -38t54 -17q14 0 26 3.5t26 3.5q13 0 23 -8.5t10 -22.5t-10 -22t-24 -12.5t-29 -6t-25 -1.5q-36 0 -67.5 16t-53.5 44q-10 -46 -28.5 -102.5t-48 -106.5t-72 -84t-99.5 -34
q-36 0 -62.5 21.5t-34.5 56.5q-23 -32 -58 -54.5t-76 -22.5q-49 0 -72 29.5t-23 75.5q0 33 8.5 63.5t19 61.5t19 61.5t8.5 63.5q0 13 -7 23l-10 4q-14 0 -30.5 -12.5t-33.5 -27t-32.5 -26.5t-28.5 -12q-14 0 -20 9.5t-6 21.5q0 16 20 35.5t47 36t54 27.5t42 11
q38 0 51 -23.5t13 -56.5t-7.5 -64.5t-16.5 -63t-16.5 -63t-7.5 -64.5q0 -14 4.5 -28.5t22.5 -14.5q42 0 70.5 28t49 69.5t35 90.5t27.5 90.5t28 69.5t35 28q14 0 22.5 -10.5t8.5 -23.5q0 -31 -12 -65t-27 -70.5t-27 -74.5t-12 -77q0 -8 0.5 -18t3.5 -18.5t9 -14t17 -5.5z
" />
    <glyph glyph-name="x" unicode="x" horiz-adv-x="460" 
d="M279 225q7 18 9 37.5t2 38.5q0 6 -0.5 15t-3 17.5t-7 15t-12.5 6.5q-14 0 -34 -13t-40.5 -28.5t-37.5 -28.5t-26 -13q-13 0 -22.5 9t-9.5 22q0 19 20.5 40t48.5 38t57 28.5t46 11.5q33 0 53 -20t27 -51q25 33 61.5 52t78.5 19q17 0 34.5 -4.5t32 -14.5t23.5 -24.5
t9 -34.5q0 -35 -29.5 -63t-70.5 -49.5t-84 -36t-70 -22.5q-7 -18 -9 -36.5t-2 -37.5q0 -11 1 -22.5t5.5 -20.5t13 -14.5t22.5 -5.5q30 0 61 16t58 34.5t49 34.5t36 16q9 0 11.5 -6t2.5 -13q0 -18 -12 -36t-31.5 -34.5t-43.5 -30.5t-48.5 -24.5t-47 -16.5t-38.5 -6
q-36 0 -61.5 20.5t-36.5 53.5q-32 -35 -72 -58t-89 -23q-19 0 -37.5 4.5t-33 14.5t-23.5 25.5t-9 36.5q0 26 15 48t39.5 40.5t55 33.5t61.5 26.5t59.5 20t48.5 13.5zM255 149q-16 -4 -47 -13t-61.5 -22.5t-53.5 -31t-23 -37.5q0 -15 12 -17.5t23 -2.5q27 0 49.5 11t41.5 29
t33.5 40t25.5 44zM358 247q12 4 39.5 12.5t55 20.5t49 26.5t21.5 28.5q0 12 -11.5 19t-22.5 7q-18 0 -38.5 -12t-39 -29.5t-33 -37t-20.5 -35.5z" />
    <glyph glyph-name="y" unicode="y" horiz-adv-x="614" 
d="M304 113q0 -10 0.5 -22t3.5 -22.5t10.5 -17.5t21.5 -7q32 0 60 15.5t51.5 41t43 58t34.5 66.5t25.5 66.5t15.5 58.5q2 10 6 23t11 24t16.5 18.5t22.5 7.5t22.5 -9t9.5 -22q0 -11 -6 -36.5t-15.5 -59.5t-21 -72.5t-22.5 -74t-20.5 -65t-13.5 -44.5q38 21 74 43t71 48
q14 0 25.5 -7.5t11.5 -22.5q0 -10 -13 -23.5t-33.5 -29t-45.5 -32t-48.5 -31t-42.5 -26t-28 -18.5l-15 -57.5t-21.5 -73t-28.5 -76.5t-37 -68.5t-46 -49.5t-56 -19q-46 0 -67.5 20.5t-21.5 67.5q0 24 13 51t33.5 55t46.5 55.5t52.5 52t50.5 45t42 35.5l29 101
q-14 -18 -31.5 -36t-37.5 -32.5t-42.5 -23.5t-46.5 -9q-59 0 -83 31t-24 87q0 22 2.5 43.5t6.5 43.5q-8 -10 -24.5 -29.5t-37.5 -44t-44 -50t-44.5 -46.5t-39 -34.5t-27.5 -13.5q-11 0 -16.5 10t-5.5 19q0 4 2 12q61 72 123.5 142t121.5 144q7 9 19.5 30t27 43t28.5 39
t24 17q14 0 23 -10t9 -23q0 -17 -13 -47.5t-28.5 -69t-28.5 -80t-13 -79.5zM305 -314q0 -9 2.5 -16.5t14.5 -7.5q23 0 42 25.5t34 60t26 68.5t18 52q-14 -13 -37 -36t-45.5 -49t-38.5 -52t-16 -45z" />
    <glyph glyph-name="z" unicode="z" horiz-adv-x="468" 
d="M144 364q-17 0 -31.5 -13t-27.5 -28.5t-26 -28.5t-27 -13t-23 9t-9 23q0 16 16.5 36.5t39.5 38t47.5 29.5t39.5 12q25 0 45.5 -12t40 -26t40 -26t45.5 -12t44 11t35.5 23.5t31 23.5t31.5 11q13 0 21.5 -10t8.5 -22t-18.5 -34.5t-47.5 -51t-64 -59.5t-68 -60t-59.5 -52.5
t-37.5 -35.5q27 0 52 -8.5t49 -18.5t49 -18.5t52 -8.5q31 0 58.5 14.5t50 31.5t40.5 31.5t32 14.5t17 -7t3 -18q0 -22 -24.5 -45.5t-57.5 -43t-67 -32t-53 -12.5q-29 0 -55.5 9t-53 19.5t-53 19.5t-55.5 9q-24 0 -42.5 -9t-32.5 -19.5l-26 -19.5t-22 -9q-13 0 -22 9t-9 22
q0 11 6 20l-1 1q71 62 136 128t133 132q-26 2 -47 14t-39 25.5t-34 24.5t-31 11z" />
    <glyph glyph-name="braceleft" unicode="{" horiz-adv-x="397" 
d="M413 934q9 0 22 -1.5t24 -6t19 -12t8 -20.5q0 -14 -10 -23t-24 -9q-11 0 -21 4t-21 5l-13 -8q-21 -31 -32.5 -72.5t-19 -88.5t-14 -95.5t-16.5 -93t-27 -81.5t-45 -60q17 -23 21.5 -51.5t4.5 -56.5q0 -42 -5 -83.5t-11 -83.5t-11 -83.5t-5 -83.5q0 -30 17 -53l3 -1
q11 0 22 3.5t22 3.5q13 0 23 -8.5t10 -22.5q0 -12 -8.5 -20.5t-20.5 -13.5t-25 -7t-22 -2q-28 0 -44 13t-24.5 32.5t-10.5 43t-2 44.5q0 42 4 84t9 84t9 84.5t4 84.5q0 6 -0.5 15.5t-2 19t-5.5 17.5t-11 10q-8 2 -15.5 3.5t-13.5 4.5t-9.5 9t-3.5 17q0 15 11 21t26.5 16
t32.5 31t28 67q5 22 12 62t16 87t21.5 96t30 88.5t40.5 65t53 25.5z" />
    <glyph glyph-name="bar" unicode="|" horiz-adv-x="255" 
d="M120 -32q0 53 8 115.5t21.5 129.5t29.5 137.5t32 139.5t29.5 134.5t22.5 124.5q1 11 2 34.5t5 47.5t11.5 42t22.5 18q17 0 27.5 -13t10.5 -29q0 -91 -18.5 -192.5t-43 -206.5t-49 -209t-36.5 -199q-2 -11 -2 -29.5t-2.5 -36.5t-9.5 -31.5t-23 -13.5q-14 0 -26 11.5
t-12 25.5z" />
    <glyph glyph-name="braceright" unicode="}" horiz-adv-x="385" 
d="M215 -191q-10 0 -22.5 1.5t-24 6t-19 12.5t-7.5 21q0 14 10 22.5t23 8.5q11 0 21.5 -3.5t21.5 -5.5q19 9 31.5 43.5t22 83t18.5 104t21 108t29.5 95.5t44.5 66q-17 23 -21.5 51.5t-4.5 56.5q0 42 5 83.5t11 83t11 83t5 83.5q0 29 -17 54l-3 1q-11 0 -22 -4t-22 -4
q-14 0 -23.5 9t-9.5 23q0 12 8.5 20.5t20.5 13t25 6.5t22 2q28 0 44 -13t24 -32.5t10.5 -43t2.5 -44.5q0 -42 -4 -84.5t-9 -84.5t-9 -84t-4 -84q0 -6 0.5 -15.5t2 -19t5.5 -17.5t11 -10t14.5 -3.5t13.5 -4.5t10 -9t4 -17q0 -15 -11 -20.5t-26.5 -15t-32.5 -31t-28 -68.5
q-5 -22 -11.5 -62t-16 -87t-22 -96t-30 -88.5t-40.5 -65t-53 -25.5z" />
    <glyph glyph-name="asciitilde" unicode="~" horiz-adv-x="414" 
d="M243 362q-13 -5 -25 -16t-23.5 -23t-22 -21t-20.5 -9q-14 0 -23 9t-9 23q0 16 14.5 34t35 33.5t42.5 25.5t37 10q27 0 44.5 -16t31.5 -37t27.5 -41.5t33.5 -29.5h2q10 5 22 17.5t24 25.5t23 23t20 10q12 0 22 -8.5t10 -21.5q0 -16 -14 -35.5t-33.5 -37t-41 -29
t-36.5 -11.5q-26 0 -44.5 19t-34 42.5t-30 43t-32.5 20.5z" />
    <glyph glyph-name="exclamdown" unicode="&#xa1;" horiz-adv-x="330" 
d="M268 266l-4.5 -22t-12 -57.5t-17 -80.5t-19.5 -92t-19.5 -92t-17 -80.5t-12.5 -57t-5 -22.5q-5 -11 -13 -18t-20 -7q-14 0 -22.5 10t-8.5 23q0 3 4.5 26.5t12 59.5t17 82t19.5 93t19.5 92t17 80t12.5 57l5 22q5 8 12.5 14.5t18.5 6.5q15 0 24 -11.5t9 -25.5zM349 520
q0 -15 -5 -32.5t-15 -32.5t-23.5 -25t-30.5 -10q-12 0 -21 6t-14.5 15.5t-8 20.5t-2.5 22q0 15 5 32.5t14.5 33t23 26t30.5 10.5q13 0 22 -6.5t14.5 -16t8 -21.5t2.5 -22z" />
    <glyph glyph-name="sterling" unicode="&#xa3;" horiz-adv-x="472" 
d="M66 266q0 38 -5.5 75.5t-5.5 75.5q0 50 19 101t52 92t79 67t100 26q19 0 44 -6.5t47.5 -18.5t38 -30t15.5 -41q0 -13 -11 -22t-24 -9q-15 0 -24.5 10.5t-17.5 23.5t-18 23.5t-28 10.5q-44 0 -80 -19.5t-62 -51t-40.5 -71.5t-14.5 -80q0 -45 6.5 -88.5t6.5 -88.5
q44 -4 87.5 -3.5t87.5 0.5q10 0 18 -6.5t8 -17.5q0 -14 -11.5 -22t-29.5 -12t-40 -5t-43 -0.5t-37.5 1.5t-24.5 1h-20q-4 -25 -14 -48.5t-22 -45.5q24 0 46.5 -5t45.5 -11.5t45.5 -11.5t46.5 -5q23 0 34 15t18 33t15 33t26 15q5 0 12 -0.5t13.5 -2t11 -6t4.5 -11.5
q0 -11 -6 -20h2q-10 -27 -20 -49t-24 -37t-35.5 -23.5t-53.5 -8.5q-21 0 -41.5 5t-40.5 11t-40.5 11t-41.5 5q-28 0 -54 -10t-54 -10q-14 0 -24 8.5t-10 22.5q0 2 11 18t25 38.5t28 47.5t20 46q-6 1 -14.5 3t-16 5.5t-12.5 9.5t-5 14q0 15 7.5 22.5t17 10t17.5 1.5t10 -2z
" />
    <glyph glyph-name="currency" unicode="&#xa4;" horiz-adv-x="425" 
d="M308 424q48 0 94 -20q6 4 15 11t19 13t20 10.5t17 4.5q8 0 11.5 -6t3.5 -14q0 -13 -5 -21t-12 -14.5t-15 -12.5t-15 -14q13 -27 13 -61q0 -42 -16 -81.5t-45 -69.5q8 -10 16 -23.5t8 -26.5q0 -15 -11 -23t-25 -8q-17 0 -25 12.5t-18 23.5q-44 -24 -95 -24q-27 0 -54.5 6
t-50.5 23q-11 -11 -28.5 -23.5t-33.5 -12.5q-13 0 -21.5 6t-8.5 20q0 6 6 13t13.5 14t15.5 13.5t13 9.5h-1l6 4q-13 22 -13 51q0 39 16.5 78t41.5 68q-9 14 -18.5 30.5t-12.5 32.5q2 12 13 22t24 10q14 -12 25 -24.5t23 -25.5q25 14 53 21.5t57 7.5zM161 232q0 -18 6.5 -34
t18 -28t27 -19.5t33.5 -7.5q26 0 51.5 14t45.5 36t32.5 48.5t12.5 52.5q0 14 -6.5 27t-17 23.5t-23.5 16.5t-27 6q-27 0 -54 -10.5t-49 -28.5t-36 -43t-14 -53z" />
    <glyph glyph-name="yen" unicode="&#xa5;" horiz-adv-x="427" 
d="M202 718q19 0 30.5 -27.5t18 -70.5t9.5 -94.5t4.5 -100t3 -87t5.5 -55.5q52 79 99.5 166.5t82.5 175.5q4 10 10.5 25.5t15 29t19.5 23.5t25 10q10 0 19 -6.5t9 -17.5q0 -14 -14.5 -46.5t-37 -75t-50 -91t-53.5 -93t-48.5 -81.5t-33.5 -58q14 1 27 1h26q9 0 22 1t25 -0.5
t20.5 -6.5t8.5 -18q0 -16 -10.5 -31t-27.5 -15q-23 0 -46.5 4.5t-46.5 4.5h-17t-17 -1q-2 -10 -5 -19t-5 -19q29 0 58.5 2.5t58.5 2.5h13.5t14 -1.5t11 -6.5t4.5 -14q0 -28 -21 -39t-49.5 -13t-58.5 1t-47 3q-3 -14 -4.5 -29t-5.5 -27.5t-13 -21t-28 -8.5q-29 0 -29 32
q0 14 3 27t6 27q-8 0 -31 -1t-47.5 1.5t-43.5 9t-19 21.5q0 20 20 27.5t47 9t53.5 -0.5t38.5 -2q4 8 4.5 17t5.5 17q-18 0 -36 -1t-36 -1q-9 0 -21.5 -0.5t-23.5 2t-18.5 8.5t-7.5 19q0 21 17 28.5t40 8t46.5 -2t37.5 -2.5q-4 49 -6.5 99t-6 99.5t-9.5 99t-16 98.5
q-2 12 -5.5 24.5t-3.5 24.5q0 15 13 25t27 10z" />
    <glyph glyph-name="brokenbar" unicode="&#xa6;" horiz-adv-x="136" 
d="M135 309q11 0 20 -3.5t9 -16.5q0 -4 -5 -29.5t-12.5 -62t-16.5 -78.5t-17.5 -78.5t-14.5 -62t-8 -29.5q-5 -12 -16 -19t-25 -7q-7 0 -18 4.5t-11 13.5q0 10 5 36.5t12.5 61.5t17 74t18.5 74t17 62t12 38q8 22 33 22zM238 810q11 0 18 -4t7 -16q0 -11 -3.5 -35t-8.5 -54
t-11.5 -63.5t-13 -63.5t-12 -54.5t-9.5 -35.5q-5 -14 -19 -18.5t-27 -4.5q-7 0 -13.5 4t-6.5 12q0 25 5 53.5t11.5 57t14 57t12.5 53.5q2 12 5 31t9 37t15.5 31t26.5 13z" />
    <glyph glyph-name="section" unicode="&#xa7;" horiz-adv-x="444" 
d="M68 -23q16 0 26.5 -17.5t21.5 -39t26 -39t41 -17.5q20 0 41.5 11.5t39.5 29t30 38.5t12 41q0 28 -18 43t-45 25t-58 18t-58 23t-45 39.5t-18 67.5t17.5 81t46 69.5t64 55.5t71.5 40q-12 9 -25.5 19t-25.5 21.5t-20 25t-8 30.5q0 28 20 59.5t49.5 57.5t63.5 43t62 17
q12 0 32.5 -3.5t41 -11t35.5 -19t15 -26.5q0 -14 -4.5 -30t-13 -29.5t-21 -22.5t-28.5 -9q-14 0 -24.5 4.5t-10.5 21.5q0 5 1 11.5t3 11.5v-1l3 14q-5 11 -15.5 18t-23.5 7t-32.5 -8.5t-37.5 -21.5t-30.5 -28.5t-12.5 -29.5q0 -16 17 -31t42.5 -31t55 -34.5t55 -42.5
t42.5 -54.5t17 -69.5q0 -32 -12.5 -65t-32.5 -63t-46.5 -54t-54.5 -37q19 -18 31.5 -42t12.5 -50q0 -35 -18.5 -69.5t-47 -62t-64.5 -44.5t-70 -17h-45q-19 0 -39.5 13t-38 32t-29 41t-11.5 40q0 20 14 35.5t34 15.5zM327 386q-30 -1 -63 -15t-60.5 -37.5t-45.5 -53.5
t-18 -62q0 -34 23 -55.5t56 -21.5q28 0 60.5 9t60.5 26t46.5 43t18.5 59q0 17 -7.5 32.5t-19 29t-25.5 25.5t-26 21zM326 387l1 -1h3z" />
    <glyph glyph-name="dieresis" unicode="&#xa8;" horiz-adv-x="0" 
d="M290 531q0 13 8.5 41t22 57t29.5 51t30 22t22.5 -10.5t8.5 -23.5q0 -12 -9 -40.5t-22.5 -57t-29.5 -50.5t-30 -22t-22 10t-8 23zM190 531q0 13 8.5 41t22 57t29.5 51t30 22t22.5 -10.5t8.5 -23.5q0 -12 -9 -40.5t-22.5 -57t-29.5 -50.5t-30 -22t-22 10t-8 23z" />
    <glyph glyph-name="guillemotleft" unicode="&#xab;" horiz-adv-x="695" 
d="M595 70q-6 0 -24 12t-42.5 31t-51 41.5t-48.5 43.5t-36.5 38t-14.5 24q0 8 15.5 25.5t39 39.5t51.5 44.5t53.5 41.5t44.5 31t25 12q12 0 23 -7t11 -21q0 -22 -22 -44.5t-51 -43.5t-59 -39.5t-46 -30.5q10 -9 36.5 -31.5t54 -48.5t48.5 -50t21 -35q0 -12 -7 -22.5
t-21 -10.5zM424 74q-8 0 -27.5 11.5t-44.5 29.5t-52 40t-49.5 43t-37 38t-14.5 26q0 6 15 23t38 38.5t50.5 45.5t52 43.5t42.5 32.5t23 13q34 0 34 -33q0 -19 -21 -42t-49 -45t-56.5 -41.5t-42.5 -31.5q11 -8 38 -29.5t55.5 -46t50 -47.5t21.5 -34q0 -12 -6 -23t-20 -11z
" />
    <glyph glyph-name="logicalnot" unicode="&#xac;" horiz-adv-x="372" 
d="M7 306q0 13 16 19t37 8t41 1.5t28 -0.5q39 0 77.5 -1t76.5 -1q18 0 31 -0.5t21.5 -5.5t13 -16t4.5 -32q0 -22 -4.5 -43.5t-12.5 -41.5q-17 -12 -33 -12q-11 0 -15 12t-4.5 28t0.5 31t1 20q-14 -1 -28.5 -1.5t-28.5 -0.5q-42 0 -84 1t-84 1q-9 0 -18.5 1t-17 4.5
t-12.5 10.5t-5 18z" />
    <glyph glyph-name="macron" unicode="&#xaf;" horiz-adv-x="578" 
d="M211 758q0 13 12 21t31.5 12.5t42.5 5.5t45 1t39.5 -0.5t26.5 -0.5l249 -1q13 0 23.5 -9.5t10.5 -23.5q0 -13 -11 -20.5t-28 -12t-38 -6.5t-41 -2.5t-37 0t-26 0.5q-68 0 -135 1.5t-135 1.5q-12 0 -20.5 11t-8.5 22z" />
    <glyph glyph-name="degree" unicode="&#xb0;" horiz-adv-x="276" 
d="M30 652q0 28 9 58t26 55t41.5 41.5t56.5 16.5q22 0 37.5 -10.5t26 -26.5t15.5 -35.5t5 -38.5q0 -24 -10.5 -51.5t-28.5 -51t-41.5 -38.5t-50.5 -15q-19 0 -34.5 8.5t-27 22t-18 30.5t-6.5 35zM84 657q0 -14 5.5 -30.5t22.5 -16.5q16 0 30.5 11t26 27.5t18 35t6.5 32.5
q0 15 -6.5 32.5t-25.5 17.5q-15 0 -27.5 -8t-21.5 -20.5t-15.5 -27.5t-10.5 -28q-1 -6 -1.5 -12t-0.5 -13z" />
    <glyph glyph-name="plusminus" unicode="&#xb1;" horiz-adv-x="468" 
d="M299 334q-12 0 -35.5 -1t-46 1.5t-39.5 10t-17 25.5t19 26.5t44.5 10.5t50.5 1t36 -1q1 10 2.5 33.5t6 47.5t14 42t27.5 18q16 0 25 -11.5t9 -26.5q0 -27 -3 -53.5t-6 -52.5q14 -1 27 0t27 1q9 0 23 -0.5t28 -4t24 -10.5t10 -20q0 -18 -19.5 -26.5t-45 -11.5t-50.5 -2.5
t-37 0.5q-3 -13 -5 -37t-7.5 -47.5t-15 -41t-25.5 -17.5t-24 12.5t-8 26.5q0 27 3.5 54t7.5 54zM307 71q-14 0 -44.5 -1t-61.5 1t-54.5 10.5t-23.5 27.5q0 13 7.5 20.5t18.5 11t23.5 4.5t21.5 1q64 0 129.5 1t129.5 -5q13 -2 23.5 -10.5t10.5 -22.5t-11 -22t-26.5 -12
t-31.5 -4.5t-26 -0.5z" />
    <glyph glyph-name="twosuperior" unicode="&#xb2;" horiz-adv-x="406" 
d="M295 740q-2 0 -11 -3.5t-13 -4.5h1q-28 -9 -38.5 -27.5t-14.5 -45.5q-2 -16 -8.5 -32t-26.5 -16q-14 0 -25.5 11t-11.5 25q0 34 11 63.5t31 50.5t48.5 33t63.5 12q33 0 61.5 -12.5t49 -33.5t32.5 -49.5t12 -61.5q0 -36 -13.5 -64t-34.5 -50.5t-48 -41.5t-54 -36h1
q-30 -20 -60.5 -41t-51.5 -51q10 -4 27.5 -14t36 -20.5t34.5 -18.5t23 -8q12 0 18.5 12t13 26.5t15 26.5t23.5 12q17 0 26 -12t9 -27q0 -18 -9 -37t-23.5 -34t-33 -25t-36.5 -10q-23 0 -41.5 8.5t-36 20l-35 23t-38.5 16.5q-6 -10 -8.5 -21.5t-8.5 -22.5v1q-9 -16 -28 -16
q-15 0 -25 11.5t-10 25.5q0 25 12.5 54.5t31 56.5t41 50t43.5 37q16 10 44.5 30t57 43t49.5 47.5t21 44.5q0 44 -24 69.5t-69 25.5z" />
    <glyph glyph-name="threesuperior" unicode="&#xb3;" horiz-adv-x="432" 
d="M230 577q0 5 14 26t31.5 46t34 49t22.5 36l-113 3q-2 -10 -6 -23t-10.5 -24.5t-16 -19.5t-21.5 -8q-11 0 -20.5 8t-9.5 19q0 19 7 43.5t16 41.5q1 10 10 20t20 10l195 -3q15 0 25 -10t10 -25q0 -7 -14.5 -30.5t-33 -50.5t-35.5 -51t-23 -31q45 -13 69 -50t24 -82
q0 -43 -17.5 -83t-46.5 -71t-68.5 -49.5t-82.5 -18.5q-35 0 -59 13t-38 34.5t-20 49.5t-6 59q0 14 11.5 25t25.5 11q15 0 21 -9.5t8.5 -23t3.5 -30t6.5 -30t17.5 -23t36 -9.5q31 0 56.5 13t43.5 34.5t28 49t10 56.5q0 36 -16.5 50t-36 20t-36 12t-16.5 26z" />
    <glyph glyph-name="acute" unicode="&#xb4;" horiz-adv-x="437" 
d="M788 528q0 9 11.5 25t29 35.5t39.5 39t42.5 36t38 26.5t26.5 10q11 0 17.5 -8.5t6.5 -18.5q0 -13 -24.5 -41t-56.5 -57t-62.5 -51t-43.5 -22q-11 0 -17.5 7.5t-6.5 18.5z" />
    <glyph glyph-name="mu" unicode="&#xb5;" horiz-adv-x="440" 
d="M447 58q0 -14 -13 -30.5t-31 -31t-38 -24.5t-33 -10q-26 0 -37 16t-13 39q-9 -7 -23 -16t-30 -17t-31 -13.5t-27 -5.5q-18 0 -36 3t-35 11l-35 -165q-4 -19 -6.5 -34t-8.5 -25.5t-18.5 -16.5t-37.5 -6q-10 0 -17 4t-7 15q0 3 2 10.5t5 16.5t5.5 17.5t3.5 11.5v-1
q23 78 40 158.5t35 160.5q17 73 30.5 150t36.5 149q4 11 15.5 17.5t22.5 6.5q7 0 19.5 -4t12.5 -13q0 -35 -11.5 -76t-25 -85t-25 -87.5t-11.5 -82.5q0 -23 9.5 -41.5t35.5 -18.5q48 0 77 30.5t47 76.5t29 99.5t23 99.5t28 76.5t45 30.5q14 0 20.5 -9.5t6.5 -22.5
q0 -34 -14.5 -83t-31.5 -102.5t-31.5 -106.5t-14.5 -94q0 -1 0.5 -4.5t2.5 -3.5q7 0 13 9t13 20t16 20t23 9q12 0 18.5 -8t6.5 -19z" />
    <glyph glyph-name="paragraph" unicode="&#xb6;" horiz-adv-x="480" 
d="M177 -235q-19 0 -23.5 13t-4.5 28q0 124 4.5 246.5t4.5 246.5q-41 3 -67 24.5t-41 53t-21 68.5t-6 70q0 56 14 92.5t38 58t57 31.5t71 13t80 2t83 -1q7 0 22.5 -0.5t31.5 -3t28.5 -8t12.5 -16.5q0 -12 -8.5 -17t-20.5 -6t-24.5 0t-19.5 1l-14 -1q-2 -195 -4 -388t-2 -388
q0 -9 1 -28.5t-0.5 -40t-7.5 -35.5t-19 -15q-6 0 -14.5 4t-8.5 12q0 220 1.5 438.5t1.5 438.5q-8 1 -16 1h-16q-31 0 -62 -3q-9 -76 -11.5 -152.5t-2.5 -153t2 -153.5t2 -153q0 -10 0.5 -34t0 -55t-2.5 -64.5t-6.5 -61.5t-12.5 -46t-20 -18z" />
    <glyph glyph-name="periodcentered" unicode="&#xb7;" horiz-adv-x="201" 
d="M216 398q0 15 5 32t15 32t23.5 25t30.5 10q25 0 35.5 -21t10.5 -42q0 -15 -5 -33t-14 -33.5t-22.5 -26t-31.5 -10.5q-13 0 -22 6.5t-14.5 16.5t-8 21.5t-2.5 22.5z" />
    <glyph glyph-name="cedilla" unicode="&#xb8;" horiz-adv-x="0" 
d="M151 -80q0 9 4 28.5t11.5 39t18 34.5t22.5 15q11 0 18.5 -8.5t7.5 -19.5q0 -10 -6 -22.5t-8 -22.5h5q27 0 49.5 -13t22.5 -44q0 -24 -10.5 -41t-27.5 -27.5t-38 -15.5t-42 -5q-11 0 -20 7t-9 19q0 16 14.5 22t32 9t32 7t14.5 17q0 7 -4.5 10t-10.5 3q-14 0 -25.5 -9.5
t-25.5 -9.5q-11 0 -18 8.5t-7 18.5z" />
    <glyph glyph-name="onesuperior" unicode="&#xb9;" horiz-adv-x="500" 
d="M244 692q-5 -3 -14 -10.5t-19 -14.5t-19.5 -12.5t-14.5 -5.5q-14 0 -24 10t-10 24q0 6 9 17.5t23 25.5t31.5 28.5t33.5 26.5t29.5 19.5t19.5 7.5q17 0 26.5 -11.5t9.5 -28.5q0 -6 -5 -44.5t-13 -92t-17 -115t-17.5 -114.5t-14.5 -88.5t-7 -38.5q-4 -10 -13 -19.5
t-21 -9.5q-14 0 -24.5 11.5t-10.5 25.5q0 36 8.5 71.5t13.5 70.5z" />
    <glyph glyph-name="guillemotright" unicode="&#xbb;" horiz-adv-x="702" 
d="M247 443q6 0 25 -11.5t44 -29.5t52 -40t49.5 -42t37.5 -37t15 -24q0 -8 -15 -26t-37.5 -40.5t-49.5 -46t-52 -43t-44.5 -32t-25.5 -12.5q-12 0 -23 6.5t-11 20.5q0 22 21 45.5t49.5 45t57.5 40t45 32.5q-11 9 -38 30.5t-55 47t-49.5 48.5t-21.5 35q0 11 6 22t20 11z
M427 443q6 0 25 -11.5t43.5 -30t51.5 -40.5t50 -42.5t37.5 -37t14.5 -23.5q0 -8 -15 -25.5t-38 -39.5t-50.5 -46t-52.5 -43.5t-44 -32t-25 -12.5q-12 0 -23 7t-11 21q0 22 21 45.5t49.5 44.5t57.5 39.5t45 32.5q-11 8 -37.5 30t-54.5 47t-49 48.5t-21 35.5t6 22.5t20 10.5z
" />
    <glyph glyph-name="questiondown" unicode="&#xbf;" horiz-adv-x="365" 
d="M231 -153q29 0 46 9.5t27 24t14.5 31.5t9.5 31.5t11.5 24t19.5 9.5q15 0 23.5 -11.5t8.5 -25.5q0 -33 -13.5 -61.5t-36 -49.5t-52 -33t-61.5 -12q-35 0 -61.5 12t-44 33t-26.5 49.5t-9 61.5q0 52 15 91t37.5 70t49 55t49 45.5t37.5 42.5t15 45q0 9 -3 17t-8 16l-11 -1
q-6 -6 -11.5 -13.5t-11.5 -15t-13.5 -12.5t-16.5 -5q-14 0 -22.5 10.5t-8.5 24.5q0 15 8.5 29.5t21.5 25.5t29 17.5t30 6.5q21 0 34 -9.5t20.5 -24t10.5 -32.5t3 -34q0 -36 -14 -62.5t-35 -50t-45.5 -46.5t-45.5 -50.5t-35 -62.5t-14 -82q0 -35 20.5 -61.5t58.5 -26.5z
M344 580q0 -15 -5 -32t-15 -32t-23.5 -25t-30.5 -10q-12 0 -20.5 6t-14.5 15.5t-8.5 20.5t-2.5 21q0 15 5 32.5t14.5 33t23 26t30.5 10.5q13 0 22 -6.5t14.5 -16t8 -21.5t2.5 -22z" />
    <glyph glyph-name="Agrave" unicode="&#xc0;" horiz-adv-x="737" 
d="M147 -24q-22 0 -47.5 10.5t-47.5 27.5t-37 39t-15 46q0 13 8.5 23t22.5 10t24 -14.5t22.5 -31.5t30 -31.5t47.5 -14.5q22 0 44 8t42 20t38 27.5t33 30.5q-13 21 -21.5 44.5t-8.5 48.5q0 29 10 60.5t28.5 58t45 43.5t58.5 17q17 0 33.5 -3t33.5 -7q18 31 42 70t52 80.5
t59.5 83t65 77t68.5 62.5t69 40q6 2 13 2q13 0 22.5 -9.5t9.5 -22.5q0 -15 -6.5 -48t-17 -78.5t-24.5 -99.5t-29 -110.5t-30.5 -112.5t-29 -104.5t-24 -86.5t-15.5 -59q17 6 38.5 18.5t42.5 25.5t38.5 23.5t26.5 12.5q11 -3 14.5 -14t3.5 -21q0 -13 -10.5 -26.5t-27 -25.5
t-37 -23.5t-40.5 -19.5t-38 -13.5t-29 -6.5q-2 -11 -11.5 -18t-20.5 -7q-16 0 -26 14q-14 -3 -28.5 -4t-28.5 -1q-63 0 -124.5 22t-106.5 67q-21 -18 -45 -36t-49.5 -32t-53 -22.5t-57.5 -8.5zM807 691q-83 -67 -145.5 -153t-113.5 -179q26 -17 45 -36t34 -41t27 -47t23 -53
q34 128 66 254.5t64 254.5zM516 302q-26 -47 -54.5 -92.5t-63.5 -87.5q16 -19 38.5 -32.5t48 -21.5t51.5 -12t50 -4q12 0 24 1t23 3q0 34 -7.5 69.5t-21.5 68.5t-36 61t-52 47zM361 182q26 35 49 71.5t46 73.5q-7 3 -13.5 5t-14.5 2q-16 0 -31 -10.5t-26 -26.5t-18 -33.5
t-7 -32.5q0 -13 3.5 -26t11.5 -23zM896 902q-9 0 -26 10.5t-37.5 26.5t-42 36t-39 39t-29 35t-11.5 25q0 11 7 19t19 8q8 0 25 -10.5t37.5 -27t42 -36.5t39 -39.5t29 -35.5t11.5 -24q0 -11 -7 -18.5t-18 -7.5z" />
    <glyph glyph-name="Aacute" unicode="&#xc1;" horiz-adv-x="735" 
d="M147 -24q-22 0 -47.5 10.5t-47.5 27.5t-37 39t-15 46q0 13 8.5 23t22.5 10t24 -14.5t22.5 -31.5t30 -31.5t47.5 -14.5q22 0 44 8t42 20t38 27.5t33 30.5q-13 21 -21.5 44.5t-8.5 48.5q0 29 10 60.5t28.5 58t45 43.5t58.5 17q17 0 33.5 -3t33.5 -7q18 31 42 70t52 80.5
t59.5 83t65 77t68.5 62.5t69 40q6 2 13 2q13 0 22.5 -9.5t9.5 -22.5q0 -15 -6.5 -48t-17 -78.5t-24.5 -99.5t-29 -110.5t-30.5 -112.5t-29 -104.5t-24 -86.5t-15.5 -59q17 6 38.5 18.5t42.5 25.5t38.5 23.5t26.5 12.5q11 -3 14.5 -14t3.5 -21q0 -13 -10.5 -26.5t-27 -25.5
t-37 -23.5t-40.5 -19.5t-38 -13.5t-29 -6.5q-2 -11 -11.5 -18t-20.5 -7q-16 0 -26 14q-14 -3 -28.5 -4t-28.5 -1q-63 0 -124.5 22t-106.5 67q-21 -18 -45 -36t-49.5 -32t-53 -22.5t-57.5 -8.5zM807 691q-83 -67 -145.5 -153t-113.5 -179q26 -17 45 -36t34 -41t27 -47t23 -53
q34 128 66 254.5t64 254.5zM516 302q-26 -47 -54.5 -92.5t-63.5 -87.5q16 -19 38.5 -32.5t48 -21.5t51.5 -12t50 -4q12 0 24 1t23 3q0 34 -7.5 69.5t-21.5 68.5t-36 61t-52 47zM361 182q26 35 49 71.5t46 73.5q-7 3 -13.5 5t-14.5 2q-16 0 -31 -10.5t-26 -26.5t-18 -33.5
t-7 -32.5q0 -13 3.5 -26t11.5 -23zM876 914q0 9 11.5 25t29 35.5t39.5 39t42.5 36t38 26.5t26.5 10q11 0 17.5 -8.5t6.5 -18.5q0 -13 -24.5 -41t-56.5 -57t-62.5 -51t-43.5 -22q-11 0 -17.5 7.5t-6.5 18.5z" />
    <glyph glyph-name="Acircumflex" unicode="&#xc2;" horiz-adv-x="729" 
d="M147 -24q-22 0 -47.5 10.5t-47.5 27.5t-37 39t-15 46q0 13 8.5 23t22.5 10t24 -14.5t22.5 -31.5t30 -31.5t47.5 -14.5q22 0 44 8t42 20t38 27.5t33 30.5q-13 21 -21.5 44.5t-8.5 48.5q0 29 10 60.5t28.5 58t45 43.5t58.5 17q17 0 33.5 -3t33.5 -7q18 31 42 70t52 80.5
t59.5 83t65 77t68.5 62.5t69 40q6 2 13 2q13 0 22.5 -9.5t9.5 -22.5q0 -15 -6.5 -48t-17 -78.5t-24.5 -99.5t-29 -110.5t-30.5 -112.5t-29 -104.5t-24 -86.5t-15.5 -59q17 6 38.5 18.5t42.5 25.5t38.5 23.5t26.5 12.5q11 -3 14.5 -14t3.5 -21q0 -13 -10.5 -26.5t-27 -25.5
t-37 -23.5t-40.5 -19.5t-38 -13.5t-29 -6.5q-2 -11 -11.5 -18t-20.5 -7q-16 0 -26 14q-14 -3 -28.5 -4t-28.5 -1q-63 0 -124.5 22t-106.5 67q-21 -18 -45 -36t-49.5 -32t-53 -22.5t-57.5 -8.5zM807 691q-83 -67 -145.5 -153t-113.5 -179q26 -17 45 -36t34 -41t27 -47t23 -53
q34 128 66 254.5t64 254.5zM516 302q-26 -47 -54.5 -92.5t-63.5 -87.5q16 -19 38.5 -32.5t48 -21.5t51.5 -12t50 -4q12 0 24 1t23 3q0 34 -7.5 69.5t-21.5 68.5t-36 61t-52 47zM361 182q26 35 49 71.5t46 73.5q-7 3 -13.5 5t-14.5 2q-16 0 -31 -10.5t-26 -26.5t-18 -33.5
t-7 -32.5q0 -13 3.5 -26t11.5 -23zM709 822q0 9 11 25.5t29 35.5t39.5 39t42.5 36t38.5 26t27.5 10q13 0 31.5 -22.5t35 -52.5t28.5 -59t12 -41q0 -9 -8 -14.5t-16 -5.5q-11 0 -26 14t-29.5 33t-26.5 38t-17 28q-11 -11 -30 -30.5t-40.5 -38t-43 -32t-36.5 -13.5
q-9 0 -15.5 7.5t-6.5 16.5z" />
    <glyph glyph-name="Atilde" unicode="&#xc3;" horiz-adv-x="737" 
d="M147 -24q-22 0 -47.5 10.5t-47.5 27.5t-37 39t-15 46q0 13 8.5 23t22.5 10t24 -14.5t22.5 -31.5t30 -31.5t47.5 -14.5q22 0 44 8t42 20t38 27.5t33 30.5q-13 21 -21.5 44.5t-8.5 48.5q0 29 10 60.5t28.5 58t45 43.5t58.5 17q17 0 33.5 -3t33.5 -7q18 31 42 70t52 80.5
t59.5 83t65 77t68.5 62.5t69 40q6 2 13 2q13 0 22.5 -9.5t9.5 -22.5q0 -15 -6.5 -48t-17 -78.5t-24.5 -99.5t-29 -110.5t-30.5 -112.5t-29 -104.5t-24 -86.5t-15.5 -59q17 6 38.5 18.5t42.5 25.5t38.5 23.5t26.5 12.5q11 -3 14.5 -14t3.5 -21q0 -13 -10.5 -26.5t-27 -25.5
t-37 -23.5t-40.5 -19.5t-38 -13.5t-29 -6.5q-2 -11 -11.5 -18t-20.5 -7q-16 0 -26 14q-14 -3 -28.5 -4t-28.5 -1q-63 0 -124.5 22t-106.5 67q-21 -18 -45 -36t-49.5 -32t-53 -22.5t-57.5 -8.5zM807 691q-83 -67 -145.5 -153t-113.5 -179q26 -17 45 -36t34 -41t27 -47t23 -53
q34 128 66 254.5t64 254.5zM516 302q-26 -47 -54.5 -92.5t-63.5 -87.5q16 -19 38.5 -32.5t48 -21.5t51.5 -12t50 -4q12 0 24 1t23 3q0 34 -7.5 69.5t-21.5 68.5t-36 61t-52 47zM361 182q26 35 49 71.5t46 73.5q-7 3 -13.5 5t-14.5 2q-16 0 -31 -10.5t-26 -26.5t-18 -33.5
t-7 -32.5q0 -13 3.5 -26t11.5 -23zM811 922q-12 -8 -21.5 -22.5t-19 -28.5t-20 -25t-23.5 -11q-12 0 -21 9t-9 21q0 17 12 38.5t30 40.5t39 32t39 13q24 0 42 -13.5t34.5 -30t33 -31.5t35.5 -19q10 3 19 18.5t18 32.5t19 30.5t24 13.5t23 -9.5t9 -23.5q0 -17 -11 -39.5
t-28 -42.5t-37 -34t-38 -14q-22 0 -41 15t-36.5 32.5t-35 32.5t-36.5 15z" />
    <glyph glyph-name="Adieresis" unicode="&#xc4;" horiz-adv-x="743" 
d="M147 -24q-22 0 -47.5 10.5t-47.5 27.5t-37 39t-15 46q0 13 8.5 23t22.5 10t24 -14.5t22.5 -31.5t30 -31.5t47.5 -14.5q22 0 44 8t42 20t38 27.5t33 30.5q-13 21 -21.5 44.5t-8.5 48.5q0 29 10 60.5t28.5 58t45 43.5t58.5 17q17 0 33.5 -3t33.5 -7q18 31 42 70t52 80.5
t59.5 83t65 77t68.5 62.5t69 40q6 2 13 2q13 0 22.5 -9.5t9.5 -22.5q0 -15 -6.5 -48t-17 -78.5t-24.5 -99.5t-29 -110.5t-30.5 -112.5t-29 -104.5t-24 -86.5t-15.5 -59q17 6 38.5 18.5t42.5 25.5t38.5 23.5t26.5 12.5q11 -3 14.5 -14t3.5 -21q0 -13 -10.5 -26.5t-27 -25.5
t-37 -23.5t-40.5 -19.5t-38 -13.5t-29 -6.5q-2 -11 -11.5 -18t-20.5 -7q-16 0 -26 14q-14 -3 -28.5 -4t-28.5 -1q-63 0 -124.5 22t-106.5 67q-21 -18 -45 -36t-49.5 -32t-53 -22.5t-57.5 -8.5zM807 691q-83 -67 -145.5 -153t-113.5 -179q26 -17 45 -36t34 -41t27 -47t23 -53
q34 128 66 254.5t64 254.5zM516 302q-26 -47 -54.5 -92.5t-63.5 -87.5q16 -19 38.5 -32.5t48 -21.5t51.5 -12t50 -4q12 0 24 1t23 3q0 34 -7.5 69.5t-21.5 68.5t-36 61t-52 47zM361 182q26 35 49 71.5t46 73.5q-7 3 -13.5 5t-14.5 2q-16 0 -31 -10.5t-26 -26.5t-18 -33.5
t-7 -32.5q0 -13 3.5 -26t11.5 -23zM886 871q0 13 8.5 41t22 57t29.5 51t30 22t22.5 -10.5t8.5 -23.5q0 -12 -9 -40.5t-22.5 -57t-29.5 -50.5t-30 -22t-22 10t-8 23zM786 871q0 13 8.5 41t22 57t29.5 51t30 22t22.5 -10.5t8.5 -23.5q0 -12 -9 -40.5t-22.5 -57t-29.5 -50.5
t-30 -22t-22 10t-8 23z" />
    <glyph glyph-name="Aring" unicode="&#xc5;" horiz-adv-x="732" 
d="M147 -24q-22 0 -47.5 10.5t-47.5 27.5t-37 39t-15 46q0 13 8.5 23t22.5 10t24 -14.5t22.5 -31.5t30 -31.5t47.5 -14.5q22 0 44 8t42 20t38 27.5t33 30.5q-13 21 -21.5 44.5t-8.5 48.5q0 29 10 60.5t28.5 58t45 43.5t58.5 17q17 0 33.5 -3t33.5 -7q18 31 42 70t52 80.5
t59.5 83t65 77t68.5 62.5t69 40q6 2 13 2q13 0 22.5 -9.5t9.5 -22.5q0 -15 -6.5 -48t-17 -78.5t-24.5 -99.5t-29 -110.5t-30.5 -112.5t-29 -104.5t-24 -86.5t-15.5 -59q17 6 38.5 18.5t42.5 25.5t38.5 23.5t26.5 12.5q11 -3 14.5 -14t3.5 -21q0 -13 -10.5 -26.5t-27 -25.5
t-37 -23.5t-40.5 -19.5t-38 -13.5t-29 -6.5q-2 -11 -11.5 -18t-20.5 -7q-16 0 -26 14q-14 -3 -28.5 -4t-28.5 -1q-63 0 -124.5 22t-106.5 67q-21 -18 -45 -36t-49.5 -32t-53 -22.5t-57.5 -8.5zM807 691q-83 -67 -145.5 -153t-113.5 -179q26 -17 45 -36t34 -41t27 -47t23 -53
q34 128 66 254.5t64 254.5zM802 918q0 28 9 58t26 55t41.5 41.5t56.5 16.5q22 0 37.5 -10.5t26 -26.5t15.5 -35.5t5 -38.5q0 -24 -10.5 -51.5t-28.5 -51t-41.5 -38.5t-50.5 -15q-19 0 -34.5 8.5t-27 22t-18 30.5t-6.5 35zM516 302q-26 -47 -54.5 -92.5t-63.5 -87.5
q16 -19 38.5 -32.5t48 -21.5t51.5 -12t50 -4q12 0 24 1t23 3q0 34 -7.5 69.5t-21.5 68.5t-36 61t-52 47zM856 923q0 -14 5.5 -30.5t22.5 -16.5q16 0 30.5 11t26 27.5t18 35t6.5 32.5q0 15 -6.5 32.5t-25.5 17.5q-15 0 -27.5 -8t-21.5 -20.5t-15.5 -27.5t-10.5 -28
q-1 -6 -1.5 -12t-0.5 -13zM361 182q26 35 49 71.5t46 73.5q-7 3 -13.5 5t-14.5 2q-16 0 -31 -10.5t-26 -26.5t-18 -33.5t-7 -32.5q0 -13 3.5 -26t11.5 -23z" />
    <glyph glyph-name="AE" unicode="&#xc6;" horiz-adv-x="1060" 
d="M1184 802q13 0 41 -6.5t56 -17.5t49 -25.5t21 -30.5q0 -14 -10.5 -22.5t-23.5 -8.5q-17 0 -33.5 6t-33.5 13.5t-35 14t-38 6.5q-30 0 -57.5 -11t-47.5 -30t-32 -45t-12 -57q0 -36 11 -57.5t28 -34t36.5 -18t36.5 -11t28 -13t11 -22.5q0 -18 -17 -27t-40 -12.5t-46 -4
t-35 -2.5q-33 -6 -63 -29t-53.5 -54.5t-37 -67.5t-13.5 -68q0 -22 8.5 -44t23.5 -40t35 -29t43 -11q24 0 53 9t58.5 23.5t55.5 31.5t43 34q12 0 22 -8.5t10 -21.5q0 -21 -30 -45t-70 -45t-79 -34.5t-58 -13.5q-48 0 -89 22t-65 64q-12 -8 -29.5 -17.5t-36.5 -17.5t-38 -14.5
t-33 -7.5q-2 -11 -11.5 -18t-20.5 -7q-16 0 -26 14q-14 -3 -28.5 -4t-28.5 -1q-63 0 -124.5 22t-106.5 67q-21 -18 -45 -36t-49.5 -32t-53 -22.5t-57.5 -8.5q-22 0 -47.5 10.5t-47.5 27.5t-37 39t-15 46q0 13 8.5 23t22.5 10t24 -14.5t22.5 -31.5t30 -31.5t47.5 -14.5
q22 0 44 8t42 20t38 27.5t33 30.5q-13 21 -21.5 44.5t-8.5 48.5q0 29 10 60.5t28.5 58t45 43.5t58.5 17q17 0 33.5 -3t33.5 -7q18 31 42 70t52 80.5t59.5 83t65 77t68.5 62.5t69 40q6 2 13 2q13 0 22.5 -9.5t9.5 -22.5q0 -19 -11 -70.5t-28 -120t-38 -145.5l-40.5 -148.5
t-35.5 -129t-23 -85.5q26 8 49.5 20.5t46.5 28.5q-3 21 -3 42q0 48 16 94t44.5 84.5t68 67t86.5 40.5q-32 26 -49 63t-17 78q0 45 19 83.5t50.5 67t72 45t84.5 16.5zM807 691q-83 -67 -145.5 -153t-113.5 -179q26 -17 45 -36t34 -41t27 -47t23 -53q34 128 66 254.5t64 254.5
zM516 302q-26 -47 -54.5 -92.5t-63.5 -87.5q16 -19 38.5 -32.5t48 -21.5t51.5 -12t50 -4q12 0 24 1t23 3q0 34 -7.5 69.5t-21.5 68.5t-36 61t-52 47zM361 182q26 35 49 71.5t46 73.5q-7 3 -13.5 5t-14.5 2q-16 0 -31 -10.5t-26 -26.5t-18 -33.5t-7 -32.5q0 -13 3.5 -26
t11.5 -23z" />
    <glyph glyph-name="Ccedilla" unicode="&#xc7;" horiz-adv-x="266" 
d="M157 477q-11 6 -37 18t-52.5 26.5t-47 30.5t-20.5 29t9.5 22.5t22.5 9.5q7 0 28.5 -10.5t46.5 -24t48.5 -26.5t33.5 -18q26 42 63.5 88.5t83 84.5t97 63t105.5 25q59 0 88.5 -34.5t29.5 -91.5q0 -18 -8 -34.5t-19.5 -32t-25 -29.5t-24.5 -26q-48 -50 -111 -80t-133 -30
q-30 0 -59 5t-58 14q-32 -63 -51.5 -131.5t-19.5 -139.5q0 -26 4.5 -51.5t16 -46t31.5 -33.5t51 -13q43 0 86.5 19t80.5 41.5t64.5 41.5t39.5 19q11 0 18 -11.5t7 -20.5q0 -11 -8 -18.5t-16 -13.5q-33 -27 -64 -48.5t-63.5 -37t-69 -24.5t-79.5 -11v-2q-8 -16 -13 -38h11
q25 0 45.5 -15.5t20.5 -41.5q0 -23 -10 -40t-26.5 -28t-37 -16t-40.5 -5q-12 0 -22.5 6t-10.5 20q0 18 14.5 23.5t32 8t32 7t14.5 19.5q0 4 -6 7t-9 3q-14 0 -25.5 -9.5t-25.5 -9.5q-11 0 -18 8.5t-7 18.5q0 5 3 17.5t7 26t8 26t6 18.5q-31 9 -51.5 31t-33 51t-17.5 61
t-5 60q0 77 20 151t55 142zM531 735q-40 0 -81.5 -23t-79 -57t-68.5 -73t-51 -70q20 -5 40.5 -8.5t40.5 -3.5q30 0 74.5 15t85.5 40.5t70.5 57.5t29.5 67q0 26 -18 40.5t-43 14.5z" />
    <glyph glyph-name="Egrave" unicode="&#xc8;" horiz-adv-x="283" 
d="M375 802q13 0 41 -6.5t56 -17.5t49 -25.5t21 -30.5q0 -14 -10.5 -22.5t-23.5 -8.5q-17 0 -33.5 6t-33.5 13.5t-35 14t-38 6.5q-30 0 -57.5 -11t-47.5 -30t-32 -45t-12 -57q0 -36 11 -57.5t28 -34t36.5 -18t36.5 -11t28 -13t11 -22.5q0 -18 -17 -26.5t-40 -12.5t-46 -4.5
t-35 -2.5q-33 -6 -63 -28.5t-53.5 -54t-37 -68t-13.5 -68.5q0 -22 8.5 -44t23.5 -40t35 -29t43 -11q24 0 53.5 9t58.5 23.5t55 31.5t43 34q12 0 22 -8.5t10 -21.5q0 -21 -30 -45t-70 -45t-79 -34.5t-58 -13.5q-40 0 -73 14.5t-57 40t-37 59.5t-13 73q0 48 15.5 95t44 86
t68 67.5t87.5 40.5q-32 26 -49 63t-17 78q0 45 19 83.5t50.5 67t72 45t84.5 16.5zM450 872q-9 0 -26 10.5t-37.5 26.5t-42 36t-39 39t-29 35.5t-11.5 24.5q0 11 7 19t19 8q8 0 25 -10.5t37.5 -27t42 -36.5t39 -39.5t29 -35.5t11.5 -24q0 -11 -7 -18.5t-18 -7.5z" />
    <glyph glyph-name="Eacute" unicode="&#xc9;" horiz-adv-x="283" 
d="M375 802q13 0 41 -6.5t56 -17.5t49 -25.5t21 -30.5q0 -14 -10.5 -22.5t-23.5 -8.5q-17 0 -33.5 6t-33.5 13.5t-35 14t-38 6.5q-30 0 -57.5 -11t-47.5 -30t-32 -45t-12 -57q0 -36 11 -57.5t28 -34t36.5 -18t36.5 -11t28 -13t11 -22.5q0 -18 -17 -26.5t-40 -12.5t-46 -4.5
t-35 -2.5q-33 -6 -63 -28.5t-53.5 -54t-37 -68t-13.5 -68.5q0 -22 8.5 -44t23.5 -40t35 -29t43 -11q24 0 53.5 9t58.5 23.5t55 31.5t43 34q12 0 22 -8.5t10 -21.5q0 -21 -30 -45t-70 -45t-79 -34.5t-58 -13.5q-40 0 -73 14.5t-57 40t-37 59.5t-13 73q0 48 15.5 95t44 86
t68 67.5t87.5 40.5q-32 26 -49 63t-17 78q0 45 19 83.5t50.5 67t72 45t84.5 16.5zM366 904q0 9 11.5 25t29 35.5t39.5 39t42.5 36t38 26.5t26.5 10q11 0 17.5 -8.5t6.5 -18.5q0 -13 -24.5 -41t-56.5 -57t-62.5 -51t-43.5 -22q-11 0 -17.5 7.5t-6.5 18.5z" />
    <glyph glyph-name="Ecircumflex" unicode="&#xca;" horiz-adv-x="283" 
d="M375 802q13 0 41 -6.5t56 -17.5t49 -25.5t21 -30.5q0 -14 -10.5 -22.5t-23.5 -8.5q-17 0 -33.5 6t-33.5 13.5t-35 14t-38 6.5q-30 0 -57.5 -11t-47.5 -30t-32 -45t-12 -57q0 -36 11 -57.5t28 -34t36.5 -18t36.5 -11t28 -13t11 -22.5q0 -18 -17 -26.5t-40 -12.5t-46 -4.5
t-35 -2.5q-33 -6 -63 -28.5t-53.5 -54t-37 -68t-13.5 -68.5q0 -22 8.5 -44t23.5 -40t35 -29t43 -11q24 0 53.5 9t58.5 23.5t55 31.5t43 34q12 0 22 -8.5t10 -21.5q0 -21 -30 -45t-70 -45t-79 -34.5t-58 -13.5q-40 0 -73 14.5t-57 40t-37 59.5t-13 73q0 48 15.5 95t44 86
t68 67.5t87.5 40.5q-32 26 -49 63t-17 78q0 45 19 83.5t50.5 67t72 45t84.5 16.5zM255 874q0 9 11 25.5t29 35.5t39.5 39t42.5 36t38.5 26t27.5 10q13 0 31.5 -22.5t35 -52.5t28.5 -59t12 -41q0 -9 -8 -14.5t-16 -5.5q-11 0 -26 14t-29.5 33t-26.5 38t-17 28
q-11 -11 -30 -30.5t-40.5 -38t-43 -32t-36.5 -13.5q-9 0 -15.5 7.5t-6.5 16.5z" />
    <glyph glyph-name="Edieresis" unicode="&#xcb;" horiz-adv-x="283" 
d="M375 802q13 0 41 -6.5t56 -17.5t49 -25.5t21 -30.5q0 -14 -10.5 -22.5t-23.5 -8.5q-17 0 -33.5 6t-33.5 13.5t-35 14t-38 6.5q-30 0 -57.5 -11t-47.5 -30t-32 -45t-12 -57q0 -36 11 -57.5t28 -34t36.5 -18t36.5 -11t28 -13t11 -22.5q0 -18 -17 -26.5t-40 -12.5t-46 -4.5
t-35 -2.5q-33 -6 -63 -28.5t-53.5 -54t-37 -68t-13.5 -68.5q0 -22 8.5 -44t23.5 -40t35 -29t43 -11q24 0 53.5 9t58.5 23.5t55 31.5t43 34q12 0 22 -8.5t10 -21.5q0 -21 -30 -45t-70 -45t-79 -34.5t-58 -13.5q-40 0 -73 14.5t-57 40t-37 59.5t-13 73q0 48 15.5 95t44 86
t68 67.5t87.5 40.5q-32 26 -49 63t-17 78q0 45 19 83.5t50.5 67t72 45t84.5 16.5zM445 895q0 13 8.5 41t22 57t29.5 51t30 22t22.5 -10.5t8.5 -23.5q0 -12 -9 -40.5t-22.5 -57t-29.5 -50.5t-30 -22t-22 10t-8 23zM345 895q0 13 8.5 41t22 57t29.5 51t30 22t22.5 -10.5
t8.5 -23.5q0 -12 -9 -40.5t-22.5 -57t-29.5 -50.5t-30 -22t-22 10t-8 23z" />
    <glyph glyph-name="Igrave" unicode="&#xcc;" horiz-adv-x="226" 
d="M286 736q-41 0 -61 -13.5t-28.5 -33.5t-9 -44t-1.5 -44t-7 -33.5t-25 -13.5q-11 0 -17.5 5t-10 12.5t-4.5 16.5t-1 18q0 44 6.5 79.5t23.5 61t48 39t81 13.5q39 0 78 -7.5t78 -7.5q22 0 40 9.5t32 9.5t22 -10t8 -23q0 -30 -8.5 -79t-22 -107.5t-31 -122t-35.5 -122
t-35 -107.5t-29 -79q-14 -34 -32 -67t-42.5 -59t-56 -42t-73.5 -16q-18 0 -47 13t-57 33t-48.5 42.5t-20.5 42.5q0 14 9 23t23 9q12 0 28.5 -15.5t36.5 -33.5t42.5 -33.5t46.5 -15.5q37 0 67 30.5t52.5 73.5t37.5 88.5t22 74.5l98 421q-7 -1 -13.5 -1.5t-14.5 -0.5
q-38 0 -74.5 8t-74.5 8zM410 848q-9 0 -26 10.5t-37.5 26.5t-42 36t-39 39t-29 35t-11.5 25q0 11 7 19t19 8q8 0 25 -10.5t37.5 -27t42 -36.5t39 -39.5t29 -35.5t11.5 -24q0 -11 -7 -18.5t-18 -7.5z" />
    <glyph glyph-name="Iacute" unicode="&#xcd;" horiz-adv-x="226" 
d="M286 736q-41 0 -61 -13.5t-28.5 -33.5t-9 -44t-1.5 -44t-7 -33.5t-25 -13.5q-11 0 -17.5 5t-10 12.5t-4.5 16.5t-1 18q0 44 6.5 79.5t23.5 61t48 39t81 13.5q39 0 78 -7.5t78 -7.5q22 0 40 9.5t32 9.5t22 -10t8 -23q0 -30 -8.5 -79t-22 -107.5t-31 -122t-35.5 -122
t-35 -107.5t-29 -79q-14 -34 -32 -67t-42.5 -59t-56 -42t-73.5 -16q-18 0 -47 13t-57 33t-48.5 42.5t-20.5 42.5q0 14 9 23t23 9q12 0 28.5 -15.5t36.5 -33.5t42.5 -33.5t46.5 -15.5q37 0 67 30.5t52.5 73.5t37.5 88.5t22 74.5l98 421q-7 -1 -13.5 -1.5t-14.5 -0.5
q-38 0 -74.5 8t-74.5 8zM385 886q0 9 11.5 25t29 35.5t39.5 39t42.5 36t38 26.5t26.5 10q11 0 17.5 -8.5t6.5 -18.5q0 -13 -24.5 -41t-56.5 -57t-62.5 -51t-43.5 -22q-11 0 -17.5 7.5t-6.5 18.5z" />
    <glyph glyph-name="Icircumflex" unicode="&#xce;" horiz-adv-x="226" 
d="M286 736q-41 0 -61 -13.5t-28.5 -33.5t-9 -44t-1.5 -44t-7 -33.5t-25 -13.5q-11 0 -17.5 5t-10 12.5t-4.5 16.5t-1 18q0 44 6.5 79.5t23.5 61t48 39t81 13.5q39 0 78 -7.5t78 -7.5q22 0 40 9.5t32 9.5t22 -10t8 -23q0 -30 -8.5 -79t-22 -107.5t-31 -122t-35.5 -122
t-35 -107.5t-29 -79q-14 -34 -32 -67t-42.5 -59t-56 -42t-73.5 -16q-18 0 -47 13t-57 33t-48.5 42.5t-20.5 42.5q0 14 9 23t23 9q12 0 28.5 -15.5t36.5 -33.5t42.5 -33.5t46.5 -15.5q37 0 67 30.5t52.5 73.5t37.5 88.5t22 74.5l98 421q-7 -1 -13.5 -1.5t-14.5 -0.5
q-38 0 -74.5 8t-74.5 8zM240 888q0 9 11 25.5t29 35.5t39.5 39t42.5 36t38.5 26t27.5 10q13 0 31.5 -22.5t35 -52.5t28.5 -59t12 -41q0 -9 -8 -14.5t-16 -5.5q-11 0 -26 14t-29.5 33t-26.5 38t-17 28q-11 -11 -30 -30.5t-40.5 -38t-43 -32t-36.5 -13.5q-9 0 -15.5 7.5
t-6.5 16.5z" />
    <glyph glyph-name="Idieresis" unicode="&#xcf;" horiz-adv-x="226" 
d="M286 736q-41 0 -61 -13.5t-28.5 -33.5t-9 -44t-1.5 -44t-7 -33.5t-25 -13.5q-11 0 -17.5 5t-10 12.5t-4.5 16.5t-1 18q0 44 6.5 79.5t23.5 61t48 39t81 13.5q39 0 78 -7.5t78 -7.5q22 0 40 9.5t32 9.5t22 -10t8 -23q0 -30 -8.5 -79t-22 -107.5t-31 -122t-35.5 -122
t-35 -107.5t-29 -79q-14 -34 -32 -67t-42.5 -59t-56 -42t-73.5 -16q-18 0 -47 13t-57 33t-48.5 42.5t-20.5 42.5q0 14 9 23t23 9q12 0 28.5 -15.5t36.5 -33.5t42.5 -33.5t46.5 -15.5q37 0 67 30.5t52.5 73.5t37.5 88.5t22 74.5l98 421q-7 -1 -13.5 -1.5t-14.5 -0.5
q-38 0 -74.5 8t-74.5 8zM407 890q0 13 8.5 41t22 57t29.5 51t30 22t22.5 -10.5t8.5 -23.5q0 -12 -9 -40.5t-22.5 -57t-29.5 -50.5t-30 -22t-22 10t-8 23zM307 890q0 13 8.5 41t22 57t29.5 51t30 22t22.5 -10.5t8.5 -23.5q0 -12 -9 -40.5t-22.5 -57t-29.5 -50.5t-30 -22
t-22 10t-8 23z" />
    <glyph glyph-name="Eth" unicode="&#xd0;" horiz-adv-x="480" 
d="M310 376q-12 0 -36 -0.5t-48 2t-42 10t-18 25.5q0 20 21.5 28.5t49.5 10.5t56 0t41 -2q4 12 11.5 37.5t17.5 57t22 65t24.5 61t25.5 45.5t25 18t20.5 -10t8.5 -21q0 -6 -5 -24t-13.5 -43.5t-18 -54.5t-19 -55.5t-17 -47.5t-10.5 -30l40 1q9 0 23 -0.5t27.5 -3.5
t23.5 -10.5t10 -21.5q0 -18 -18.5 -26t-43.5 -11t-50 -2.5t-38 0.5q-25 -72 -48 -143.5t-57 -140.5q29 -19 58 -33t64 -14q44 0 82 23t69.5 60.5t56.5 85t41.5 97t25.5 97t9 83.5q0 51 -12.5 97t-38.5 80t-66.5 54t-96.5 20q-58 0 -104 -15.5t-81 -38t-61 -49.5t-45 -49.5
t-32 -38t-22 -15.5q-14 0 -22 10t-8 23q0 6 2 14q15 49 56.5 90t95.5 70.5t112 46t105 16.5q67 0 120 -23.5t89.5 -64.5t55.5 -96.5t19 -120.5q0 -46 -10.5 -102t-30.5 -114.5t-49 -113.5t-67.5 -98t-85.5 -69t-102 -26q-45 0 -86.5 16t-77.5 42q-23 -26 -53.5 -43.5
t-65.5 -17.5q-20 0 -41 7t-38 20t-28.5 31t-11.5 40q0 23 11 37t27.5 22t36.5 11t38 3q27 0 53.5 -5t50.5 -16q29 61 50.5 125t42.5 128zM125 39q17 0 30.5 9t24.5 21q-30 9 -61 9q-26 0 -50 -6l-4 -4q9 -16 26 -22.5t34 -6.5z" />
    <glyph glyph-name="Ntilde" unicode="&#xd1;" horiz-adv-x="686" 
d="M191 -33q-18 0 -35 2.5t-34 9.5q-11 4 -31.5 19t-40.5 34t-35 37.5t-15 30.5q0 14 9 23t23 9q11 0 29 -16.5t39 -36t42.5 -36t39.5 -16.5q27 0 54.5 20t53.5 51.5t49.5 71t44 78t37 73t27.5 55.5q9 17 29.5 55.5t48 86t58.5 98t61 92t55.5 68.5t42.5 27q12 0 22 -9
t10 -22q0 -51 -5.5 -100t-9.5 -100l-32 -417q29 38 49 82t43 86q15 29 37 69t48 84.5t55.5 89.5t59.5 84.5t60.5 70t58.5 44.5q37 19 78 29t83 10q13 0 23.5 -9t10.5 -23q0 -15 -16 -23t-37 -12.5t-42.5 -6.5t-31.5 -5q-37 -12 -68 -37t-56.5 -56.5t-47 -67t-40.5 -66.5
q-9 -16 -33 -59t-55 -99t-65 -117t-62.5 -112.5t-47.5 -85.5t-21 -36q-12 -12 -28 -12q-15 0 -23 11.5t-8 25.5q0 54 6 107t10 107l34 448q-50 -64 -90 -133.5t-77 -140.5t-74.5 -142.5t-81.5 -138.5q-14 -22 -34.5 -48.5t-45 -50t-52 -39.5t-56.5 -16zM922 920
q-12 -8 -21.5 -22.5t-19 -28.5t-20 -25t-23.5 -11q-12 0 -21 9t-9 21q0 17 12 38.5t30 40.5t39 32t39 13q24 0 42 -13.5t34.5 -30t33 -31.5t35.5 -19q10 3 19 18.5t18 32.5t19 30.5t24 13.5t23 -9.5t9 -23.5q0 -17 -11 -39.5t-28 -42.5t-37 -34t-38 -14q-22 0 -41 15
t-36.5 32.5t-35 32.5t-36.5 15z" />
    <glyph glyph-name="Ograve" unicode="&#xd2;" horiz-adv-x="357" 
d="M0 206q0 53 12 118.5t35 132.5t57.5 130t79.5 112t100 78.5t119 29.5q42 0 80.5 -16.5t65.5 -48.5q-1 9 0 19.5t4.5 19.5t10.5 15t19 6q16 0 25 -12l10 4l-2 -21l1 -1q1 -20 4 -40t13 -37l7 -4l8 -1q17 5 43.5 23t52.5 38t47 36t27 16q13 0 21.5 -9.5t8.5 -21.5t-12 -28
t-30.5 -32t-41.5 -32t-45.5 -28t-42.5 -19.5t-31 -7.5q-22 0 -40 12h-1l-1 -8q-5 -53 -17 -122t-34 -141.5t-54 -142t-75 -124t-98 -88t-123 -33.5q-53 0 -91 17t-63 47.5t-37 72.5t-12 91zM202 43q54 0 99.5 31t83 81.5t66 114t47.5 128t29 124.5t10 103q0 25 -11.5 46
t-30 36.5t-41.5 24t-46 8.5q-55 0 -101.5 -26.5t-84.5 -70t-67 -99.5t-49 -114.5t-30 -115t-10 -101.5q0 -33 7 -64t23 -54.5t42 -37.5t64 -14zM505 842q-9 0 -26 10.5t-37.5 26.5t-42 36t-39 39t-29 35t-11.5 25q0 11 7 19t19 8q8 0 25 -10.5t37.5 -27t42 -36.5t39 -39.5
t29 -35.5t11.5 -24q0 -11 -7 -18.5t-18 -7.5z" />
    <glyph glyph-name="Oacute" unicode="&#xd3;" horiz-adv-x="357" 
d="M0 206q0 53 12 118.5t35 132.5t57.5 130t79.5 112t100 78.5t119 29.5q42 0 80.5 -16.5t65.5 -48.5q-1 9 0 19.5t4.5 19.5t10.5 15t19 6q16 0 25 -12l10 4l-2 -21l1 -1q1 -20 4 -40t13 -37l7 -4l8 -1q17 5 43.5 23t52.5 38t47 36t27 16q13 0 21.5 -9.5t8.5 -21.5t-12 -28
t-30.5 -32t-41.5 -32t-45.5 -28t-42.5 -19.5t-31 -7.5q-22 0 -40 12h-1l-1 -8q-5 -53 -17 -122t-34 -141.5t-54 -142t-75 -124t-98 -88t-123 -33.5q-53 0 -91 17t-63 47.5t-37 72.5t-12 91zM202 43q54 0 99.5 31t83 81.5t66 114t47.5 128t29 124.5t10 103q0 25 -11.5 46
t-30 36.5t-41.5 24t-46 8.5q-55 0 -101.5 -26.5t-84.5 -70t-67 -99.5t-49 -114.5t-30 -115t-10 -101.5q0 -33 7 -64t23 -54.5t42 -37.5t64 -14zM378 894q0 9 11.5 25t29 35.5t39.5 39t42.5 36t38 26.5t26.5 10q11 0 17.5 -8.5t6.5 -18.5q0 -13 -24.5 -41t-56.5 -57
t-62.5 -51t-43.5 -22q-11 0 -17.5 7.5t-6.5 18.5z" />
    <glyph glyph-name="Ocircumflex" unicode="&#xd4;" horiz-adv-x="357" 
d="M0 206q0 53 12 118.5t35 132.5t57.5 130t79.5 112t100 78.5t119 29.5q42 0 80.5 -16.5t65.5 -48.5q-1 9 0 19.5t4.5 19.5t10.5 15t19 6q16 0 25 -12l10 4l-2 -21l1 -1q1 -20 4 -40t13 -37l7 -4l8 -1q17 5 43.5 23t52.5 38t47 36t27 16q13 0 21.5 -9.5t8.5 -21.5t-12 -28
t-30.5 -32t-41.5 -32t-45.5 -28t-42.5 -19.5t-31 -7.5q-22 0 -40 12h-1l-1 -8q-5 -53 -17 -122t-34 -141.5t-54 -142t-75 -124t-98 -88t-123 -33.5q-53 0 -91 17t-63 47.5t-37 72.5t-12 91zM202 43q54 0 99.5 31t83 81.5t66 114t47.5 128t29 124.5t10 103q0 25 -11.5 46
t-30 36.5t-41.5 24t-46 8.5q-55 0 -101.5 -26.5t-84.5 -70t-67 -99.5t-49 -114.5t-30 -115t-10 -101.5q0 -33 7 -64t23 -54.5t42 -37.5t64 -14zM295 884q0 9 11 25.5t29 35.5t39.5 39t42.5 36t38.5 26t27.5 10q13 0 31.5 -22.5t35 -52.5t28.5 -59t12 -41q0 -9 -8 -14.5
t-16 -5.5q-11 0 -26 14t-29.5 33t-26.5 38t-17 28q-11 -11 -30 -30.5t-40.5 -38t-43 -32t-36.5 -13.5q-9 0 -15.5 7.5t-6.5 16.5z" />
    <glyph glyph-name="Otilde" unicode="&#xd5;" horiz-adv-x="357" 
d="M0 206q0 53 12 118.5t35 132.5t57.5 130t79.5 112t100 78.5t119 29.5q42 0 80.5 -16.5t65.5 -48.5q-1 9 0 19.5t4.5 19.5t10.5 15t19 6q16 0 25 -12l10 4l-2 -21l1 -1q1 -20 4 -40t13 -37l7 -4l8 -1q17 5 43.5 23t52.5 38t47 36t27 16q13 0 21.5 -9.5t8.5 -21.5t-12 -28
t-30.5 -32t-41.5 -32t-45.5 -28t-42.5 -19.5t-31 -7.5q-22 0 -40 12h-1l-1 -8q-5 -53 -17 -122t-34 -141.5t-54 -142t-75 -124t-98 -88t-123 -33.5q-53 0 -91 17t-63 47.5t-37 72.5t-12 91zM202 43q54 0 99.5 31t83 81.5t66 114t47.5 128t29 124.5t10 103q0 25 -11.5 46
t-30 36.5t-41.5 24t-46 8.5q-55 0 -101.5 -26.5t-84.5 -70t-67 -99.5t-49 -114.5t-30 -115t-10 -101.5q0 -33 7 -64t23 -54.5t42 -37.5t64 -14zM379 955q-12 -8 -21.5 -22.5t-19 -28.5t-20 -25t-23.5 -11q-12 0 -21 9t-9 21q0 17 12 38.5t30 40.5t39 32t39 13q24 0 42 -13.5
t34.5 -30t33 -31.5t35.5 -19q10 3 19 18.5t18 32.5t19 30.5t24 13.5t23 -9.5t9 -23.5q0 -17 -11 -39.5t-28 -42.5t-37 -34t-38 -14q-22 0 -41 15t-36.5 32.5t-35 32.5t-36.5 15z" />
    <glyph glyph-name="Odieresis" unicode="&#xd6;" horiz-adv-x="357" 
d="M0 206q0 53 12 118.5t35 132.5t57.5 130t79.5 112t100 78.5t119 29.5q42 0 80.5 -16.5t65.5 -48.5q-1 9 0 19.5t4.5 19.5t10.5 15t19 6q16 0 25 -12l10 4l-2 -21l1 -1q1 -20 4 -40t13 -37l7 -4l8 -1q17 5 43.5 23t52.5 38t47 36t27 16q13 0 21.5 -9.5t8.5 -21.5t-12 -28
t-30.5 -32t-41.5 -32t-45.5 -28t-42.5 -19.5t-31 -7.5q-22 0 -40 12h-1l-1 -8q-5 -53 -17 -122t-34 -141.5t-54 -142t-75 -124t-98 -88t-123 -33.5q-53 0 -91 17t-63 47.5t-37 72.5t-12 91zM202 43q54 0 99.5 31t83 81.5t66 114t47.5 128t29 124.5t10 103q0 25 -11.5 46
t-30 36.5t-41.5 24t-46 8.5q-55 0 -101.5 -26.5t-84.5 -70t-67 -99.5t-49 -114.5t-30 -115t-10 -101.5q0 -33 7 -64t23 -54.5t42 -37.5t64 -14zM452 869q0 13 8.5 41t22 57t29.5 51t30 22t22.5 -10.5t8.5 -23.5q0 -12 -9 -40.5t-22.5 -57t-29.5 -50.5t-30 -22t-22 10t-8 23z
M352 869q0 13 8.5 41t22 57t29.5 51t30 22t22.5 -10.5t8.5 -23.5q0 -12 -9 -40.5t-22.5 -57t-29.5 -50.5t-30 -22t-22 10t-8 23z" />
    <glyph glyph-name="multiply" unicode="&#xd7;" horiz-adv-x="468" 
d="M330 314l-20.5 -20.5t-30 -28.5t-30.5 -25t-23 -11q-12 0 -21.5 6.5t-9.5 20.5q0 12 12 28t28 33t32 31.5t25 23.5q-5 8 -16 22.5t-22 31t-19 31t-8 22.5q0 14 10.5 25.5t25.5 11.5q10 0 23 -11t25.5 -26t23 -30t16.5 -23q7 7 22 21.5t31.5 29.5t32 26t24.5 11
q11 0 19 -7.5t8 -18.5t-12 -28.5t-28.5 -35.5t-33 -34t-25.5 -24q3 -5 14 -21t22.5 -34t20.5 -33t9 -18q0 -15 -10 -27t-26 -12q-11 0 -24 11.5t-25 27t-23 31t-17 23.5z" />
    <glyph glyph-name="Oslash" unicode="&#xd8;" horiz-adv-x="337" 
d="M59 206q0 53 12 118.5t35 132.5t57.5 130t79.5 112t99.5 78.5t119.5 29.5q35 0 69 -12.5t60 -35.5q4 6 9 14.5t11.5 15.5t14 12t16.5 5q14 0 22 -10.5t11 -22.5l1 -1l4 -40t13 -37l7 -4l8 -1q18 5 44 23t52 38t47 36t27 16q13 0 21.5 -9.5t8.5 -21.5t-12 -28t-30.5 -32
t-41.5 -32t-45.5 -28t-42.5 -19.5t-31 -7.5q-22 0 -40 12h-1l-1 -8q-5 -53 -17 -122t-34 -141.5t-54 -142t-75 -124t-98 -88t-123 -33.5q-55 0 -102 22.5t-73 73.5q-5 -7 -10.5 -16t-12 -17.5t-14.5 -14t-18 -5.5q-14 0 -22.5 9.5t-8.5 22.5q0 9 7.5 22.5t17.5 27.5
t20.5 26.5t16.5 20.5q-2 14 -3 28t-1 28zM261 43q54 0 99.5 31t83 81.5t66 114t47.5 128t29 124.5t10 103q0 14 -5 29q-55 -67 -112.5 -131.5t-115.5 -128t-115.5 -128t-112.5 -131.5q13 -45 46.5 -68.5t79.5 -23.5zM126 223q105 123 215.5 241.5t211.5 245.5
q-18 14 -40.5 22t-45.5 8q-54 0 -100 -26t-84 -68.5t-66.5 -97t-48.5 -112t-30.5 -113.5t-11.5 -100z" />
    <glyph glyph-name="Ugrave" unicode="&#xd9;" horiz-adv-x="527" 
d="M105 129q0 -11 3.5 -26.5t10 -30.5t16.5 -25.5t24 -10.5q32 0 64 20.5t62 53t56.5 73.5t49 82.5t39 79t26.5 64.5q6 17 15.5 48.5t20 69.5t22 78.5t22.5 75.5t20.5 61t16.5 35q10 12 21.5 18.5t28.5 6.5q11 0 13 -6.5t2 -14.5q0 -19 -6 -42t-14 -46t-17.5 -45.5
t-15.5 -41.5q-19 -55 -41.5 -123.5t-42 -140t-32.5 -141t-13 -126.5q0 -15 3.5 -25.5t22.5 -10.5q12 0 35 15.5t47 34.5t45 34.5t31 15.5q5 0 8 -5t5 -11.5t2.5 -13.5t0.5 -10q0 -11 -24 -32t-55 -42t-60.5 -36.5t-41.5 -15.5q-30 0 -47.5 12t-26 30.5t-11 42t-2.5 47.5
q0 15 2 30t5 30q-18 -25 -43 -59t-55 -64.5t-63.5 -52t-67.5 -21.5q-40 0 -65 16t-39 42t-19 58.5t-5 65.5q0 77 24 148.5t53.5 142t53.5 142.5t24 149q-10 -6 -34.5 -25t-50.5 -40t-48 -37t-28 -16q-13 0 -22.5 8t-9.5 22q0 13 12 29.5t31 33.5t43 34t47 30t43.5 21t32.5 8
q13 0 23 -7t16.5 -17.5t9.5 -23.5t3 -24q0 -53 -11.5 -103t-29 -98.5t-37.5 -97t-37.5 -97.5t-29 -99.5t-11.5 -103.5zM488 835q-9 0 -26 10.5t-37.5 26.5t-42 36t-39 39t-29 35.5t-11.5 24.5q0 11 7 19t19 8q8 0 25 -10.5t37.5 -27t42 -36.5t39 -39.5t29 -35.5t11.5 -24
q0 -11 -7 -18.5t-18 -7.5z" />
    <glyph glyph-name="Uacute" unicode="&#xda;" horiz-adv-x="527" 
d="M105 129q0 -11 3.5 -26.5t10 -30.5t16.5 -25.5t24 -10.5q32 0 64 20.5t62 53t56.5 73.5t49 82.5t39 79t26.5 64.5q6 17 15.5 48.5t20 69.5t22 78.5t22.5 75.5t20.5 61t16.5 35q10 12 21.5 18.5t28.5 6.5q11 0 13 -6.5t2 -14.5q0 -19 -6 -42t-14 -46t-17.5 -45.5
t-15.5 -41.5q-19 -55 -41.5 -123.5t-42 -140t-32.5 -141t-13 -126.5q0 -15 3.5 -25.5t22.5 -10.5q12 0 35 15.5t47 34.5t45 34.5t31 15.5q5 0 8 -5t5 -11.5t2.5 -13.5t0.5 -10q0 -11 -24 -32t-55 -42t-60.5 -36.5t-41.5 -15.5q-30 0 -47.5 12t-26 30.5t-11 42t-2.5 47.5
q0 15 2 30t5 30q-18 -25 -43 -59t-55 -64.5t-63.5 -52t-67.5 -21.5q-40 0 -65 16t-39 42t-19 58.5t-5 65.5q0 77 24 148.5t53.5 142t53.5 142.5t24 149q-10 -6 -34.5 -25t-50.5 -40t-48 -37t-28 -16q-13 0 -22.5 8t-9.5 22q0 13 12 29.5t31 33.5t43 34t47 30t43.5 21t32.5 8
q13 0 23 -7t16.5 -17.5t9.5 -23.5t3 -24q0 -53 -11.5 -103t-29 -98.5t-37.5 -97t-37.5 -97.5t-29 -99.5t-11.5 -103.5zM369 855q0 9 11.5 25t29 35.5t39.5 39t42.5 36t38 26.5t26.5 10q11 0 17.5 -8.5t6.5 -18.5q0 -13 -24.5 -41t-56.5 -57t-62.5 -51t-43.5 -22
q-11 0 -17.5 7.5t-6.5 18.5z" />
    <glyph glyph-name="Ucircumflex" unicode="&#xdb;" horiz-adv-x="527" 
d="M105 129q0 -11 3.5 -26.5t10 -30.5t16.5 -25.5t24 -10.5q32 0 64 20.5t62 53t56.5 73.5t49 82.5t39 79t26.5 64.5q6 17 15.5 48.5t20 69.5t22 78.5t22.5 75.5t20.5 61t16.5 35q10 12 21.5 18.5t28.5 6.5q11 0 13 -6.5t2 -14.5q0 -19 -6 -42t-14 -46t-17.5 -45.5
t-15.5 -41.5q-19 -55 -41.5 -123.5t-42 -140t-32.5 -141t-13 -126.5q0 -15 3.5 -25.5t22.5 -10.5q12 0 35 15.5t47 34.5t45 34.5t31 15.5q5 0 8 -5t5 -11.5t2.5 -13.5t0.5 -10q0 -11 -24 -32t-55 -42t-60.5 -36.5t-41.5 -15.5q-30 0 -47.5 12t-26 30.5t-11 42t-2.5 47.5
q0 15 2 30t5 30q-18 -25 -43 -59t-55 -64.5t-63.5 -52t-67.5 -21.5q-40 0 -65 16t-39 42t-19 58.5t-5 65.5q0 77 24 148.5t53.5 142t53.5 142.5t24 149q-10 -6 -34.5 -25t-50.5 -40t-48 -37t-28 -16q-13 0 -22.5 8t-9.5 22q0 13 12 29.5t31 33.5t43 34t47 30t43.5 21t32.5 8
q13 0 23 -7t16.5 -17.5t9.5 -23.5t3 -24q0 -53 -11.5 -103t-29 -98.5t-37.5 -97t-37.5 -97.5t-29 -99.5t-11.5 -103.5zM273 876q0 9 11 25.5t29 35.5t39.5 39t42.5 36t38.5 26t27.5 10q13 0 31.5 -22.5t35 -52.5t28.5 -59t12 -41q0 -9 -8 -14.5t-16 -5.5q-11 0 -26 14
t-29.5 33t-26.5 38t-17 28q-11 -11 -30 -30.5t-40.5 -38t-43 -32t-36.5 -13.5q-9 0 -15.5 7.5t-6.5 16.5z" />
    <glyph glyph-name="Udieresis" unicode="&#xdc;" horiz-adv-x="527" 
d="M105 129q0 -11 3.5 -26.5t10 -30.5t16.5 -25.5t24 -10.5q32 0 64 20.5t62 53t56.5 73.5t49 82.5t39 79t26.5 64.5q6 17 15.5 48.5t20 69.5t22 78.5t22.5 75.5t20.5 61t16.5 35q10 12 21.5 18.5t28.5 6.5q11 0 13 -6.5t2 -14.5q0 -19 -6 -42t-14 -46t-17.5 -45.5
t-15.5 -41.5q-19 -55 -41.5 -123.5t-42 -140t-32.5 -141t-13 -126.5q0 -15 3.5 -25.5t22.5 -10.5q12 0 35 15.5t47 34.5t45 34.5t31 15.5q5 0 8 -5t5 -11.5t2.5 -13.5t0.5 -10q0 -11 -24 -32t-55 -42t-60.5 -36.5t-41.5 -15.5q-30 0 -47.5 12t-26 30.5t-11 42t-2.5 47.5
q0 15 2 30t5 30q-18 -25 -43 -59t-55 -64.5t-63.5 -52t-67.5 -21.5q-40 0 -65 16t-39 42t-19 58.5t-5 65.5q0 77 24 148.5t53.5 142t53.5 142.5t24 149q-10 -6 -34.5 -25t-50.5 -40t-48 -37t-28 -16q-13 0 -22.5 8t-9.5 22q0 13 12 29.5t31 33.5t43 34t47 30t43.5 21t32.5 8
q13 0 23 -7t16.5 -17.5t9.5 -23.5t3 -24q0 -53 -11.5 -103t-29 -98.5t-37.5 -97t-37.5 -97.5t-29 -99.5t-11.5 -103.5zM450 860q0 13 8.5 41t22 57t29.5 51t30 22t22.5 -10.5t8.5 -23.5q0 -12 -9 -40.5t-22.5 -57t-29.5 -50.5t-30 -22t-22 10t-8 23zM350 860q0 13 8.5 41
t22 57t29.5 51t30 22t22.5 -10.5t8.5 -23.5q0 -12 -9 -40.5t-22.5 -57t-29.5 -50.5t-30 -22t-22 10t-8 23z" />
    <glyph glyph-name="Yacute" unicode="&#xdd;" horiz-adv-x="527" 
d="M106 137q0 -17 2.5 -35t10 -32.5t21 -24t34.5 -9.5q30 0 61.5 20.5t62 53t58.5 73t51.5 81.5t40 78.5t24.5 62.5q20 64 37.5 128t34.5 129q3 12 7.5 35t11.5 45.5t17.5 39.5t26.5 17q11 0 21 -8.5t10 -20.5q0 -21 -11.5 -74t-30 -123t-40.5 -149.5t-43 -152.5
t-38.5 -132.5t-26.5 -89.5q18 7 46.5 21.5t59.5 28.5t58.5 24.5t44.5 10.5q12 0 12 -11q0 -16 -14 -32.5t-36.5 -32.5t-50.5 -30t-55 -25.5t-50 -20t-37 -11.5q-8 -23 -18 -54.5t-23.5 -65.5t-30.5 -67.5t-38 -60t-46 -43t-55 -16.5q-47 0 -73 24t-26 72q0 44 28 83.5
t68 72.5t84.5 59.5t77.5 46.5l39 143q-18 -25 -46.5 -59t-61.5 -64.5t-68.5 -52t-69.5 -21.5q-40 0 -65 16t-39 42t-19 58.5t-5 65.5q0 77 24.5 149t54 143t53.5 142.5t23 147.5l-6 6q-16 -3 -39.5 -23t-47.5 -42.5t-43 -40.5t-26 -18q-13 0 -22.5 8t-9.5 22q0 13 12 30
t31.5 34t43 33.5t47 29.5t44 21t32.5 8q13 0 22.5 -7.5t16 -18.5t9.5 -24t3 -24q0 -52 -11.5 -101t-28.5 -97.5t-37.5 -96t-37.5 -95.5t-28.5 -97.5t-11.5 -101.5zM182 -247q0 -25 24 -25q21 0 43 25.5t41 59t33.5 67.5t20.5 52q-21 -15 -49 -33.5t-53 -41t-42.5 -48.5
t-17.5 -56zM374 827q0 9 11.5 25t29 35.5t39.5 39t42.5 36t38 26.5t26.5 10q11 0 17.5 -8.5t6.5 -18.5q0 -13 -24.5 -41t-56.5 -57t-62.5 -51t-43.5 -22q-11 0 -17.5 7.5t-6.5 18.5z" />
    <glyph glyph-name="Thorn" unicode="&#xde;" horiz-adv-x="424" 
d="M462 163l-3 -2q-11 -27 -28 -60t-39.5 -62.5t-50.5 -49.5t-62 -20q-33 0 -55.5 6.5t-40 19.5t-32.5 32.5t-32 44.5q-4 5 -7 11t-3 13q0 13 9.5 22.5t22.5 9.5q19 0 32.5 -14.5t26.5 -31.5t27.5 -31.5t36.5 -14.5q32 0 59.5 30t50.5 77.5t41.5 104.5t32.5 111.5t23.5 98.5
t13.5 65q-48 -14 -78.5 -28t-56 -31.5t-51 -39t-62.5 -49.5q-6 -5 -12.5 -8.5t-14.5 -3.5q-13 0 -22 9.5t-9 22.5q0 20 19 41.5t48.5 42.5t65.5 40t71.5 34.5t65.5 25.5t47 13q1 9 3 26.5t4.5 39t6 43.5t9.5 40.5t14.5 30t20.5 11.5q6 0 12.5 -3t12 -7.5t8.5 -11t2 -12.5
l-27 -154q50 -2 97.5 -17t85 -43t60.5 -70t23 -97q0 -69 -34 -111t-86 -65t-112.5 -30.5t-114.5 -7.5zM552 531q-8 -80 -25 -158.5t-46 -153.5q25 6 56 8.5t62 5.5t60.5 9.5t52.5 20.5t37 38t14 63q0 42 -19.5 73t-50 52t-68 31.5t-73.5 10.5z" />
    <glyph glyph-name="germandbls" unicode="&#xdf;" horiz-adv-x="576" 
d="M379 371q-23 -5 -49.5 -30.5t-54.5 -61.5t-56.5 -76.5t-55 -75t-50.5 -57t-44 -22.5h-13t-14 1.5t-12 5t-7 10.5q17 19 44 54t59.5 76t68.5 83.5t70 77.5t64.5 57t52.5 22q16 0 26 -6q9 32 21.5 73t28.5 82.5t37.5 81.5t49 71t61.5 50t77 19q39 0 65 -15.5t41.5 -40.5
t22 -57t6.5 -65q0 -34 -6 -69t-20 -66.5t-37 -56.5t-57 -40q45 -27 70 -59.5t25 -87.5q0 -51 -21 -99.5t-56.5 -86.5t-82.5 -61.5t-99 -23.5q-38 0 -69 20.5t-51 51.5q-2 8 -2 14q0 13 8 23t22 10q12 0 20.5 -8t16.5 -17t19 -17t29 -8q39 0 75.5 17t65 45t45.5 64.5t17 75.5
q0 1 -1.5 7t-3 12.5l-3 13t-1.5 8.5q-6 8 -11.5 17t-12.5 17q-11 12 -35 18.5t-49 13.5t-43.5 16.5t-18.5 26.5q0 12 8.5 21t18.5 14q9 -3 18 -5t19 -2q35 0 62 22t46 54t28.5 69t9.5 66q0 19 -4 38t-13.5 33t-25 23t-37.5 9q-38 0 -68 -26.5t-53 -64.5t-39 -79t-24 -71
l-280 -992l-75 -22q8 29 23 77.5t33.5 108.5t39 128.5t40.5 138t39 136.5t33 124t23 100.5t9 66.5z" />
    <glyph glyph-name="agrave" unicode="&#xe0;" horiz-adv-x="505" 
d="M3 -7q0 7 17.5 31.5t44.5 57.5t59.5 70.5t62.5 71.5t54 60.5t33 37.5q18 22 43 41t53.5 33t58.5 22t59 8q31 0 57.5 -16t44.5 -39q6 16 16 33.5t30 17.5q14 0 22 -11.5t8 -24.5q0 -14 -10 -39t-25.5 -56t-33.5 -65.5t-33.5 -66.5t-25.5 -59t-10 -43q0 -6 4 -11t11 -5
q23 0 49.5 14.5t51 32t43.5 32t27 14.5q11 0 17.5 -12.5t6.5 -21.5q0 -11 -12 -24.5t-30.5 -27.5t-41 -26.5t-44.5 -22.5t-41 -16t-29 -6q-26 0 -49 14t-29 41q-38 -22 -82.5 -43.5t-89.5 -21.5q-35 0 -57.5 15.5t-35 40.5t-15.5 54.5t2 58.5q-8 -11 -30 -38.5t-47 -56.5
t-48.5 -51.5t-33.5 -22.5q-11 0 -16.5 8.5t-5.5 17.5zM481 121q6 17 17.5 40t22.5 46.5t19 46t8 39.5q0 26 -15 47t-43 21q-50 0 -95 -23.5t-78.5 -61t-53 -85t-19.5 -95.5q0 -62 61 -62q26 0 49.5 8t45 21t42 28t39.5 30zM559 603q-9 0 -26 10.5t-37.5 26.5t-42 36t-39 39
t-29 35t-11.5 25q0 11 7 19t19 8q8 0 25 -10.5t37.5 -27t42 -36.5t39 -39.5t29 -35.5t11.5 -24q0 -11 -7 -18.5t-18 -7.5z" />
    <glyph glyph-name="aacute" unicode="&#xe1;" horiz-adv-x="503" 
d="M1 -7q0 7 17.5 31.5t44.5 57.5t59.5 70.5t62.5 71.5t54 60.5t33 37.5q18 22 43 41t53.5 33t58.5 22t59 8q31 0 57.5 -16t44.5 -39q6 16 16 33.5t30 17.5q14 0 22 -11.5t8 -24.5q0 -14 -10 -39t-25.5 -56t-33.5 -65.5t-33.5 -66.5t-25.5 -59t-10 -43q0 -6 4 -11t11 -5
q23 0 49.5 14.5t51 32t43.5 32t27 14.5q11 0 17.5 -12.5t6.5 -21.5q0 -11 -12 -24.5t-30.5 -27.5t-41 -26.5t-44.5 -22.5t-41 -16t-29 -6q-26 0 -49 14t-29 41q-38 -22 -82.5 -43.5t-89.5 -21.5q-35 0 -57.5 15.5t-35 40.5t-15.5 54.5t2 58.5q-8 -11 -30 -38.5t-47 -56.5
t-48.5 -51.5t-33.5 -22.5q-11 0 -16.5 8.5t-5.5 17.5zM479 121q6 17 17.5 40t22.5 46.5t19 46t8 39.5q0 26 -15 47t-43 21q-50 0 -95 -23.5t-78.5 -61t-53 -85t-19.5 -95.5q0 -62 61 -62q26 0 49.5 8t45 21t42 28t39.5 30zM592 624q0 9 11.5 25t29 35.5t39.5 39t42.5 36
t38 26.5t26.5 10q11 0 17.5 -8.5t6.5 -18.5q0 -13 -24.5 -41t-56.5 -57t-62.5 -51t-43.5 -22q-11 0 -17.5 7.5t-6.5 18.5z" />
    <glyph glyph-name="acircumflex" unicode="&#xe2;" horiz-adv-x="503" 
d="M1 -7q0 7 17.5 31.5t44.5 57.5t59.5 70.5t62.5 71.5t54 60.5t33 37.5q18 22 43 41t53.5 33t58.5 22t59 8q31 0 57.5 -16t44.5 -39q6 16 16 33.5t30 17.5q14 0 22 -11.5t8 -24.5q0 -14 -10 -39t-25.5 -56t-33.5 -65.5t-33.5 -66.5t-25.5 -59t-10 -43q0 -6 4 -11t11 -5
q23 0 49.5 14.5t51 32t43.5 32t27 14.5q11 0 17.5 -12.5t6.5 -21.5q0 -11 -12 -24.5t-30.5 -27.5t-41 -26.5t-44.5 -22.5t-41 -16t-29 -6q-26 0 -49 14t-29 41q-38 -22 -82.5 -43.5t-89.5 -21.5q-35 0 -57.5 15.5t-35 40.5t-15.5 54.5t2 58.5q-8 -11 -30 -38.5t-47 -56.5
t-48.5 -51.5t-33.5 -22.5q-11 0 -16.5 8.5t-5.5 17.5zM479 121q6 17 17.5 40t22.5 46.5t19 46t8 39.5q0 26 -15 47t-43 21q-50 0 -95 -23.5t-78.5 -61t-53 -85t-19.5 -95.5q0 -62 61 -62q26 0 49.5 8t45 21t42 28t39.5 30zM421 600q0 9 11 25.5t29 35.5t39.5 39t42.5 36
t38.5 26t27.5 10q13 0 31.5 -22.5t35 -52.5t28.5 -59t12 -41q0 -9 -8 -14.5t-16 -5.5q-14 0 -30.5 15.5t-31 35t-25.5 38t-12 24.5q-11 -11 -30 -30.5t-40.5 -38t-43 -32t-36.5 -13.5q-9 0 -15.5 7.5t-6.5 16.5z" />
    <glyph glyph-name="atilde" unicode="&#xe3;" horiz-adv-x="507" 
d="M5 -7q0 7 17.5 31.5t44.5 57.5t59.5 70.5t62.5 71.5t54 60.5t33 37.5q18 22 43 41t53.5 33t58.5 22t59 8q31 0 57.5 -16t44.5 -39q6 16 16 33.5t30 17.5q14 0 22 -11.5t8 -24.5q0 -14 -10 -39t-25.5 -56t-33.5 -65.5t-33.5 -66.5t-25.5 -59t-10 -43q0 -6 4 -11t11 -5
q23 0 49.5 14.5t51 32t43.5 32t27 14.5q11 0 17.5 -12.5t6.5 -21.5q0 -11 -12 -24.5t-30.5 -27.5t-41 -26.5t-44.5 -22.5t-41 -16t-29 -6q-26 0 -49 14t-29 41q-38 -22 -82.5 -43.5t-89.5 -21.5q-35 0 -57.5 15.5t-35 40.5t-15.5 54.5t2 58.5q-8 -11 -30 -38.5t-47 -56.5
t-48.5 -51.5t-33.5 -22.5q-11 0 -16.5 8.5t-5.5 17.5zM483 121q6 17 17.5 40t22.5 46.5t19 46t8 39.5q0 26 -15 47t-43 21q-50 0 -95 -23.5t-78.5 -61t-53 -85t-19.5 -95.5q0 -62 61 -62q26 0 49.5 8t45 21t42 28t39.5 30zM508 680q-12 -8 -21.5 -22.5t-19 -28.5t-20 -25
t-23.5 -11q-12 0 -21 9t-9 21q0 17 12 38.5t30 40.5t39 32t39 13q24 0 42 -13.5t34.5 -30t33 -31.5t35.5 -19q10 3 19 18.5t18 32.5t19 30.5t24 13.5t23 -9.5t9 -23.5q0 -17 -11 -39.5t-28 -42.5t-37 -34t-38 -14q-22 0 -41 15t-36.5 32.5t-35 32.5t-36.5 15z" />
    <glyph glyph-name="adieresis" unicode="&#xe4;" horiz-adv-x="503" 
d="M1 -7q0 7 17.5 31.5t44.5 57.5t59.5 70.5t62.5 71.5t54 60.5t33 37.5q18 22 43 41t53.5 33t58.5 22t59 8q31 0 57.5 -16t44.5 -39q6 16 16 33.5t30 17.5q14 0 22 -11.5t8 -24.5q0 -14 -10 -39t-25.5 -56t-33.5 -65.5t-33.5 -66.5t-25.5 -59t-10 -43q0 -6 4 -11t11 -5
q23 0 49.5 14.5t51 32t43.5 32t27 14.5q11 0 17.5 -12.5t6.5 -21.5q0 -11 -12 -24.5t-30.5 -27.5t-41 -26.5t-44.5 -22.5t-41 -16t-29 -6q-26 0 -49 14t-29 41q-38 -22 -82.5 -43.5t-89.5 -21.5q-35 0 -57.5 15.5t-35 40.5t-15.5 54.5t2 58.5q-8 -11 -30 -38.5t-47 -56.5
t-48.5 -51.5t-33.5 -22.5q-11 0 -16.5 8.5t-5.5 17.5zM479 121q6 17 17.5 40t22.5 46.5t19 46t8 39.5q0 26 -15 47t-43 21q-50 0 -95 -23.5t-78.5 -61t-53 -85t-19.5 -95.5q0 -62 61 -62q26 0 49.5 8t45 21t42 28t39.5 30zM461 619q0 13 8.5 41t22 57t29.5 51t30 22
t22.5 -10.5t8.5 -23.5q0 -12 -9 -40.5t-22.5 -57t-29.5 -50.5t-30 -22t-22 10t-8 23zM614 619q0 13 8.5 41t22 57t29.5 51t30 22t22.5 -10.5t8.5 -23.5q0 -12 -9 -40.5t-22.5 -57t-29.5 -50.5t-30 -22t-22 10t-8 23z" />
    <glyph glyph-name="aring" unicode="&#xe5;" horiz-adv-x="501" 
d="M-1 -7q0 7 17.5 31.5t44.5 57.5t59.5 70.5t62.5 71.5t54 60.5t33 37.5q18 22 43 41t53.5 33t58.5 22t59 8q31 0 57.5 -16t44.5 -39q6 16 16 33.5t30 17.5q14 0 22 -11.5t8 -24.5q0 -14 -10 -39t-25.5 -56t-33.5 -65.5t-33.5 -66.5t-25.5 -59t-10 -43q0 -6 4 -11t11 -5
q23 0 49.5 14.5t51 32t43.5 32t27 14.5q11 0 17.5 -12.5t6.5 -21.5q0 -11 -12 -24.5t-30.5 -27.5t-41 -26.5t-44.5 -22.5t-41 -16t-29 -6q-26 0 -49 14t-29 41q-38 -22 -82.5 -43.5t-89.5 -21.5q-35 0 -57.5 15.5t-35 40.5t-15.5 54.5t2 58.5q-8 -11 -30 -38.5t-47 -56.5
t-48.5 -51.5t-33.5 -22.5q-11 0 -16.5 8.5t-5.5 17.5zM477 121q6 17 17.5 40t22.5 46.5t19 46t8 39.5q0 26 -15 47t-43 21q-50 0 -95 -23.5t-78.5 -61t-53 -85t-19.5 -95.5q0 -62 61 -62q26 0 49.5 8t45 21t42 28t39.5 30zM467 631q0 28 9 58t26 55t41.5 41.5t56.5 16.5
q22 0 37.5 -10.5t26 -26.5t15.5 -35.5t5 -38.5q0 -24 -10.5 -51.5t-28.5 -51t-41.5 -38.5t-50.5 -15q-19 0 -34.5 8.5t-27 22t-18 30.5t-6.5 35zM521 636q0 -14 5.5 -30.5t22.5 -16.5q16 0 30.5 11t26 27.5t18 35t6.5 32.5q0 15 -6.5 32.5t-25.5 17.5q-15 0 -27.5 -8
t-21.5 -20.5t-15.5 -27.5t-10.5 -28q-1 -6 -1.5 -12t-0.5 -13z" />
    <glyph glyph-name="ae" unicode="&#xe6;" horiz-adv-x="460" 
d="M268 355q-30 0 -53.5 -11.5t-41.5 -25t-30.5 -24.5t-19.5 -11q-11 0 -18.5 8.5t-7.5 19.5q0 20 20.5 40t48.5 35.5t57.5 25t46.5 9.5q33 0 53 -20t26 -51q26 33 62.5 52t78.5 19q17 0 34.5 -5t31.5 -14.5t23 -24.5t9 -34q0 -35 -29.5 -63t-70.5 -49.5t-84 -36t-70 -22.5
q-7 -18 -9 -36.5t-2 -37.5q0 -12 1.5 -23t6 -20t13 -14.5t22.5 -5.5q30 0 61 16t58 34.5t49 34.5t35 16q7 0 10 -4.5t4 -10.5t0.5 -12.5t-0.5 -10.5q0 -13 -13 -27.5t-34 -28.5t-46.5 -27.5t-50 -23.5t-45 -16t-32.5 -6q-36 0 -61 20.5t-37 53.5q-31 -35 -72 -58t-89 -23
q-18 0 -36.5 5t-33.5 14.5t-24 25t-9 36.5q0 39 32.5 69.5t77.5 53t92.5 37t77.5 22.5q6 19 8.5 38t2.5 39q0 6 -0.5 15t-3 17.5t-7 14.5t-12.5 6zM256 149q-16 -3 -47 -12.5t-62 -23.5t-54 -31.5t-23 -36.5q0 -15 12 -17.5t23 -2.5q27 0 50 11t42 29t33.5 40t25.5 44z
M358 247q12 4 39.5 12.5t55 20.5t49 26.5t21.5 28.5q0 12 -11 19t-22 7q-18 0 -38.5 -12t-39.5 -29t-33.5 -37t-20.5 -36z" />
    <glyph glyph-name="ccedilla" unicode="&#xe7;" horiz-adv-x="310" 
d="M3 -8q0 6 15.5 28t39.5 52t53 64t56 65t48 55t29 34q21 25 47.5 50t57 44t63.5 31t68 12q11 0 27 -2.5t30.5 -8.5t25 -16t10.5 -24t-10.5 -22t-23.5 -8l-11 1q-8 5 -16.5 9.5t-18.5 4.5q-46 0 -86 -22t-72 -53v-2q-37 -35 -59.5 -84t-22.5 -100q0 -31 15 -43.5t45 -12.5
q36 0 71.5 15t64.5 32.5t51 32.5t31 15q12 0 18.5 -10.5t6.5 -21.5q0 -20 -28 -41t-65 -38.5t-74 -30t-54 -15.5q-8 -18 -11 -35h9q26 0 47 -14t21 -43q0 -23 -10 -40t-26.5 -28t-37 -16t-40.5 -5q-12 0 -22.5 6t-10.5 20q0 18 14.5 23.5t32 8t32 7t14.5 19.5q0 4 -6 7t-9 3
q-14 0 -25.5 -9.5t-25.5 -9.5q-11 0 -18 8.5t-7 18.5q0 5 2.5 15.5t6 22.5t7 23t5.5 17q-29 4 -47.5 17.5t-28.5 33t-13 44t0 50.5q-9 -11 -30.5 -38t-46 -54.5t-47 -49t-34.5 -21.5q-13 0 -20 8.5t-7 20.5z" />
    <glyph glyph-name="egrave" unicode="&#xe8;" horiz-adv-x="331" 
d="M445 361q-41 0 -78.5 -17t-67.5 -45t-52 -64t-32 -74q12 7 35.5 20t51.5 29t57 34t53 36t39 35.5t15 31.5q0 9 -7 11.5t-14 2.5zM380 516q-9 0 -26 10.5t-37.5 26.5t-42 36t-39 39t-29 35t-11.5 25q0 11 7 19t19 8q8 0 25 -10.5t37.5 -27t42 -36.5t39 -39.5t29 -35.5
t11.5 -24q0 -11 -7 -18.5t-18 -7.5zM144 46q-9 -5 -25 -15.5t-34 -21t-34.5 -18.5t-24.5 -8q-5 0 -9 5t-6.5 11.5t-3.5 13t-1 10.5q0 9 17 22.5t39 27.5t43.5 26t30.5 18q10 54 35.5 109t64 99.5t89.5 72.5t111 28q18 0 35 -4.5t30.5 -14.5t22 -24.5t8.5 -34.5
q0 -28 -18 -55.5t-47.5 -53t-66 -48.5t-72.5 -43.5t-69 -37t-54 -28.5q14 -23 31.5 -30t43.5 -7q42 0 74 9.5t60.5 23t57 29t63.5 27.5q11 -3 17 -13.5t6 -21.5q0 -19 -18 -35.5t-45.5 -30t-62 -24t-67.5 -18t-61 -11t-43 -3.5q-38 0 -70 16.5t-47 52.5z" />
    <glyph glyph-name="eacute" unicode="&#xe9;" horiz-adv-x="304" 
d="M118 46q-8 -5 -20 -13.5t-25.5 -17.5t-26 -15.5t-20.5 -6.5q-12 0 -16.5 13.5t-4.5 22.5q0 12 13 25t30 25t35 22t27 16q10 54 35.5 109t64 99.5t89.5 72.5t111 28q18 0 35 -4.5t30.5 -14.5t22 -24.5t8.5 -34.5q0 -28 -18 -55.5t-47.5 -53t-66 -48.5t-72.5 -43.5t-69 -37
t-54 -28.5q14 -23 31.5 -30t43.5 -7q43 0 75 9.5t60 23t56.5 29t63.5 27.5q11 -3 17 -13.5t6 -21.5q0 -19 -18 -35.5t-45.5 -30t-62 -24t-67.5 -18t-61 -11t-43 -3.5q-38 0 -70 16.5t-47 52.5zM418 361q-41 0 -78.5 -17t-67.5 -45t-52 -64t-32 -74q12 7 35.5 20t51.5 29
t57 34t53 36t39 35.5t15 31.5q0 9 -7 11.5t-14 2.5zM344 607q0 9 11.5 25t29 35.5t39.5 39t42.5 36t38 26.5t26.5 10q11 0 17.5 -8.5t6.5 -18.5q0 -13 -24.5 -41t-56.5 -57t-62.5 -51t-43.5 -22q-11 0 -17.5 7.5t-6.5 18.5z" />
    <glyph glyph-name="ecircumflex" unicode="&#xea;" horiz-adv-x="335" 
d="M149 46q-9 -5 -25.5 -14t-34.5 -18t-34.5 -15.5t-25.5 -6.5q-6 0 -10.5 4t-7.5 10t-4.5 12.5t-1.5 10.5q0 6 18.5 19t42 27t45.5 26t30 16q10 54 35.5 109t64 99.5t89.5 72.5t111 28q18 0 35 -4.5t30.5 -14.5t22 -24.5t8.5 -34.5q0 -28 -18.5 -55.5t-47.5 -53
t-65.5 -48.5t-72.5 -43.5t-69 -37t-54 -28.5q14 -23 31.5 -30t43.5 -7q43 0 75 9.5t60 23t56.5 29t63.5 27.5q11 -3 17 -13.5t6 -21.5q0 -19 -18 -35.5t-45.5 -30t-62 -24t-67.5 -18t-61 -11t-43 -3.5q-38 0 -70 16.5t-47 52.5zM449 361q-41 0 -78.5 -17t-67.5 -45t-52 -64
t-32 -74q12 7 35.5 20t51.5 29t57 34t53 36t39 35.5t15 31.5q0 9 -7 11.5t-14 2.5zM326 602q0 9 11 25.5t29 35.5t39.5 39t42.5 36t38.5 26t27.5 10q13 0 31.5 -22.5t35 -52.5t28.5 -59t12 -41q0 -9 -8 -14.5t-16 -5.5q-11 0 -26 14t-29.5 33t-26.5 38t-17 28
q-11 -11 -30 -30.5t-40.5 -38t-43 -32t-36.5 -13.5q-9 0 -15.5 7.5t-6.5 16.5z" />
    <glyph glyph-name="edieresis" unicode="&#xeb;" horiz-adv-x="337" 
d="M151 46q-9 -5 -25.5 -15.5t-35.5 -21t-35.5 -18.5t-25.5 -8q-11 0 -16.5 13.5t-5.5 21.5q0 11 17.5 25.5t41 28.5t46 26.5t31.5 18.5q10 54 35.5 109t64 99.5t89.5 72.5t111 28q18 0 35 -4.5t30.5 -14.5t22 -24.5t8.5 -34.5q0 -28 -18 -55.5t-47.5 -53t-66 -48.5
t-72.5 -43.5t-69 -37t-54 -28.5q14 -23 31.5 -30t43.5 -7q43 0 75 9.5t60 23t56.5 29t63.5 27.5q11 -3 17 -13.5t6 -21.5q0 -19 -18 -35.5t-45.5 -30t-62 -24t-67.5 -18t-61 -11t-43 -3.5q-38 0 -70 16.5t-47 52.5zM451 361q-41 0 -78.5 -17t-67.5 -45t-52 -64t-32 -74
q12 7 35.5 20t51.5 29t57 34t53 36t39 35.5t15 31.5q0 9 -7 11.5t-14 2.5zM489 637q0 13 8.5 41t22 57t29.5 51t30 22t22.5 -10.5t8.5 -23.5q0 -12 -9 -40.5t-22.5 -57t-29.5 -50.5t-30 -22t-22 10t-8 23zM356 637q0 13 8.5 41t22 57t29.5 51t30 22t22.5 -10.5t8.5 -23.5
q0 -12 -9 -40.5t-22.5 -57t-29.5 -50.5t-30 -22t-22 10t-8 23z" />
    <glyph glyph-name="igrave" unicode="&#xec;" horiz-adv-x="289" 
d="M8 -1q13 16 44 53.5t70 84t82.5 97t83 92t70 68.5t44.5 27q13 0 22.5 -9.5t9.5 -22.5q0 -26 -14.5 -64t-32 -82t-32 -91.5t-14.5 -90.5q0 -3 1 -6.5t2 -6.5q23 0 50 15.5t51 34t43 34t27 15.5q13 0 21 -8t8 -21q0 -10 -12.5 -24.5t-31.5 -30t-43 -30.5t-46.5 -27
t-41.5 -19.5t-29 -7.5q-19 0 -31 6.5t-19 18t-10 26t-3 30.5q0 56 17 108.5t34 105.5q-10 -12 -33 -40t-53 -63t-62.5 -72.5t-62.5 -69t-53 -51.5t-33 -20q-12 0 -18.5 9t-6.5 20q0 4 2 12zM482 613q-9 0 -26 10.5t-37.5 26.5t-42 36t-39 39t-29 35t-11.5 25q0 11 7 19t19 8
q8 0 25 -10.5t37.5 -27t42 -36.5t39 -39.5t29 -35.5t11.5 -24q0 -11 -7 -18.5t-18 -7.5z" />
    <glyph glyph-name="iacute" unicode="&#xed;" horiz-adv-x="364" 
d="M1 8q0 5 14 25.5t37.5 50t54 66.5t63 74.5t65 73t59.5 63t47 44t27 16.5q13 0 22.5 -9.5t9.5 -22.5q0 -26 -14.5 -64t-32 -82t-32 -91.5t-14.5 -90.5q0 -3 1 -6.5t2 -6.5q23 0 50 15.5t51 34t43 34t27 15.5q13 0 21 -8t8 -21q0 -10 -12.5 -24.5t-31.5 -30t-43 -30.5
t-46.5 -27t-41.5 -19.5t-29 -7.5q-19 0 -31 6.5t-19 18t-10 26t-3 30.5q0 55 17 107t33 104q-9 -11 -30 -36.5t-47.5 -58t-56 -67.5t-56 -64t-47.5 -47.5t-30 -18.5q-12 0 -18.5 9t-6.5 20zM418 640q0 9 11.5 25t29 35.5t39.5 39t42.5 36t38 26.5t26.5 10q11 0 17.5 -8.5
t6.5 -18.5q0 -13 -24.5 -41t-56.5 -57t-62.5 -51t-43.5 -22q-11 0 -17.5 7.5t-6.5 18.5z" />
    <glyph glyph-name="icircumflex" unicode="&#xee;" horiz-adv-x="281" 
d="M0 -1q13 16 44 53.5t70 84t82.5 97t83 92t70 68.5t44.5 27q13 0 22.5 -9.5t9.5 -22.5q0 -26 -14.5 -64t-32 -82t-32 -91.5t-14.5 -90.5q0 -3 1 -6.5t2 -6.5q23 0 50 15.5t51 34t43 34t27 15.5q13 0 21 -8t8 -21q0 -10 -12.5 -24.5t-31.5 -30t-43 -30.5t-46.5 -27
t-41.5 -19.5t-29 -7.5q-19 0 -31 6.5t-19 18t-10 26t-3 30.5q0 56 17 108.5t34 105.5q-10 -12 -33 -40t-53 -63t-62.5 -72.5t-62.5 -69t-53 -51.5t-33 -20q-12 0 -18.5 9t-6.5 20q0 4 2 12zM358 646q0 9 11 25.5t29 35.5t39.5 39t42.5 36t38.5 26t27.5 10q13 0 31.5 -22.5
t35 -52.5t28.5 -59t12 -41q0 -9 -8 -14.5t-16 -5.5q-11 0 -26 14t-29.5 33t-26.5 38t-17 28q-11 -11 -30 -30.5t-40.5 -38t-43 -32t-36.5 -13.5q-9 0 -15.5 7.5t-6.5 16.5z" />
    <glyph glyph-name="idieresis" unicode="&#xef;" horiz-adv-x="449" 
d="M677 650q0 13 8.5 41t22 57t29.5 51t30 22t22.5 -10.5t8.5 -23.5q0 -12 -9 -40.5t-22.5 -57t-29.5 -50.5t-30 -22t-22 10t-8 23zM555 650q0 13 8.5 41t22 57t29.5 51t30 22t22.5 -10.5t8.5 -23.5q0 -12 -9 -40.5t-22.5 -57t-29.5 -50.5t-30 -22t-22 10t-8 23zM192 0
q0 7 22 37t55.5 71t73.5 88.5t77.5 90t66.5 75t40 43.5q8 8 13.5 12t17.5 4q13 0 22.5 -9.5t9.5 -22.5q0 -26 -14.5 -64t-32 -82t-32 -91.5t-14.5 -90.5q0 -3 1 -6.5t2 -6.5q23 0 50 15.5t51 34t43 34t27 15.5q13 0 21 -8t8 -21q0 -10 -12.5 -24.5t-31.5 -30t-43 -30.5
t-46.5 -27t-41.5 -19.5t-29 -7.5q-19 0 -31 6.5t-19 18t-10 26t-3 30.5q0 54 16 103.5t32 99.5q-9 -11 -29.5 -36.5t-47 -58t-55.5 -67.5t-55.5 -64t-47 -47.5t-29.5 -18.5q-12 0 -18.5 9t-6.5 20z" />
    <glyph glyph-name="eth" unicode="&#xf0;" horiz-adv-x="664" 
d="M1 -9q0 6 18 31t46 59.5t61.5 74t64.5 75t55.5 63.5t33.5 38q31 35 63 60t80 32l-77 88q-8 -6 -23.5 -18.5t-33 -25t-34 -22t-25.5 -9.5q-10 0 -16 8t-6 17t12 24t28.5 30.5t32 29.5t23.5 21q-14 19 -30.5 43.5t-30.5 51t-23.5 53.5t-9.5 51q0 20 9.5 36t24.5 27.5
t34 17.5t37 6q27 0 50.5 -14.5t43.5 -35.5t36 -46t27 -46q6 4 16.5 11.5t22 14.5t22 12.5t17.5 5.5q11 0 16.5 -8t5.5 -18q0 -5 -2 -13q-17 -17 -34 -33.5t-35 -33.5q38 -89 61 -181q5 -20 8 -41t11 -41q6 -15 17.5 -28.5t26 -24t31 -17t32.5 -6.5q14 0 26 3.5t26 3.5
q13 0 23 -8.5t10 -22.5t-10 -22t-24 -12.5t-29 -6t-25 -1.5q-26 0 -50 8t-44 25q-3 -57 -17.5 -111.5t-44 -96.5t-75 -67.5t-111.5 -25.5q-39 0 -66.5 12t-45 34t-25 52.5t-7.5 66.5q-7 -8 -20 -24.5t-29 -36.5t-34 -41t-35 -38t-31.5 -28t-23.5 -11q-12 0 -18.5 9t-6.5 20z
M351 39q54 0 87.5 25t52.5 63.5t25.5 85t6.5 89.5v14q-9 18 -26 30.5t-38 12.5q-45 0 -80.5 -22t-60 -56.5t-37.5 -77t-13 -82.5q0 -17 7 -31.5t18 -26t26 -18t32 -6.5zM278 767q0 -14 8.5 -36t20.5 -44.5t24.5 -43t21.5 -32.5l66 58q-7 13 -19 34t-27.5 41t-32.5 34t-34 14
q-11 0 -19.5 -7t-8.5 -18zM504 435q-9 44 -22.5 85.5t-30.5 82.5q-26 -26 -54 -48q25 -32 52.5 -61.5t54.5 -58.5z" />
    <glyph glyph-name="ntilde" unicode="&#xf1;" horiz-adv-x="584" 
d="M365 356q-21 0 -36.5 -11.5t-28.5 -26t-25 -26t-25 -11.5q-14 0 -23 9t-9 23q0 16 17.5 35.5t41.5 36t49 28t40 11.5q38 0 57.5 -26t17.5 -61q14 16 31 31t36 27t39.5 19t43.5 7q48 0 72 -30.5t24 -75.5q0 -34 -8.5 -67t-19 -65t-19 -64.5t-8.5 -65.5l7 -12q20 0 45.5 17
t50.5 37t47.5 36.5t37.5 16.5q8 0 12.5 -12t4.5 -18q0 -9 -12 -22.5t-31 -29.5t-42 -32t-45 -29t-40 -21t-27 -8q-44 0 -56.5 20.5t-12.5 60.5q0 34 8 66t17 64.5t17 64.5t8 66q0 14 -5 25.5t-22 11.5q-40 0 -73 -28t-60 -70t-48.5 -91t-40 -91t-34.5 -70t-31 -28
t-23.5 11.5t-8.5 25.5q0 12 7.5 34t18.5 50.5t24 61t24 64t18.5 61t7.5 51.5q0 5 -1 12.5t-9 7.5zM509 592q-12 -8 -21.5 -22.5t-19 -28.5t-20 -25t-23.5 -11q-12 0 -21 9t-9 21q0 17 12 38.5t30 40.5t39 32t39 13q24 0 42 -13.5t34.5 -30t33 -31.5t35.5 -19q10 3 19 18.5
t18 32.5t19 30.5t24 13.5t23 -9.5t9 -23.5q0 -17 -11 -39.5t-28 -42.5t-37 -34t-38 -14q-22 0 -41 15t-36.5 32.5t-35 32.5t-36.5 15z" />
    <glyph glyph-name="ograve" unicode="&#xf2;" horiz-adv-x="678" 
d="M523 594q-9 0 -26 10.5t-37.5 26.5t-42 36t-39 39t-29 35.5t-11.5 24.5q0 11 7 19t19 8q8 0 25 -10.5t37.5 -27t42 -36.5t39 -39.5t29 -35.5t11.5 -24q0 -11 -7 -18.5t-18 -7.5zM3 -1q29 28 63 70.5t71.5 90t78 95t81 85.5t81.5 62t79 24q19 0 37 -4t35 -13q10 13 25 13
q8 0 14.5 -4t11.5 -9q6 -18 17 -35.5t26.5 -32t34.5 -23t39 -8.5q14 0 26 3.5t26 3.5q13 0 23 -8.5t10 -22.5t-10 -22t-24 -12.5t-29 -6t-25 -1.5q-26 0 -50 8t-44 25q-3 -57 -17.5 -111.5t-44 -96.5t-75 -67.5t-111.5 -25.5q-38 0 -65.5 12t-45 33.5t-25.5 51t-8 65.5
q-7 -8 -20.5 -24.5t-31 -36.5t-37 -41t-37.5 -38.5t-33 -28.5t-23 -11q-12 0 -18.5 9t-6.5 20q0 4 2 12zM360 39q54 0 87.5 25t52.5 63.5t25.5 85t6.5 89.5v14q-18 43 -64 43q-42 0 -77.5 -21t-60.5 -54t-39 -73t-14 -79q0 -37 21.5 -65t61.5 -28z" />
    <glyph glyph-name="oacute" unicode="&#xf3;" horiz-adv-x="678" 
d="M503 628q0 9 11.5 25t29 35.5t39.5 39t42.5 36t38 26.5t26.5 10q11 0 17.5 -8.5t6.5 -18.5q0 -13 -24.5 -41t-56.5 -57t-62.5 -51t-43.5 -22q-11 0 -17.5 7.5t-6.5 18.5zM3 -1q29 28 63 70.5t71.5 90t78 95t81 85.5t81.5 62t79 24q19 0 37 -4t35 -13q10 13 25 13
q8 0 14.5 -4t11.5 -9q6 -18 17 -35.5t26.5 -32t34.5 -23t39 -8.5q14 0 26 3.5t26 3.5q13 0 23 -8.5t10 -22.5t-10 -22t-24 -12.5t-29 -6t-25 -1.5q-26 0 -50 8t-44 25q-3 -57 -17.5 -111.5t-44 -96.5t-75 -67.5t-111.5 -25.5q-38 0 -65.5 12t-45 33.5t-25.5 51t-8 65.5
q-7 -8 -20.5 -24.5t-31 -36.5t-37 -41t-37.5 -38.5t-33 -28.5t-23 -11q-12 0 -18.5 9t-6.5 20q0 4 2 12zM360 39q54 0 87.5 25t52.5 63.5t25.5 85t6.5 89.5v14q-18 43 -64 43q-42 0 -77.5 -21t-60.5 -54t-39 -73t-14 -79q0 -37 21.5 -65t61.5 -28z" />
    <glyph glyph-name="ocircumflex" unicode="&#xf4;" horiz-adv-x="678" 
d="M359 39q54 0 87.5 25t52.5 63.5t25.5 85t6.5 89.5v14q-18 43 -64 43q-45 0 -80.5 -22t-60 -56.5t-37.5 -77t-13 -82.5q0 -17 7 -31.5t18 -26t26 -18t32 -6.5zM394 632q0 9 11 25.5t29 35.5t39.5 39t42.5 36t38.5 26t27.5 10q13 0 31.5 -22.5t35 -52.5t28.5 -59t12 -41
q0 -9 -8 -14.5t-16 -5.5q-11 0 -26 14t-29.5 33t-26.5 38t-17 28q-11 -11 -30 -30.5t-40.5 -38t-43 -32t-36.5 -13.5q-9 0 -15.5 7.5t-6.5 16.5zM3 -1q29 28 63 70.5t71.5 90t78 95t81 85.5t81.5 62t79 24q19 0 37 -4t35 -13q10 13 25 13q8 0 14.5 -4t11.5 -9
q6 -18 17 -35.5t26.5 -32t34.5 -23t39 -8.5q14 0 26 3.5t26 3.5q13 0 23 -8.5t10 -22.5t-10 -22t-24 -12.5t-29 -6t-25 -1.5q-26 0 -50 8t-44 25q-3 -57 -17.5 -111.5t-44 -96.5t-75 -67.5t-111.5 -25.5q-38 0 -65.5 12t-45 33.5t-25.5 51t-8 65.5q-7 -8 -20.5 -24.5
t-31 -36.5t-37 -41t-37.5 -38.5t-33 -28.5t-23 -11q-12 0 -18.5 9t-6.5 20q0 4 2 12z" />
    <glyph glyph-name="otilde" unicode="&#xf5;" horiz-adv-x="678" 
d="M459 692q-12 -8 -21.5 -22.5t-19 -28.5t-20 -25t-23.5 -11q-12 0 -21 9t-9 21q0 17 12 38.5t30 40.5t39 32t39 13q24 0 42 -13.5t34.5 -30t33 -31.5t35.5 -19q10 3 19 18.5t18 32.5t19 30.5t24 13.5t23 -9.5t9 -23.5q0 -17 -11 -39.5t-28 -42.5t-37 -34t-38 -14
q-22 0 -41 15t-36.5 32.5t-35 32.5t-36.5 15zM3 -1q29 28 63 70.5t71.5 90t78 95t81 85.5t81.5 62t79 24q19 0 37 -4t35 -13q10 13 25 13q8 0 14.5 -4t11.5 -9q6 -18 17 -35.5t26.5 -32t34.5 -23t39 -8.5q14 0 26 3.5t26 3.5q13 0 23 -8.5t10 -22.5t-10 -22t-24 -12.5
t-29 -6t-25 -1.5q-26 0 -50 8t-44 25q-3 -57 -17.5 -111.5t-44 -96.5t-75 -67.5t-111.5 -25.5q-38 0 -65.5 12t-45 33.5t-25.5 51t-8 65.5q-7 -8 -20.5 -24.5t-31 -36.5t-37 -41t-37.5 -38.5t-33 -28.5t-23 -11q-12 0 -18.5 9t-6.5 20q0 4 2 12zM360 39q54 0 87.5 25
t52.5 63.5t25.5 85t6.5 89.5v14q-18 43 -64 43q-42 0 -77.5 -21t-60.5 -54t-39 -73t-14 -79q0 -37 21.5 -65t61.5 -28z" />
    <glyph glyph-name="odieresis" unicode="&#xf6;" horiz-adv-x="688" 
d="M583 638q0 13 8.5 41t22 57t29.5 51t30 22t22.5 -10.5t8.5 -23.5q0 -12 -9 -40.5t-22.5 -57t-29.5 -50.5t-30 -22t-22 10t-8 23zM445 643q0 13 8.5 41t22 57t29.5 51t30 22t22.5 -10.5t8.5 -23.5q0 -12 -9 -40.5t-22.5 -57t-29.5 -50.5t-30 -22t-22 10t-8 23zM3 -1
q29 28 63 70.5t71.5 90t78 95t81 85.5t81.5 62t79 24q19 0 37 -4t35 -13q10 13 25 13q8 0 14.5 -4t11.5 -9q6 -18 17 -35.5t26.5 -32t34.5 -23t39 -8.5q14 0 26 3.5t26 3.5q13 0 23 -8.5t10 -22.5t-10 -22t-24 -12.5t-29 -6t-25 -1.5q-26 0 -50 8t-44 25
q-3 -57 -17.5 -111.5t-44 -96.5t-75 -67.5t-111.5 -25.5q-38 0 -65.5 12t-45 33.5t-25.5 51t-8 65.5q-7 -8 -20.5 -24.5t-31 -36.5t-37 -41t-37.5 -38.5t-33 -28.5t-23 -11q-12 0 -18.5 9t-6.5 20q0 4 2 12zM360 39q54 0 87.5 25t52.5 63.5t25.5 85t6.5 89.5v14
q-18 43 -64 43q-42 0 -77.5 -21t-60.5 -54t-39 -73t-14 -79q0 -37 21.5 -65t61.5 -28z" />
    <glyph glyph-name="divide" unicode="&#xf7;" horiz-adv-x="226" 
d="M199 427q0 11 4 23t11 22.5t17.5 17.5t22.5 7q17 0 25.5 -15t8.5 -30q0 -11 -3.5 -23.5t-10.5 -23.5t-17 -18t-23 -7q-18 0 -26.5 15.5t-8.5 31.5zM154 185q0 10 4 22.5t11 23t17 17.5t22 7q17 0 25.5 -15t8.5 -30q0 -11 -3.5 -23.5t-10.5 -23t-17 -18t-22 -7.5
q-19 0 -27 15.5t-8 31.5z" />
    <glyph glyph-name="oslash" unicode="&#xf8;" horiz-adv-x="647" 
d="M3 30l260 302q35 40 73.5 67t94.5 27q17 0 33 -3t31 -11q5 7 11 19t13.5 23t16.5 19t20 8q13 0 22 -9t9 -22t-10 -30.5t-16 -28.5q14 -31 44 -56t66 -25q14 0 26 3.5t26 3.5q13 0 23 -8.5t10 -22.5t-10 -22t-24 -12.5t-29 -6t-25 -1.5q-26 0 -50 8t-44 25
q-3 -57 -17.5 -111.5t-44 -96.5t-75 -67.5t-111.5 -25.5q-38 0 -69 14q-5 -8 -9.5 -18.5t-10.5 -19.5t-14 -15.5t-19 -6.5q-14 0 -22.5 10.5t-8.5 23.5q0 15 13 35t21 33q-17 24 -21 51t-4 56q-9 -11 -30.5 -35.5t-45.5 -50t-46.5 -45t-34.5 -19.5q-11 0 -17.5 9t-6.5 20
q0 4 2 12zM334 39q55 0 89 26.5t52.5 66.5t24.5 88t6 92q-50 -68 -104 -131.5t-104 -132.5q16 -9 36 -9zM254 99q50 66 103 128.5t101 130.5l-16 1q-45 0 -80.5 -22.5t-60 -57.5t-37.5 -77.5t-13 -82.5q0 -5 0.5 -10t2.5 -10z" />
    <glyph glyph-name="ugrave" unicode="&#xf9;" horiz-adv-x="669" 
d="M619 598q-9 0 -26 10.5t-37.5 26.5t-42 36t-39 39t-29 35t-11.5 25q0 11 7 19t19 8q8 0 25 -10.5t37.5 -27t42 -36.5t39 -39.5t29 -35.5t11.5 -24q0 -11 -7 -18.5t-18 -7.5zM22 13q11 14 41 49.5t68.5 81t82 94.5t81.5 90t66.5 67.5t37.5 26.5q14 0 22 -11t8 -23
q0 -16 -12.5 -47t-28 -69t-28 -80t-12.5 -79q0 -8 0.5 -20t3 -23t8.5 -19t18 -8q42 0 75.5 28t61 70t49 91t40 91t34 70t30.5 28q14 0 23 -9.5t9 -23.5q0 -37 -15.5 -77.5t-34.5 -83.5t-34.5 -87.5t-15.5 -89.5q2 -1 4.5 -2t4.5 -1q25 0 49 13.5t46 30t40.5 30t31.5 13.5
q11 0 13 -8t2 -16q0 -22 -21 -45t-50.5 -41.5t-60.5 -30.5t-51 -12q-38 0 -55.5 23.5t-18.5 58.5q-14 -15 -30 -30t-34 -27t-38 -19.5t-42 -7.5q-59 0 -83 32t-24 87q0 42 10.5 82.5t24.5 79.5q-10 -11 -31 -37t-47.5 -58t-56.5 -66t-57.5 -62.5t-49 -46.5t-31.5 -18
q-12 0 -18.5 9t-6.5 20q0 4 2 12z" />
    <glyph glyph-name="uacute" unicode="&#xfa;" horiz-adv-x="677" 
d="M585 608q0 9 11.5 25t29 35.5t39.5 39t42.5 36t38 26.5t26.5 10q11 0 17.5 -8.5t6.5 -18.5q0 -13 -24.5 -41t-56.5 -57t-62.5 -51t-43.5 -22q-11 0 -17.5 7.5t-6.5 18.5zM28 13q11 14 41 49.5t68.5 81t82 94.5t81.5 90t66.5 67.5t37.5 26.5q14 0 22 -11t8 -23
q0 -16 -12.5 -47t-28 -69t-28 -80t-12.5 -79q0 -8 0.5 -20t3 -23t8.5 -19t18 -8q42 0 75.5 28t61 70t49 91t40 91t34 70t30.5 28q14 0 23 -9.5t9 -23.5q0 -37 -15.5 -77.5t-34.5 -83.5t-34.5 -87.5t-15.5 -89.5q2 -1 4.5 -2t4.5 -1q25 0 49 13.5t46 30t40.5 30t31.5 13.5
q11 0 13 -8t2 -16q0 -22 -21 -45t-50.5 -41.5t-60.5 -30.5t-51 -12q-38 0 -55.5 23.5t-18.5 58.5q-14 -15 -30 -30t-34 -27t-38 -19.5t-42 -7.5q-59 0 -83 32t-24 87q0 42 10.5 82.5t24.5 79.5q-10 -11 -31 -37t-47.5 -58t-56.5 -66t-57.5 -62.5t-49 -46.5t-31.5 -18
q-12 0 -18.5 9t-6.5 20q0 4 2 12z" />
    <glyph glyph-name="ucircumflex" unicode="&#xfb;" horiz-adv-x="562" 
d="M472 642q0 9 11 25.5t29 35.5t39.5 39t42.5 36t38.5 26t27.5 10q13 0 31.5 -22.5t35 -52.5t28.5 -59t12 -41q0 -9 -8 -14.5t-16 -5.5q-11 0 -26 14t-29.5 33t-26.5 38t-17 28q-11 -11 -30 -30.5t-40.5 -38t-43 -32t-36.5 -13.5q-9 0 -15.5 7.5t-6.5 16.5zM22 13
q11 14 41 49.5t68.5 81t82 94.5t81.5 90t66.5 67.5t37.5 26.5q14 0 22 -11t8 -23q0 -16 -12.5 -47t-28 -69t-28 -80t-12.5 -79q0 -8 0.5 -20t3 -23t8.5 -19t18 -8q42 0 75.5 28t61 70t49 91t40 91t34 70t30.5 28q14 0 23 -9.5t9 -23.5q0 -37 -15.5 -77.5t-34.5 -83.5
t-34.5 -87.5t-15.5 -89.5q2 -1 4.5 -2t4.5 -1q25 0 49 13.5t46 30t40.5 30t31.5 13.5q11 0 13 -8t2 -16q0 -22 -21 -45t-50.5 -41.5t-60.5 -30.5t-51 -12q-38 0 -55.5 23.5t-18.5 58.5q-14 -15 -30 -30t-34 -27t-38 -19.5t-42 -7.5q-59 0 -83 32t-24 87q0 42 10.5 82.5
t24.5 79.5q-10 -11 -31 -37t-47.5 -58t-56.5 -66t-57.5 -62.5t-49 -46.5t-31.5 -18q-12 0 -18.5 9t-6.5 20q0 4 2 12z" />
    <glyph glyph-name="udieresis" unicode="&#xfc;" horiz-adv-x="657" 
d="M620 643q0 13 8.5 41t22 57t29.5 51t30 22t22.5 -10.5t8.5 -23.5q0 -12 -9 -40.5t-22.5 -57t-29.5 -50.5t-30 -22t-22 10t-8 23zM488 643q0 13 8.5 41t22 57t29.5 51t30 22t22.5 -10.5t8.5 -23.5q0 -12 -9 -40.5t-22.5 -57t-29.5 -50.5t-30 -22t-22 10t-8 23zM-6 13
q21 8 55.5 41t75.5 78.5t84 96.5t80 94t64 71t37 28q14 0 22 -11t8 -23q0 -16 -12.5 -47t-28 -69t-28 -80t-12.5 -79q0 -8 0.5 -20t3 -23t8.5 -19t18 -8q42 0 75.5 28t61 70t49 91t40 91t34 70t30.5 28q14 0 23 -9.5t9 -23.5q0 -37 -15.5 -77.5t-34.5 -83.5t-34.5 -87.5
t-15.5 -89.5q2 -1 4.5 -2t4.5 -1q25 0 49 13.5t46 30t40.5 30t31.5 13.5q11 0 13 -8t2 -16q0 -22 -21 -45t-50.5 -41.5t-60.5 -30.5t-51 -12q-38 0 -55.5 23.5t-18.5 58.5q-14 -15 -30 -30t-34 -27t-38 -19.5t-42 -7.5q-59 0 -83 32t-24 87q0 42 10.5 82.5t24.5 79.5
q-13 -16 -34.5 -43.5t-47.5 -59.5t-54.5 -65t-56.5 -59.5t-54 -43.5t-45 -17q-12 0 -18.5 9t-6.5 20q0 4 2 12z" />
    <glyph glyph-name="yacute" unicode="&#xfd;" horiz-adv-x="628" 
d="M545 612q0 9 11.5 25t29 35.5t39.5 39t42.5 36t38 26.5t26.5 10q11 0 17.5 -8.5t6.5 -18.5q0 -13 -24.5 -41t-56.5 -57t-62.5 -51t-43.5 -22q-11 0 -17.5 7.5t-6.5 18.5zM308 113q0 -10 0.5 -22t3.5 -22.5t10.5 -17.5t21.5 -7q44 0 77.5 28t59.5 70t46 91.5t37 91.5
t33 70t33 28q13 0 22.5 -9t9.5 -22q0 -11 -6 -36.5t-15.5 -59.5t-21 -72.5t-22.5 -74t-20.5 -65t-13.5 -44.5q38 21 74 43t71 48q14 0 25.5 -7.5t11.5 -22.5q0 -10 -13 -23.5t-33.5 -29t-45.5 -32t-48.5 -31t-42.5 -26t-28 -18.5l-15 -57.5t-21.5 -73t-28.5 -76.5t-37 -68.5
t-46 -49.5t-56 -19q-46 0 -67.5 20.5t-21.5 67.5q0 24 13 51t33.5 55t46.5 55.5t52.5 52t50.5 45t42 35.5l29 101q-14 -18 -31.5 -36t-37.5 -32.5t-42.5 -23.5t-46.5 -9q-59 0 -83 31t-24 87q0 22 2.5 43.5t6.5 43.5q-8 -10 -24.5 -29.5t-37.5 -44t-44 -50t-44.5 -46.5
t-39 -34.5t-27.5 -13.5q-11 0 -16.5 10t-5.5 19q0 4 2 12q61 72 123.5 142t121.5 144q7 9 19.5 30t27 43t28.5 39t24 17q14 0 23 -10t9 -23q0 -17 -13 -47.5t-28.5 -69t-28.5 -80t-13 -79.5zM309 -314q0 -9 2.5 -16.5t14.5 -7.5q23 0 42 25.5t34 60t26 68.5t18 52
q-14 -13 -37 -36t-45.5 -49t-38.5 -52t-16 -45z" />
    <glyph glyph-name="thorn" unicode="&#xfe;" horiz-adv-x="650" 
d="M311 246q-8 -10 -32 -32.5t-55.5 -50.5t-67 -58t-67.5 -54.5t-56 -40.5t-33 -16q-8 0 -10 6.5t-2 12.5q0 15 1 26t10 24q8 11 32.5 30t54 39.5t58 40.5t43.5 33q39 35 76 72.5t73 75.5q5 27 14 71t22.5 94t32.5 100.5t43 91.5t54 66.5t66 25.5q39 0 64 -25t25 -64
q0 -25 -13.5 -55.5t-35 -63.5t-48.5 -66t-55 -62.5t-54.5 -54t-45.5 -39.5l-18 -55q9 19 26 37.5t38.5 33t44.5 23.5t44 9q49 0 72 -29t23 -75q0 -33 -8 -65t-17.5 -64t-17.5 -64t-8 -65q0 -5 0.5 -9t1.5 -9q22 0 47.5 15.5t49.5 33.5l44 33t29 15q8 0 20 -4t12 -15
q0 -21 -25 -45.5t-59 -46t-68 -36t-53 -14.5q-18 0 -30 6.5t-19 17.5t-10 25.5t-3 30.5q0 34 7.5 66.5t17 65t17 65t7.5 66.5q0 16 -4 28l-10 6l-13 1q-39 0 -73.5 -31t-65.5 -81.5t-58.5 -115t-52 -131.5t-45.5 -131.5t-39.5 -115t-34.5 -81.5t-30 -31q-6 0 -13 3.5
t-12 8.5t-7.5 12t-0.5 13zM567 741q-16 0 -32 -18t-31.5 -46t-29.5 -62.5t-25.5 -67t-20 -59.5t-12.5 -41q18 21 47.5 54.5t57 71.5t48 75t20.5 64q0 11 -4.5 20t-17.5 9z" />
    <glyph glyph-name="ydieresis" unicode="&#xff;" horiz-adv-x="509" 
d="M596 624q0 13 8.5 41t22 57t29.5 51t30 22t22.5 -10.5t8.5 -23.5q0 -12 -9 -40.5t-22.5 -57t-29.5 -50.5t-30 -22t-22 10t-8 23zM459 624q0 13 8.5 41t22 57t29.5 51t30 22t22.5 -10.5t8.5 -23.5q0 -12 -9 -40.5t-22.5 -57t-29.5 -50.5t-30 -22t-22 10t-8 23zM308 113
q0 -10 0.5 -22t3.5 -22.5t10.5 -17.5t21.5 -7q44 0 77.5 28t59.5 70t46 91.5t37 91.5t33 70t33 28q13 0 22.5 -9t9.5 -22q0 -11 -6 -36.5t-15.5 -59.5t-21 -72.5t-22.5 -74t-20.5 -65t-13.5 -44.5q38 21 74 43t71 48q14 0 25.5 -7.5t11.5 -22.5q0 -10 -13 -23.5t-33.5 -29
t-45.5 -32t-48.5 -31t-42.5 -26t-28 -18.5l-15 -57.5t-21.5 -73t-28.5 -76.5t-37 -68.5t-46 -49.5t-56 -19q-46 0 -67.5 20.5t-21.5 67.5q0 24 13 51t33.5 55t46.5 55.5t52.5 52t50.5 45t42 35.5l29 101q-14 -18 -31.5 -36t-37.5 -32.5t-42.5 -23.5t-46.5 -9q-59 0 -83 31
t-24 87q0 22 2.5 43.5t6.5 43.5q-8 -10 -24.5 -29.5t-37.5 -44t-44 -50t-44.5 -46.5t-39 -34.5t-27.5 -13.5q-11 0 -16.5 10t-5.5 19q0 4 2 12q61 72 123.5 142t121.5 144q7 9 19.5 30t27 43t28.5 39t24 17q14 0 23 -10t9 -23q0 -17 -13 -47.5t-28.5 -69t-28.5 -80
t-13 -79.5zM309 -314q0 -9 2.5 -16.5t14.5 -7.5q23 0 42 25.5t34 60t26 68.5t18 52q-14 -13 -37 -36t-45.5 -49t-38.5 -52t-16 -45z" />
    <glyph glyph-name="Amacron" unicode="&#x100;" horiz-adv-x="735" 
d="M147 -24q-22 0 -47.5 10.5t-47.5 27.5t-37 39t-15 46q0 13 8.5 23t22.5 10t24 -14.5t22.5 -31.5t30 -31.5t47.5 -14.5q22 0 44 8t42 20t38 27.5t33 30.5q-13 21 -21.5 44.5t-8.5 48.5q0 29 10 60.5t28.5 58t45 43.5t58.5 17q17 0 33.5 -3t33.5 -7q18 31 42 70t52 80.5
t59.5 83t65 77t68.5 62.5t69 40q6 2 13 2q13 0 22.5 -9.5t9.5 -22.5q0 -15 -6.5 -48t-17 -78.5t-24.5 -99.5t-29 -110.5t-30.5 -112.5t-29 -104.5t-24 -86.5t-15.5 -59q17 6 38.5 18.5t42.5 25.5t38.5 23.5t26.5 12.5q11 -3 14.5 -14t3.5 -21q0 -13 -10.5 -26.5t-27 -25.5
t-37 -23.5t-40.5 -19.5t-38 -13.5t-29 -6.5q-2 -11 -11.5 -18t-20.5 -7q-16 0 -26 14q-14 -3 -28.5 -4t-28.5 -1q-63 0 -124.5 22t-106.5 67q-21 -18 -45 -36t-49.5 -32t-53 -22.5t-57.5 -8.5zM807 691q-83 -67 -145.5 -153t-113.5 -179q26 -17 45 -36t34 -41t27 -47t23 -53
q34 128 66 254.5t64 254.5zM516 302q-26 -47 -54.5 -92.5t-63.5 -87.5q16 -19 38.5 -32.5t48 -21.5t51.5 -12t50 -4q12 0 24 1t23 3q0 34 -7.5 69.5t-21.5 68.5t-36 61t-52 47zM361 182q26 35 49 71.5t46 73.5q-7 3 -13.5 5t-14.5 2q-16 0 -31 -10.5t-26 -26.5t-18 -33.5
t-7 -32.5q0 -13 3.5 -26t11.5 -23zM595 894q0 13 12 21t31.5 12.5t42.5 5.5t45 1t39.5 -0.5t26.5 -0.5l249 -1q13 0 23.5 -9.5t10.5 -23.5q0 -13 -11 -20.5t-28 -12t-38 -6.5t-41 -2.5t-37 0t-26 0.5q-68 0 -135 1.5t-135 1.5q-12 0 -20.5 11t-8.5 22z" />
    <glyph glyph-name="amacron" unicode="&#x101;" horiz-adv-x="617" 
d="M6 -7q0 7 17.5 31.5t44.5 57.5t59.5 70.5t62.5 71.5t54 60.5t33 37.5q18 22 43 41t53.5 33t58.5 22t59 8q31 0 57.5 -16t44.5 -39q6 16 16 33.5t30 17.5q14 0 22 -11.5t8 -24.5q0 -14 -10 -39t-25.5 -56t-33.5 -65.5t-33.5 -66.5t-25.5 -59t-10 -43q0 -6 4 -11t11 -5
q23 0 49.5 14.5t51 32t43.5 32t27 14.5q11 0 17.5 -12.5t6.5 -21.5q0 -11 -12 -24.5t-30.5 -27.5t-41 -26.5t-44.5 -22.5t-41 -16t-29 -6q-26 0 -49 14t-29 41q-38 -22 -82.5 -43.5t-89.5 -21.5q-35 0 -57.5 15.5t-35 40.5t-15.5 54.5t2 58.5q-8 -11 -30 -38.5t-47 -56.5
t-48.5 -51.5t-33.5 -22.5q-11 0 -16.5 8.5t-5.5 17.5zM484 121q6 17 17.5 40t22.5 46.5t19 46t8 39.5q0 26 -15 47t-43 21q-50 0 -95 -23.5t-78.5 -61t-53 -85t-19.5 -95.5q0 -62 61 -62q26 0 49.5 8t45 21t42 28t39.5 30zM451 689q0 19 16.5 27t38.5 10t43 1t29 -1l162 -1
q8 0 15 -9t7 -23q0 -18 -15 -26.5t-35 -11t-39.5 -2t-28.5 0.5q-44 0 -87 1.5t-88 1.5q-8 0 -13 10.5t-5 21.5z" />
    <glyph glyph-name="Abreve" unicode="&#x102;" horiz-adv-x="735" 
d="M147 -24q-22 0 -47.5 10.5t-47.5 27.5t-37 39t-15 46q0 13 8.5 23t22.5 10t24 -14.5t22.5 -31.5t30 -31.5t47.5 -14.5q22 0 44 8t42 20t38 27.5t33 30.5q-13 21 -21.5 44.5t-8.5 48.5q0 29 10 60.5t28.5 58t45 43.5t58.5 17q17 0 33.5 -3t33.5 -7q18 31 42 70t52 80.5
t59.5 83t65 77t68.5 62.5t69 40q6 2 13 2q13 0 22.5 -9.5t9.5 -22.5q0 -15 -6.5 -48t-17 -78.5t-24.5 -99.5t-29 -110.5t-30.5 -112.5t-29 -104.5t-24 -86.5t-15.5 -59q17 6 38.5 18.5t42.5 25.5t38.5 23.5t26.5 12.5q11 -3 14.5 -14t3.5 -21q0 -13 -10.5 -26.5t-27 -25.5
t-37 -23.5t-40.5 -19.5t-38 -13.5t-29 -6.5q-2 -11 -11.5 -18t-20.5 -7q-16 0 -26 14q-14 -3 -28.5 -4t-28.5 -1q-63 0 -124.5 22t-106.5 67q-21 -18 -45 -36t-49.5 -32t-53 -22.5t-57.5 -8.5zM807 691q-83 -67 -145.5 -153t-113.5 -179q26 -17 45 -36t34 -41t27 -47t23 -53
q34 128 66 254.5t64 254.5zM516 302q-26 -47 -54.5 -92.5t-63.5 -87.5q16 -19 38.5 -32.5t48 -21.5t51.5 -12t50 -4q12 0 24 1t23 3q0 34 -7.5 69.5t-21.5 68.5t-36 61t-52 47zM361 182q26 35 49 71.5t46 73.5q-7 3 -13.5 5t-14.5 2q-16 0 -31 -10.5t-26 -26.5t-18 -33.5
t-7 -32.5q0 -13 3.5 -26t11.5 -23zM1000 986q13 0 22 -9.5t9 -22.5q0 -16 -15 -29t-35 -22.5t-41 -15t-34 -5.5q-18 0 -42.5 7.5t-47.5 21t-39 31.5t-16 39q0 12 9 21t21 9q14 0 23.5 -9.5t20.5 -21.5t27 -21.5t43 -9.5q19 0 32.5 6t23.5 12.5t19 12.5t20 6z" />
    <glyph glyph-name="abreve" unicode="&#x103;" horiz-adv-x="617" 
d="M6 -7q0 7 17.5 31.5t44.5 57.5t59.5 70.5t62.5 71.5t54 60.5t33 37.5q18 22 43 41t53.5 33t58.5 22t59 8q31 0 57.5 -16t44.5 -39q6 16 16 33.5t30 17.5q14 0 22 -11.5t8 -24.5q0 -14 -10 -39t-25.5 -56t-33.5 -65.5t-33.5 -66.5t-25.5 -59t-10 -43q0 -6 4 -11t11 -5
q23 0 49.5 14.5t51 32t43.5 32t27 14.5q11 0 17.5 -12.5t6.5 -21.5q0 -11 -12 -24.5t-30.5 -27.5t-41 -26.5t-44.5 -22.5t-41 -16t-29 -6q-26 0 -49 14t-29 41q-38 -22 -82.5 -43.5t-89.5 -21.5q-35 0 -57.5 15.5t-35 40.5t-15.5 54.5t2 58.5q-8 -11 -30 -38.5t-47 -56.5
t-48.5 -51.5t-33.5 -22.5q-11 0 -16.5 8.5t-5.5 17.5zM484 121q6 17 17.5 40t22.5 46.5t19 46t8 39.5q0 26 -15 47t-43 21q-50 0 -95 -23.5t-78.5 -61t-53 -85t-19.5 -95.5q0 -62 61 -62q26 0 49.5 8t45 21t42 28t39.5 30zM716 720q13 0 22 -9.5t9 -22.5q0 -16 -15 -29
t-35 -22.5t-41 -15t-34 -5.5q-18 0 -42.5 7.5t-47.5 21t-39 31.5t-16 39q0 12 9 21t21 9q14 0 23.5 -9.5t20.5 -21.5t27 -21.5t43 -9.5q19 0 32.5 6t23.5 12.5t19 12.5t20 6z" />
    <glyph glyph-name="Aogonek" unicode="&#x104;" horiz-adv-x="735" 
d="M684 -19q-18 -12 -34.5 -24.5t-29 -26.5t-20.5 -31t-8 -36q0 -9 5.5 -16t14 -11.5t17.5 -7t17 -2.5q34 0 50.5 7t24.5 16t12.5 16t15.5 7q8 0 12.5 -12.5t4.5 -18.5q0 -25 -10.5 -40.5t-27 -24.5t-38 -12t-43.5 -3q-20 0 -41 8.5t-38.5 22.5t-29 33.5t-11.5 40.5
q0 40 22 68.5t52 51.5h-18q-63 0 -124.5 22t-106.5 67q-21 -18 -45 -36t-49.5 -32t-53 -22.5t-57.5 -8.5q-22 0 -47.5 10.5t-47.5 27.5t-37 39t-15 46q0 13 8.5 23t22.5 10t24 -14.5t22.5 -31.5t30 -31.5t47.5 -14.5q22 0 44 8t42 20t38 27.5t33 30.5q-13 21 -21.5 44.5
t-8.5 48.5q0 29 10 60.5t28.5 58t45 43.5t58.5 17q17 0 33.5 -3t33.5 -7q18 31 42 70t52 80.5t59.5 83t65 77t68.5 62.5t69 40q6 2 13 2q13 0 22.5 -9.5t9.5 -22.5q0 -15 -6.5 -48t-17 -78.5t-24.5 -99.5t-29 -110.5t-30.5 -112.5t-29 -104.5t-24 -86.5t-15.5 -59
q17 6 38.5 18.5t42.5 25.5t38.5 23.5t26.5 12.5q11 -3 14.5 -14t3.5 -21q0 -13 -10.5 -26.5t-27 -25.5t-37 -23.5t-40.5 -19.5t-38 -13.5t-29 -6.5q-1 -12 -15 -20zM807 691q-83 -67 -145.5 -153t-113.5 -179q26 -17 45 -36t34 -41t27 -47t23 -53q34 128 66 254.5t64 254.5z
M516 302q-26 -47 -54.5 -92.5t-63.5 -87.5q16 -19 38.5 -32.5t48 -21.5t51.5 -12t50 -4q12 0 24 1t23 3q0 34 -7.5 69.5t-21.5 68.5t-36 61t-52 47zM361 182q26 35 49 71.5t46 73.5q-7 3 -13.5 5t-14.5 2q-16 0 -31 -10.5t-26 -26.5t-18 -33.5t-7 -32.5q0 -13 3.5 -26
t11.5 -23z" />
    <glyph glyph-name="aogonek" unicode="&#x105;" horiz-adv-x="617" 
d="M606 -4q-18 -12 -34.5 -24.5t-29 -26.5t-20.5 -31t-8 -36q0 -9 5.5 -16t14 -11.5t17.5 -7t17 -2.5q34 0 50.5 7t24.5 16t12.5 16t15.5 7q8 0 12.5 -12.5t4.5 -18.5q0 -25 -10.5 -40.5t-27 -24.5t-38 -12t-43.5 -3q-20 0 -41 8.5t-38.5 22.5t-29 33.5t-11.5 40.5
q0 33 16 58.5t39 46.5q-14 7 -24.5 18t-14.5 28q-38 -22 -82.5 -43.5t-89.5 -21.5q-35 0 -57.5 15.5t-35 40.5t-15.5 54.5t2 58.5q-8 -11 -30 -38.5t-47 -56.5t-48.5 -51.5t-33.5 -22.5q-11 0 -16.5 8.5t-5.5 17.5q0 7 17.5 31.5t44.5 57.5t59.5 70.5t62.5 71.5t54 60.5
t33 37.5q18 22 43 41t53.5 33t58.5 22t59 8q31 0 57.5 -16t44.5 -39q6 16 16 33.5t30 17.5q14 0 22 -11.5t8 -24.5q0 -14 -10 -39t-25.5 -56t-33.5 -65.5t-33.5 -66.5t-25.5 -59t-10 -43q0 -6 4 -11t11 -5q23 0 49.5 14.5t51 32t43.5 32t27 14.5q11 0 17.5 -12.5t6.5 -21.5
q0 -12 -12.5 -26t-32.5 -28t-44 -27t-46 -23zM484 121q6 17 17.5 40t22.5 46.5t19 46t8 39.5q0 26 -15 47t-43 21q-50 0 -95 -23.5t-78.5 -61t-53 -85t-19.5 -95.5q0 -62 61 -62q26 0 49.5 8t45 21t42 28t39.5 30z" />
    <glyph glyph-name="Cacute" unicode="&#x106;" horiz-adv-x="375" 
d="M157 477q-11 6 -37 18t-52.5 26.5t-47 30.5t-20.5 29t9.5 22.5t22.5 9.5q6 0 28 -10.5t47.5 -24t48.5 -26.5t33 -18q26 42 63.5 88.5t83 84.5t97 63t105.5 25q59 0 88.5 -34.5t29.5 -91.5q0 -27 -15.5 -55t-41.5 -53.5t-60 -48t-69.5 -39.5t-70.5 -26.5t-64 -9.5
q-30 0 -59 5t-58 14q-32 -63 -51.5 -131.5t-19.5 -139.5q0 -26 4.5 -51.5t16 -46t31.5 -33.5t51 -13q27 0 56.5 9t57.5 22t53.5 29t45.5 29t33 22t17 9q14 0 23.5 -8t9.5 -23q0 -11 -8 -18.5t-16 -13.5q-36 -29 -69.5 -51.5t-68.5 -38.5t-74 -24t-87 -8q-40 0 -67 20.5
t-43.5 51t-23.5 67t-7 69.5q0 77 20 151t55 142zM531 735q-40 0 -81.5 -23t-79 -57t-68.5 -73t-51 -70q20 -5 40.5 -8.5t40.5 -3.5q30 0 74.5 15t85.5 40.5t70.5 57.5t29.5 67q0 26 -18 40.5t-43 14.5zM529 864q0 9 11.5 25t29 35.5t39.5 39t42.5 36t38 26.5t26.5 10
q11 0 17.5 -8.5t6.5 -18.5q0 -13 -24.5 -41t-56.5 -57t-62.5 -51t-43.5 -22q-11 0 -17.5 7.5t-6.5 18.5z" />
    <glyph glyph-name="cacute" unicode="&#x107;" horiz-adv-x="419" 
d="M3 -8q0 6 15.5 28t39.5 52t53 64t56 65t48 55t29 34q21 25 47.5 50t57 44t63.5 31t68 12q11 0 27 -2.5t30.5 -8.5t25 -16t10.5 -24t-10.5 -22t-23.5 -8l-11 1q-8 5 -16.5 9.5t-18.5 4.5q-46 0 -86 -22t-72 -53v-2q-37 -35 -59.5 -84t-22.5 -100q0 -31 15 -43.5t45 -12.5
q37 0 71 14.5t63 32.5t51.5 32.5t36.5 14.5q10 0 15.5 -11.5t5.5 -19.5q0 -14 -15 -29t-38 -29.5t-51.5 -27t-56 -22t-51 -15t-35.5 -5.5q-73 0 -101 39t-20 108q-9 -12 -30.5 -38.5t-46 -54.5t-47.5 -49t-36 -21q-12 0 -18.5 9t-6.5 20zM480 589q0 9 11.5 25t29 35.5
t39.5 39t42.5 36t38 26.5t26.5 10q11 0 17.5 -8.5t6.5 -18.5q0 -13 -24.5 -41t-56.5 -57t-62.5 -51t-43.5 -22q-11 0 -17.5 7.5t-6.5 18.5z" />
    <glyph glyph-name="Ccircumflex" unicode="&#x108;" horiz-adv-x="375" 
d="M157 477q-11 6 -37 18t-52.5 26.5t-47 30.5t-20.5 29t9.5 22.5t22.5 9.5q6 0 28 -10.5t47.5 -24t48.5 -26.5t33 -18q26 42 63.5 88.5t83 84.5t97 63t105.5 25q59 0 88.5 -34.5t29.5 -91.5q0 -27 -15.5 -55t-41.5 -53.5t-60 -48t-69.5 -39.5t-70.5 -26.5t-64 -9.5
q-30 0 -59 5t-58 14q-32 -63 -51.5 -131.5t-19.5 -139.5q0 -26 4.5 -51.5t16 -46t31.5 -33.5t51 -13q27 0 56.5 9t57.5 22t53.5 29t45.5 29t33 22t17 9q14 0 23.5 -8t9.5 -23q0 -11 -8 -18.5t-16 -13.5q-36 -29 -69.5 -51.5t-68.5 -38.5t-74 -24t-87 -8q-40 0 -67 20.5
t-43.5 51t-23.5 67t-7 69.5q0 77 20 151t55 142zM531 735q-40 0 -81.5 -23t-79 -57t-68.5 -73t-51 -70q20 -5 40.5 -8.5t40.5 -3.5q30 0 74.5 15t85.5 40.5t70.5 57.5t29.5 67q0 26 -18 40.5t-43 14.5zM373 846q0 9 11 25.5t29 35.5t39.5 39t42.5 36t38.5 26t27.5 10
q13 0 31.5 -22.5t35 -52.5t28.5 -59t12 -41q0 -9 -8 -14.5t-16 -5.5q-11 0 -26 14t-29.5 33t-26.5 38t-17 28q-11 -11 -30 -30.5t-40.5 -38t-43 -32t-36.5 -13.5q-9 0 -15.5 7.5t-6.5 16.5z" />
    <glyph glyph-name="ccircumflex" unicode="&#x109;" horiz-adv-x="419" 
d="M3 -8q0 6 15.5 28t39.5 52t53 64t56 65t48 55t29 34q21 25 47.5 50t57 44t63.5 31t68 12q11 0 27 -2.5t30.5 -8.5t25 -16t10.5 -24t-10.5 -22t-23.5 -8l-11 1q-8 5 -16.5 9.5t-18.5 4.5q-46 0 -86 -22t-72 -53v-2q-37 -35 -59.5 -84t-22.5 -100q0 -31 15 -43.5t45 -12.5
q37 0 71 14.5t63 32.5t51.5 32.5t36.5 14.5q10 0 15.5 -11.5t5.5 -19.5q0 -14 -15 -29t-38 -29.5t-51.5 -27t-56 -22t-51 -15t-35.5 -5.5q-73 0 -101 39t-20 108q-9 -12 -30.5 -38.5t-46 -54.5t-47.5 -49t-36 -21q-12 0 -18.5 9t-6.5 20zM332 586q0 9 11 25.5t29 35.5
t39.5 39t42.5 36t38.5 26t27.5 10q13 0 31.5 -22.5t35 -52.5t28.5 -59t12 -41q0 -9 -8 -14.5t-16 -5.5q-11 0 -26 14t-29.5 33t-26.5 38t-17 28q-11 -11 -30 -30.5t-40.5 -38t-43 -32t-36.5 -13.5q-9 0 -15.5 7.5t-6.5 16.5z" />
    <glyph glyph-name="Cdotaccent" unicode="&#x10a;" horiz-adv-x="375" 
d="M157 477q-11 6 -37 18t-52.5 26.5t-47 30.5t-20.5 29t9.5 22.5t22.5 9.5q6 0 28 -10.5t47.5 -24t48.5 -26.5t33 -18q26 42 63.5 88.5t83 84.5t97 63t105.5 25q59 0 88.5 -34.5t29.5 -91.5q0 -27 -15.5 -55t-41.5 -53.5t-60 -48t-69.5 -39.5t-70.5 -26.5t-64 -9.5
q-30 0 -59 5t-58 14q-32 -63 -51.5 -131.5t-19.5 -139.5q0 -26 4.5 -51.5t16 -46t31.5 -33.5t51 -13q27 0 56.5 9t57.5 22t53.5 29t45.5 29t33 22t17 9q14 0 23.5 -8t9.5 -23q0 -11 -8 -18.5t-16 -13.5q-36 -29 -69.5 -51.5t-68.5 -38.5t-74 -24t-87 -8q-40 0 -67 20.5
t-43.5 51t-23.5 67t-7 69.5q0 77 20 151t55 142zM531 735q-40 0 -81.5 -23t-79 -57t-68.5 -73t-51 -70q20 -5 40.5 -8.5t40.5 -3.5q30 0 74.5 15t85.5 40.5t70.5 57.5t29.5 67q0 26 -18 40.5t-43 14.5zM509 930q0 15 5 32t15 32t23.5 25t30.5 10q12 0 20.5 -6t14 -15.5
t8 -20.5t2.5 -21q0 -15 -5 -33t-14 -33.5t-22.5 -26t-31.5 -10.5q-13 0 -21.5 6.5t-14 16.5t-8 21.5t-2.5 22.5z" />
    </font>
</defs>
</svg>
